<svg width="88" height="79" viewBox="0 0 88 79" fill="none" xmlns="http://www.w3.org/2000/svg">
<path d="M27.4905 18.8613L17.2146 31.1661L17.0454 44.0684L60.6532 74.2281L68.7447 73.3461L86.7965 48.7619L41.6583 15.6176L27.4905 18.8613Z" fill="#E84B38"/>
<path d="M37.2374 39.5347L32.3745 37.5351C32.049 37.4012 31.7792 37.1317 31.5652 36.7265L31.2083 36.0326C31.0182 35.6849 30.9874 35.3551 31.1156 35.0431L32.8476 30.8313C33.0149 30.4243 33.3171 30.1521 33.7542 30.0147L34.4099 29.8086C34.847 29.6712 35.2283 29.6694 35.5539 29.8032L40.9662 32.0288C41.2917 32.1627 41.5615 32.4322 41.7755 32.8374L42.0965 33.4451C42.3105 33.8503 42.3338 34.2563 42.1665 34.6632L41.8318 35.4771L40.1226 34.7743L40.2816 34.3877C40.3653 34.1842 40.4047 34.0498 40.3999 33.9844C40.4142 33.911 40.3799 33.8017 40.2968 33.6566C40.2138 33.5114 40.1411 33.4181 40.0789 33.3767C40.0222 33.3216 39.8718 33.2439 39.6277 33.1435L35.721 31.5371C35.4769 31.4367 35.3153 31.3861 35.2363 31.3854C35.1629 31.371 35.0457 31.3862 34.8845 31.431C34.7234 31.4757 34.6153 31.5265 34.5603 31.5831C34.5244 31.6318 34.4647 31.7579 34.381 31.9613L33.0591 35.1762C32.9754 35.3796 32.9264 35.5181 32.9121 35.5915C32.9169 35.6569 32.9608 35.7622 33.0438 35.9073C33.1269 36.0525 33.1967 36.1526 33.2534 36.2076C33.3156 36.249 33.4689 36.32 33.713 36.4204L38.5759 38.42C38.9015 38.5539 39.1712 38.8234 39.3852 39.2286L39.7062 39.8363C39.9202 40.2415 39.9436 40.6475 39.7762 41.0545L38.0192 45.3273C37.8519 45.7342 37.5496 46.0064 37.1125 46.1438L36.4569 46.35C36.0198 46.4874 35.6384 46.4892 35.3129 46.3553L29.4937 43.9624C29.1681 43.8285 28.8983 43.559 28.6843 43.1539L28.3634 42.5461C28.1494 42.141 28.126 41.7349 28.2934 41.328L28.628 40.5141L30.3372 41.2169L30.1782 41.6035C30.0945 41.807 30.0455 41.9454 30.0312 42.0188C30.036 42.0842 30.08 42.1895 30.163 42.3347C30.246 42.4798 30.3159 42.5799 30.3726 42.6349C30.4348 42.6764 30.588 42.7473 30.8322 42.8477L35.1457 44.6215C35.3899 44.7219 35.5487 44.7792 35.6221 44.7935C35.701 44.7943 35.8211 44.7723 35.9822 44.7276C36.1434 44.6828 36.2419 44.6361 36.2777 44.5874C36.3327 44.5307 36.4021 44.4007 36.4858 44.1972L37.8914 40.7789C37.975 40.5755 38.0145 40.441 38.0097 40.3756C38.024 40.3022 37.9896 40.1929 37.9066 40.0478C37.8235 39.9026 37.7509 39.8093 37.6887 39.7679C37.632 39.7128 37.4816 39.6351 37.2374 39.5347ZM47.5084 50.4187L47.427 50.3852C47.3601 50.548 47.1411 50.6562 46.7702 50.7098C46.4647 50.7586 46.2589 50.7771 46.1527 50.7652C46.0602 50.7588 45.8918 50.7055 45.6477 50.6051L42.1684 49.1743C41.8428 49.0405 41.573 48.771 41.359 48.3658L41.0381 47.758C40.8241 47.3529 40.8007 46.9468 40.9681 46.5399L41.9721 44.0983C42.1394 43.6913 42.4416 43.4192 42.8787 43.2817L43.5344 43.0756C43.9715 42.9382 44.3528 42.9364 44.6784 43.0703L48.3205 44.5679C48.5782 44.6739 48.7354 44.7544 48.7921 44.8094C48.8543 44.8509 48.9202 44.9414 48.9897 45.081C49.0967 45.2835 49.1223 45.4526 49.0665 45.5883L49.1479 45.6218L50.1435 43.2005C50.2272 42.997 50.2666 42.8626 50.2618 42.7972C50.2761 42.7238 50.2418 42.6145 50.1587 42.4693C50.0757 42.3242 50.0031 42.2309 49.9408 42.1894C49.8841 42.1344 49.7337 42.0567 49.4896 41.9563L46.1934 40.6009C45.9492 40.5005 45.7713 40.4511 45.6596 40.4527C45.567 40.4464 45.3569 40.4948 45.029 40.5978L44.2266 39.0785L44.8822 38.8723C45.21 38.7693 45.4202 38.7209 45.5128 38.7272C45.6245 38.7256 45.8024 38.775 46.0465 38.8754L50.8281 40.8416C51.1536 40.9754 51.4234 41.245 51.6374 41.6501L51.9584 42.2579C52.1724 42.663 52.1957 43.0691 52.0284 43.476L49.5267 49.5597C49.443 49.7632 49.394 49.9016 49.3797 49.975C49.3845 50.0404 49.4285 50.1457 49.5115 50.2909C49.5945 50.436 49.6289 50.5453 49.6146 50.6187C49.6194 50.6841 49.58 50.8186 49.4963 51.022L49.0863 52.019L48.3742 51.7262C48.13 51.6258 47.966 51.5425 47.8822 51.4763C47.8176 51.4022 47.7318 51.2638 47.6248 51.0612C47.4802 50.7956 47.4414 50.5815 47.5084 50.4187ZM43.5055 45.2284L42.8529 46.8154C42.7692 47.0189 42.7202 47.1573 42.7059 47.2307C42.7107 47.2961 42.7547 47.4014 42.8377 47.5466C42.9207 47.6917 42.9906 47.7918 43.0473 47.8468C43.1095 47.8883 43.2627 47.9592 43.5069 48.0596L45.9892 49.0804C46.2334 49.1808 46.4017 49.2341 46.4943 49.2405C46.6004 49.2524 46.8062 49.2339 47.1117 49.1851C47.4172 49.1363 47.6043 49.0864 47.6728 49.0353C47.7414 48.9842 47.8176 48.8569 47.9012 48.6535L48.4702 47.2699C48.5538 47.0664 48.5933 46.9319 48.5884 46.8665C48.6028 46.7931 48.5684 46.6839 48.4854 46.5387C48.4023 46.3936 48.3297 46.3002 48.2675 46.2588C48.2108 46.2038 48.0604 46.1261 47.8162 46.0257L44.8456 44.8041C44.6014 44.7037 44.4398 44.6531 44.3608 44.6524C44.2874 44.638 44.1702 44.6533 44.0091 44.698C43.8479 44.7428 43.7399 44.7935 43.6848 44.8501C43.649 44.8988 43.5892 45.0249 43.5055 45.2284ZM57.8294 38.0116L59.5385 38.7144L54.3929 51.2277C54.2646 51.5397 54.1973 51.742 54.191 51.8345C54.1902 51.9135 54.2489 52.0407 54.3671 52.2162C54.4876 52.4243 54.5447 52.5747 54.5384 52.6672C54.5512 52.7518 54.4935 52.9501 54.3652 53.262L54.0389 54.0556L53.4285 53.8046C53.1707 53.6986 53.0068 53.6153 52.9365 53.5547C52.8663 53.4941 52.7573 53.3541 52.6096 53.1348L52.2875 52.6456C52.1398 52.4262 52.0624 52.2675 52.0551 52.1694C52.0615 52.0769 52.1288 51.8746 52.2571 51.5626L57.8294 38.0116ZM64.9866 56.4165L65.7891 57.9358L65.1335 58.142C64.8056 58.2451 64.5859 58.2974 64.4742 58.2991C64.3816 58.2927 64.2133 58.2394 63.9691 58.1389L58.5365 55.905C58.2109 55.7711 57.9412 55.5016 57.7272 55.0965L57.4062 54.4887C57.1922 54.0836 57.1689 53.6775 57.3362 53.2706L60.0136 46.7596C60.1809 46.3526 60.4831 46.0805 60.9202 45.943L61.5759 45.7369C62.013 45.5995 62.3943 45.5977 62.7199 45.7316L67.4607 47.681C67.732 47.7926 68.0018 48.0621 68.27 48.4896L68.6114 49.1057C68.8365 49.4837 68.8599 49.8898 68.6814 50.3238L66.9662 54.4949L60.0075 51.6335L59.221 53.5461C59.1374 53.7496 59.0884 53.888 59.0741 53.9614C59.0789 54.0268 59.1228 54.1321 59.2058 54.2773C59.2889 54.4224 59.3587 54.5225 59.4154 54.5775C59.4776 54.619 59.6308 54.6899 59.875 54.7903L63.8223 56.4135C64.0665 56.5139 64.2348 56.5672 64.3274 56.5736C64.4391 56.5719 64.6588 56.5196 64.9866 56.4165ZM65.8009 52.4696L66.7965 50.0483C66.8802 49.8448 66.9196 49.7104 66.9148 49.645C66.9291 49.5716 66.8948 49.4623 66.8117 49.3171C66.7287 49.172 66.656 49.0787 66.5938 49.0372C66.5371 48.9822 66.3867 48.9045 66.1426 48.8041L62.8871 47.4654C62.6429 47.365 62.4813 47.3144 62.4023 47.3137C62.3289 47.2993 62.2117 47.3146 62.0505 47.3593C61.8894 47.4041 61.7813 47.4548 61.7263 47.5114C61.6905 47.5601 61.6307 47.6862 61.547 47.8897L60.5514 50.3109L65.8009 52.4696ZM70.5148 59.9742L70.7072 59.5062C70.8243 59.2214 70.851 59.0024 70.7871 58.8492C70.7176 58.7097 70.5201 58.5729 70.1945 58.4391L70.1131 58.4056C69.7876 58.2717 69.5578 58.2328 69.4238 58.2887C69.2954 58.331 69.2133 58.3765 69.1774 58.4252C69.1415 58.4739 69.0817 58.6 68.9981 58.8034L68.8056 59.2714C68.6885 59.5563 68.6619 59.7753 68.7258 59.9284C68.7952 60.068 68.9927 60.2047 69.3183 60.3386L69.42 60.3804C69.732 60.5087 69.955 60.5449 70.089 60.489C70.2174 60.4466 70.2996 60.4011 70.3355 60.3524C70.3713 60.3038 70.4311 60.1777 70.5148 59.9742ZM71.5794 56.7488L70.3179 56.23L72.2695 50.8478L74.3612 45.7611L76.0703 46.4639L73.9786 51.5506L71.5794 56.7488Z" fill="white"/>
<path d="M31.5652 36.7265L30.6759 37.184L30.6809 37.1936L31.5652 36.7265ZM31.2083 36.0326L32.0975 35.5752L32.0918 35.5641L32.0858 35.5531L31.2083 36.0326ZM33.7542 30.0147L34.0542 30.9687L33.7542 30.0147ZM34.4099 29.8086L34.7098 30.7625L34.7098 30.7625L34.4099 29.8086ZM41.7755 32.8374L40.8912 33.3044L40.8912 33.3044L41.7755 32.8374ZM42.0965 33.4451L42.9807 32.9781L42.9807 32.9781L42.0965 33.4451ZM41.8318 35.4771L41.4515 36.402L42.3763 36.7823L42.7566 35.8574L41.8318 35.4771ZM40.1226 34.7743L39.1978 34.394L38.8175 35.3189L39.7423 35.6992L40.1226 34.7743ZM40.3999 33.9844L39.4184 33.7928L39.3928 33.9243L39.4026 34.0578L40.3999 33.9844ZM40.2968 33.6566L39.4288 34.1531L39.4288 34.1531L40.2968 33.6566ZM40.0789 33.3767L39.3823 34.0941L39.4482 34.1581L39.5246 34.209L40.0789 33.3767ZM35.2363 31.3854L35.0448 32.3668L35.1349 32.3844L35.2267 32.3853L35.2363 31.3854ZM34.8845 31.431L35.1521 32.3945L35.1522 32.3945L34.8845 31.431ZM34.5603 31.5831L33.8429 30.8865L33.7956 30.9352L33.7553 30.9899L34.5603 31.5831ZM32.9121 35.5915L31.9306 35.3999L31.9049 35.5314L31.9148 35.6649L32.9121 35.5915ZM33.0438 35.9073L32.1758 36.4039L33.0438 35.9073ZM33.2534 36.2076L32.5568 36.925L32.6227 36.989L32.6991 37.0399L33.2534 36.2076ZM39.3852 39.2286L38.501 39.6956L38.501 39.6956L39.3852 39.2286ZM39.7062 39.8363L40.5905 39.3693L40.5905 39.3693L39.7062 39.8363ZM37.1125 46.1438L37.4125 47.0978L37.4125 47.0978L37.1125 46.1438ZM36.4569 46.35L36.1569 45.396L36.1569 45.396L36.4569 46.35ZM28.3634 42.5461L29.2476 42.0791L29.2476 42.0791L28.3634 42.5461ZM28.628 40.5141L29.0083 39.5892L28.0835 39.2089L27.7032 40.1338L28.628 40.5141ZM30.3372 41.2169L31.262 41.5972L31.6424 40.6724L30.7175 40.2921L30.3372 41.2169ZM30.0312 42.0188L29.0497 41.8273L29.0241 41.9587L29.0339 42.0923L30.0312 42.0188ZM30.3726 42.6349L29.676 43.3524L29.7418 43.4163L29.8183 43.4672L30.3726 42.6349ZM35.6221 44.7935L35.4305 45.775L35.5206 45.7926L35.6124 45.7935L35.6221 44.7935ZM36.2777 44.5874L35.5603 43.8908L35.513 43.9395L35.4727 43.9942L36.2777 44.5874ZM38.0097 40.3756L37.0282 40.1841L37.0025 40.3155L37.0124 40.4491L38.0097 40.3756ZM37.6887 39.7679L36.9921 40.4853L37.0579 40.5493L37.1344 40.6002L37.6887 39.7679ZM37.6177 38.6099L32.7548 36.6102L31.9942 38.4599L36.8571 40.4596L37.6177 38.6099ZM32.7548 36.6102C32.7037 36.5892 32.5876 36.5211 32.4494 36.2595L30.6809 37.1936C30.9707 37.7422 31.3942 38.2132 31.9942 38.4599L32.7548 36.6102ZM32.4544 36.2691L32.0975 35.5752L30.319 36.4901L30.6759 37.184L32.4544 36.2691ZM32.0858 35.5531C32.0434 35.4757 32.0388 35.4369 32.0382 35.4313C32.0379 35.4282 32.0382 35.4285 32.0379 35.4305C32.0377 35.4323 32.0376 35.4303 32.0405 35.4234L30.1908 34.6628C29.9271 35.3041 30.0242 35.9513 30.3307 36.5122L32.0858 35.5531ZM32.0405 35.4234L33.7724 31.2116L31.9227 30.4509L30.1908 34.6628L32.0405 35.4234ZM33.7724 31.2116C33.8216 31.0919 33.8867 31.0213 34.0542 30.9687L33.4543 29.0607C32.7476 29.2829 32.2082 29.7567 31.9227 30.4509L33.7724 31.2116ZM34.0542 30.9687L34.7098 30.7625L34.11 28.8546L33.4543 29.0607L34.0542 30.9687ZM34.7098 30.7625C34.9921 30.6738 35.1225 30.7071 35.1736 30.7281L35.9342 28.8784C35.3342 28.6317 34.7019 28.6685 34.11 28.8546L34.7098 30.7625ZM35.1736 30.7281L40.5859 32.9537L41.3465 31.1039L35.9342 28.8784L35.1736 30.7281ZM40.5859 32.9537C40.6369 32.9747 40.753 33.0427 40.8912 33.3044L42.6597 32.3703C42.3699 31.8216 41.9465 31.3507 41.3465 31.1039L40.5859 32.9537ZM40.8912 33.3044L41.2122 33.9121L42.9807 32.9781L42.6597 32.3703L40.8912 33.3044ZM41.2122 33.9121C41.2942 34.0673 41.2908 34.1633 41.2416 34.2829L43.0913 35.0435C43.3768 34.3493 43.3267 33.6332 42.9807 32.9781L41.2122 33.9121ZM41.2416 34.2829L40.9069 35.0968L42.7566 35.8574L43.0913 35.0435L41.2416 34.2829ZM42.2121 34.5523L40.503 33.8494L39.7423 35.6992L41.4515 36.402L42.2121 34.5523ZM41.0475 35.1546L41.2065 34.768L39.3568 34.0074L39.1978 34.394L41.0475 35.1546ZM41.2065 34.768C41.255 34.6499 41.3001 34.5297 41.3335 34.4157C41.3575 34.334 41.4137 34.1358 41.3972 33.9109L39.4026 34.0578C39.3987 34.0056 39.4004 33.9638 39.4025 33.9369C39.4046 33.9091 39.4077 33.8882 39.4099 33.8758C39.4121 33.863 39.414 33.8547 39.4147 33.8518C39.4154 33.8488 39.4155 33.849 39.4143 33.8529C39.4119 33.8612 39.4065 33.8783 39.3965 33.9058C39.3866 33.9328 39.3736 33.9665 39.3568 34.0074L41.2065 34.768ZM41.3814 34.1759C41.433 33.9113 41.3817 33.6838 41.3388 33.5475C41.2928 33.401 41.2273 33.2692 41.1648 33.16L39.4288 34.1531C39.4494 34.1891 39.4426 34.1845 39.4309 34.1473C39.4245 34.1269 39.4135 34.0871 39.4075 34.0316C39.4014 33.9762 39.3988 33.8931 39.4184 33.7928L41.3814 34.1759ZM41.1648 33.16C41.0774 33.0072 40.9075 32.727 40.6332 32.5443L39.5246 34.209C39.4728 34.1745 39.4385 34.1426 39.4208 34.1249C39.4023 34.1065 39.3925 34.094 39.391 34.092C39.3891 34.0896 39.402 34.1062 39.4288 34.1531L41.1648 33.16ZM40.7755 32.6592C40.6342 32.5221 40.4689 32.4333 40.3826 32.3887C40.2717 32.3314 40.1438 32.2745 40.008 32.2187L39.2473 34.0684C39.3557 34.1129 39.4251 34.1451 39.4646 34.1655C39.4841 34.1756 39.4871 34.1781 39.4792 34.173C39.4748 34.1702 39.4642 34.1632 39.4494 34.152C39.4352 34.1413 39.4111 34.1221 39.3823 34.0941L40.7755 32.6592ZM40.008 32.2187L36.1014 30.6122L35.3407 32.462L39.2473 34.0684L40.008 32.2187ZM36.1014 30.6122C35.9655 30.5564 35.8346 30.5068 35.7155 30.4695C35.6228 30.4405 35.4428 30.3873 35.2459 30.3854L35.2267 32.3853C35.1866 32.3849 35.156 32.3816 35.1383 32.3793C35.1199 32.3769 35.1074 32.3743 35.1023 32.3732C35.0932 32.3713 35.0971 32.3716 35.118 32.3782C35.1604 32.3915 35.2324 32.4174 35.3407 32.462L36.1014 30.6122ZM35.4279 30.4039C35.1044 30.3407 34.7865 30.4204 34.6169 30.4675L35.1522 32.3945C35.2042 32.3801 35.2251 32.3773 35.222 32.3777C35.2195 32.378 35.2038 32.38 35.1777 32.3801C35.1527 32.3803 35.1058 32.3788 35.0448 32.3668L35.4279 30.4039ZM34.6169 30.4675C34.4365 30.5176 34.0979 30.6239 33.8429 30.8865L35.2778 32.2797C35.2307 32.3282 35.1882 32.3594 35.1614 32.377C35.1342 32.3949 35.1146 32.4045 35.1074 32.4079C35.0952 32.4136 35.1059 32.4074 35.1521 32.3945L34.6169 30.4675ZM33.7553 30.9899C33.675 31.0988 33.6162 31.22 33.585 31.2858C33.5446 31.371 33.5013 31.4712 33.4561 31.581L35.3059 32.3417C35.3444 32.2481 35.3728 32.1835 35.3922 32.1426C35.4018 32.1222 35.4063 32.1139 35.4061 32.1143C35.4059 32.1147 35.403 32.1201 35.3975 32.129C35.3924 32.1372 35.3816 32.1543 35.3653 32.1764L33.7553 30.9899ZM33.4561 31.581L32.1342 34.7959L33.9839 35.5565L35.3059 32.3417L33.4561 31.581ZM32.1342 34.7959C32.0564 34.985 31.9669 35.2136 31.9306 35.3999L33.8935 35.783C33.8887 35.8078 33.8849 35.8191 33.8874 35.8106C33.8893 35.8042 33.8939 35.7899 33.9023 35.7662C33.9192 35.7184 33.9456 35.6496 33.9839 35.5565L32.1342 34.7959ZM31.9148 35.6649C31.9288 35.8558 31.9882 36.0146 32.0257 36.1045C32.0691 36.2086 32.1223 36.3102 32.1758 36.4039L33.9119 35.4108C33.8979 35.3864 33.8878 35.3676 33.8808 35.3537C33.8737 35.3396 33.8711 35.3335 33.8715 35.3344C33.8716 35.3346 33.8774 35.3484 33.8846 35.3734C33.8911 35.3964 33.9041 35.4472 33.9094 35.518L31.9148 35.6649ZM32.1758 36.4039C32.2655 36.5607 32.3929 36.7659 32.5568 36.925L33.95 35.4901C33.9697 35.5093 33.9808 35.5227 33.9833 35.5258C33.9863 35.5294 33.9847 35.5277 33.9785 35.5189C33.9657 35.5005 33.9435 35.4661 33.9119 35.4108L32.1758 36.4039ZM32.6991 37.0399C32.8605 37.1474 33.1152 37.2558 33.3327 37.3452L34.0933 35.4955C33.9781 35.4481 33.8934 35.4114 33.8351 35.3844C33.8061 35.3709 33.7884 35.3622 33.7796 35.3576C33.7674 35.3512 33.7812 35.3576 33.8077 35.3753L32.6991 37.0399ZM33.3327 37.3452L38.1956 39.3449L38.9562 37.4952L34.0933 35.4955L33.3327 37.3452ZM38.1956 39.3449C38.2467 39.3659 38.3628 39.434 38.501 39.6956L40.2695 38.7615C39.9797 38.2128 39.5562 37.7419 38.9562 37.4952L38.1956 39.3449ZM38.501 39.6956L38.822 40.3033L40.5905 39.3693L40.2695 38.7615L38.501 39.6956ZM38.822 40.3033C38.904 40.4585 38.9006 40.5545 38.8514 40.6741L40.7011 41.4348C40.9865 40.7406 40.9365 40.0244 40.5905 39.3693L38.822 40.3033ZM38.8514 40.6741L37.0943 44.947L38.9441 45.7076L40.7011 41.4348L38.8514 40.6741ZM37.0943 44.947C37.0451 45.0667 36.9801 45.1372 36.8126 45.1899L37.4125 47.0978C38.1192 46.8756 38.6586 46.4018 38.9441 45.7076L37.0943 44.947ZM36.8126 45.1899L36.1569 45.396L36.7568 47.3039L37.4125 47.0978L36.8126 45.1899ZM36.1569 45.396C35.8747 45.4848 35.7443 45.4515 35.6932 45.4305L34.9326 47.2802C35.5326 47.5269 36.1648 47.4901 36.7568 47.3039L36.1569 45.396ZM35.6932 45.4305L29.874 43.0376L29.1134 44.8873L34.9326 47.2802L35.6932 45.4305ZM29.874 43.0376C29.8229 43.0165 29.7068 42.9485 29.5686 42.6868L27.8001 43.6209C28.0899 44.1696 28.5133 44.6405 29.1134 44.8873L29.874 43.0376ZM29.5686 42.6868L29.2476 42.0791L27.4791 43.0132L27.8001 43.6209L29.5686 42.6868ZM29.2476 42.0791C29.1656 41.9239 29.169 41.828 29.2182 41.7083L27.3685 40.9477C27.083 41.6419 27.1331 42.3581 27.4791 43.0132L29.2476 42.0791ZM29.2182 41.7083L29.5529 40.8944L27.7032 40.1338L27.3685 40.9477L29.2182 41.7083ZM28.2477 41.439L29.9569 42.1418L30.7175 40.2921L29.0083 39.5892L28.2477 41.439ZM29.4123 40.8366L29.2534 41.2232L31.1031 41.9838L31.262 41.5972L29.4123 40.8366ZM29.2534 41.2232C29.1756 41.4123 29.0861 41.6409 29.0497 41.8273L31.0127 42.2104C31.0079 42.2352 31.004 42.2465 31.0066 42.238C31.0085 42.2315 31.013 42.2173 31.0214 42.1936C31.0384 42.1457 31.0648 42.0769 31.1031 41.9838L29.2534 41.2232ZM29.0339 42.0923C29.048 42.2832 29.1074 42.442 29.1449 42.5319C29.1883 42.6359 29.2414 42.7376 29.295 42.8312L31.031 41.8381C31.0171 41.8138 31.007 41.7949 31 41.7811C30.9928 41.767 30.9903 41.7609 30.9907 41.7618C30.9907 41.7619 30.9966 41.7757 31.0037 41.8008C31.0103 41.8237 31.0233 41.8746 31.0285 41.9454L29.0339 42.0923ZM29.295 42.8312C29.3847 42.988 29.512 43.1932 29.676 43.3524L31.0692 41.9175C31.0889 41.9366 31.1 41.95 31.1025 41.9531C31.1054 41.9567 31.1038 41.9551 31.0977 41.9463C31.0848 41.9278 31.0627 41.8935 31.031 41.8381L29.295 42.8312ZM29.8183 43.4672C29.9797 43.5748 30.2343 43.6831 30.4519 43.7726L31.2125 41.9228C31.0973 41.8755 31.0126 41.8387 30.9543 41.8117C30.9252 41.7983 30.9076 41.7895 30.8988 41.7849C30.8866 41.7785 30.9004 41.785 30.9269 41.8026L29.8183 43.4672ZM30.4519 43.7726L34.7654 45.5463L35.526 43.6966L31.2125 41.9228L30.4519 43.7726ZM34.7654 45.5463C34.983 45.6358 35.2401 45.7379 35.4305 45.775L35.8136 43.8121C35.8449 43.8182 35.8592 43.8233 35.846 43.8192C35.8365 43.8163 35.8178 43.8102 35.7877 43.7993C35.7273 43.7774 35.6413 43.744 35.526 43.6966L34.7654 45.5463ZM35.6124 45.7935C35.8409 45.7957 36.0758 45.7394 36.2498 45.6911L35.7146 43.764C35.6531 43.7811 35.6132 43.7899 35.5911 43.794C35.5806 43.7959 35.5783 43.796 35.5829 43.7955C35.5868 43.7951 35.6042 43.7933 35.6317 43.7936L35.6124 45.7935ZM36.2498 45.6911C36.3598 45.6606 36.4848 45.6197 36.6055 45.5625C36.7019 45.5168 36.9166 45.4061 37.0827 45.1807L35.4727 43.9942C35.5451 43.896 35.6195 43.837 35.6602 43.8081C35.7032 43.7776 35.7362 43.7612 35.7484 43.7554C35.7706 43.7449 35.7658 43.7498 35.7146 43.764L36.2498 45.6911ZM36.9952 45.284C37.122 45.1534 37.2058 45.0072 37.2534 44.9178C37.3093 44.813 37.3616 44.6966 37.4106 44.5775L35.5609 43.8169C35.5441 43.8578 35.5294 43.8916 35.5168 43.9191C35.504 43.9468 35.4946 43.9656 35.4886 43.9769C35.4821 43.989 35.4823 43.9875 35.4894 43.9768C35.4932 43.9711 35.5003 43.9607 35.511 43.9471C35.5214 43.9338 35.5377 43.914 35.5603 43.8908L36.9952 45.284ZM37.4106 44.5775L38.8162 41.1592L36.9665 40.3986L35.5609 43.8169L37.4106 44.5775ZM38.8162 41.1592C38.8648 41.0411 38.9098 40.9209 38.9433 40.8069C38.9672 40.7253 39.0235 40.527 39.007 40.3022L37.0124 40.4491C37.0085 40.3968 37.0102 40.355 37.0122 40.3281C37.0143 40.3004 37.0175 40.2794 37.0196 40.267C37.0218 40.2542 37.0238 40.2459 37.0245 40.2431C37.0252 40.24 37.0252 40.2402 37.0241 40.2441C37.0217 40.2524 37.0162 40.2695 37.0062 40.297C36.9964 40.324 36.9834 40.3577 36.9665 40.3986L38.8162 41.1592ZM38.9911 40.5671C39.0428 40.3025 38.9915 40.0751 38.9486 39.9387C38.9025 39.7922 38.837 39.6604 38.7746 39.5512L37.0386 40.5443C37.0592 40.5803 37.0524 40.5757 37.0407 40.5385C37.0343 40.5182 37.0233 40.4783 37.0172 40.4228C37.0111 40.3674 37.0086 40.2843 37.0282 40.1841L38.9911 40.5671ZM38.7746 39.5512C38.6872 39.3985 38.5173 39.1183 38.243 38.9355L37.1344 40.6002C37.0826 40.5657 37.0482 40.5338 37.0305 40.5161C37.0121 40.4977 37.0023 40.4852 37.0008 40.4832C36.9989 40.4808 37.0118 40.4975 37.0386 40.5443L38.7746 39.5512ZM38.3853 39.0504C38.244 38.9133 38.0787 38.8245 37.9923 38.7799C37.8814 38.7226 37.7536 38.6657 37.6177 38.6099L36.8571 40.4596C36.9654 40.5041 37.0349 40.5363 37.0744 40.5568C37.0938 40.5668 37.0969 40.5693 37.089 40.5643C37.0846 40.5614 37.0739 40.5544 37.0591 40.5432C37.0449 40.5325 37.0208 40.5133 36.9921 40.4853L38.3853 39.0504ZM47.5084 50.4187L48.4332 50.799L48.8135 49.8741L47.8887 49.4938L47.5084 50.4187ZM47.427 50.3852L47.8073 49.4604L46.8824 49.0801L46.5021 50.0049L47.427 50.3852ZM46.7702 50.7098L46.6271 49.7201L46.6198 49.7212L46.6124 49.7223L46.7702 50.7098ZM46.1527 50.7652L46.2643 49.7714L46.2427 49.769L46.2211 49.7675L46.1527 50.7652ZM41.359 48.3658L42.2433 47.8988L41.359 48.3658ZM41.0381 47.758L41.9223 47.291L41.0381 47.758ZM42.8787 43.2817L42.5788 42.3278L42.5788 42.3278L42.8787 43.2817ZM43.5344 43.0756L43.8343 44.0296L43.8343 44.0296L43.5344 43.0756ZM48.7921 44.8094L48.0955 45.5269L48.1614 45.5908L48.2378 45.6417L48.7921 44.8094ZM48.9897 45.081L48.0944 45.5265L48.0998 45.5373L48.1054 45.548L48.9897 45.081ZM49.0665 45.5883L48.1416 45.208L47.7613 46.1328L48.6862 46.5132L49.0665 45.5883ZM49.1479 45.6218L48.7676 46.5466L49.6924 46.9269L50.0727 46.0021L49.1479 45.6218ZM50.2618 42.7972L49.2803 42.6056L49.2547 42.737L49.2645 42.8706L50.2618 42.7972ZM49.9408 42.1894L49.2442 42.9069L49.3101 42.9708L49.3865 43.0217L49.9408 42.1894ZM45.6596 40.4527L45.5913 41.4504L45.6328 41.4532L45.6743 41.4526L45.6596 40.4527ZM45.029 40.5978L44.1448 41.0649L44.534 41.8017L45.3289 41.5518L45.029 40.5978ZM44.2266 39.0785L43.9266 38.1245L42.7819 38.4844L43.3423 39.5455L44.2266 39.0785ZM44.8822 38.8723L45.1821 39.8263L45.1821 39.8263L44.8822 38.8723ZM45.5128 38.7272L45.4444 39.7249L45.4859 39.7278L45.5275 39.7271L45.5128 38.7272ZM51.6374 41.6501L52.5216 41.1831L52.5216 41.1831L51.6374 41.6501ZM51.9584 42.2579L51.0741 42.7249L51.9584 42.2579ZM49.3797 49.975L48.3982 49.7835L48.3726 49.9149L48.3824 50.0485L49.3797 49.975ZM49.5115 50.2909L48.6435 50.7874L49.5115 50.2909ZM49.6146 50.6187L48.6331 50.4272L48.6074 50.5586L48.6173 50.6922L49.6146 50.6187ZM49.0863 52.019L48.706 52.9439L49.6309 53.3242L50.0112 52.3993L49.0863 52.019ZM47.8822 51.4763L47.1285 52.1335L47.1895 52.2035L47.2625 52.2611L47.8822 51.4763ZM47.6248 51.0612L48.5091 50.5942L48.5031 50.5833L47.6248 51.0612ZM42.7059 47.2307L41.7244 47.0392L41.6988 47.1706L41.7086 47.3042L42.7059 47.2307ZM43.0473 47.8468L42.3507 48.5643L42.4165 48.6283L42.493 48.6792L43.0473 47.8468ZM46.4943 49.2405L46.6059 48.2467L46.5843 48.2443L46.5626 48.2428L46.4943 49.2405ZM47.1117 49.1851L46.9539 48.1977L47.1117 49.1851ZM47.6728 49.0353L47.0755 48.2333L47.0755 48.2333L47.6728 49.0353ZM48.5884 46.8665L47.607 46.675L47.5813 46.8064L47.5911 46.94L48.5884 46.8665ZM48.2675 46.2588L47.5709 46.9763L47.6367 47.0402L47.7131 47.0911L48.2675 46.2588ZM44.3608 44.6524L44.1693 45.6339L44.2594 45.6514L44.3512 45.6523L44.3608 44.6524ZM43.6848 44.8501L42.9674 44.1535L42.9201 44.2022L42.8798 44.2569L43.6848 44.8501ZM47.8887 49.4938L47.8073 49.4604L47.0467 51.3101L47.1281 51.3435L47.8887 49.4938ZM46.5021 50.0049C46.5916 49.7873 46.7454 49.7039 46.7695 49.692C46.7842 49.6847 46.7822 49.6876 46.7553 49.695C46.7292 49.7022 46.6876 49.7114 46.6271 49.7201L46.9133 51.6995C47.1535 51.6648 47.4154 51.6037 47.6556 51.4849C47.8987 51.3648 48.1954 51.1459 48.3518 50.7655L46.5021 50.0049ZM46.6124 49.7223C46.4724 49.7447 46.3692 49.7578 46.2974 49.7643C46.2619 49.7674 46.2403 49.7684 46.2301 49.7686C46.2172 49.7689 46.2319 49.7678 46.2643 49.7714L46.0411 51.7589C46.3038 51.7884 46.6424 51.7429 46.9279 51.6973L46.6124 49.7223ZM46.2211 49.7675C46.246 49.7692 46.2645 49.7718 46.2747 49.7735C46.2853 49.7752 46.2914 49.7766 46.2922 49.7768C46.2931 49.777 46.283 49.7747 46.2593 49.7671C46.211 49.7518 46.1356 49.7245 46.028 49.6802L45.2674 51.5299C45.4907 51.6217 45.8051 51.7437 46.0844 51.7628L46.2211 49.7675ZM46.028 49.6802L42.5487 48.2495L41.7881 50.0992L45.2674 51.5299L46.028 49.6802ZM42.5487 48.2495C42.4976 48.2285 42.3815 48.1604 42.2433 47.8988L40.4748 48.8328C40.7646 49.3815 41.188 49.8525 41.7881 50.0992L42.5487 48.2495ZM42.2433 47.8988L41.9223 47.291L40.1538 48.2251L40.4748 48.8328L42.2433 47.8988ZM41.9223 47.291C41.8403 47.1358 41.8437 47.0399 41.8929 46.9202L40.0432 46.1596C39.7577 46.8538 39.8078 47.57 40.1538 48.2251L41.9223 47.291ZM41.8929 46.9202L42.8969 44.4786L41.0472 43.718L40.0432 46.1596L41.8929 46.9202ZM42.8969 44.4786C42.9461 44.3589 43.0112 44.2883 43.1787 44.2357L42.5788 42.3278C41.8721 42.55 41.3327 43.0238 41.0472 43.718L42.8969 44.4786ZM43.1787 44.2357L43.8343 44.0296L43.2345 42.1216L42.5788 42.3278L43.1787 44.2357ZM43.8343 44.0296C44.1166 43.9408 44.247 43.9741 44.2981 43.9951L45.0587 42.1454C44.4587 41.8987 43.8264 41.9355 43.2345 42.1216L43.8343 44.0296ZM44.2981 43.9951L47.9402 45.4928L48.7008 43.6431L45.0587 42.1454L44.2981 43.9951ZM47.9402 45.4928C48.0562 45.5405 48.1318 45.5753 48.1759 45.5979C48.1977 45.609 48.2023 45.6124 48.1955 45.6081C48.1916 45.6056 48.181 45.5987 48.1659 45.5874C48.1516 45.5767 48.1261 45.5566 48.0955 45.5269L49.4887 44.0919C49.3444 43.9518 49.1729 43.8614 49.0875 43.8177C48.9744 43.7598 48.8425 43.7013 48.7008 43.6431L47.9402 45.4928ZM48.2378 45.6417C48.1826 45.605 48.1445 45.5695 48.1219 45.5462C48.0989 45.5225 48.0851 45.5044 48.0796 45.4967C48.0697 45.4832 48.0757 45.4889 48.0944 45.5265L49.8849 44.6354C49.805 44.4749 49.6426 44.1744 49.3464 43.9771L48.2378 45.6417ZM48.1054 45.548C48.1232 45.5816 48.109 45.5662 48.1004 45.5094C48.0906 45.445 48.0898 45.3339 48.1416 45.208L49.9913 45.9686C50.211 45.4345 50.0415 44.9313 49.8739 44.6139L48.1054 45.548ZM48.6862 46.5132L48.7676 46.5466L49.5282 44.6969L49.4468 44.6634L48.6862 46.5132ZM50.0727 46.0021L51.0684 43.5808L49.2187 42.8202L48.223 45.2415L50.0727 46.0021ZM51.0684 43.5808C51.1169 43.4627 51.162 43.3425 51.1954 43.2284C51.2194 43.1468 51.2757 42.9485 51.2591 42.7237L49.2645 42.8706C49.2607 42.8183 49.2623 42.7765 49.2644 42.7496C49.2665 42.7219 49.2696 42.7009 49.2718 42.6885C49.274 42.6758 49.2759 42.6675 49.2766 42.6646C49.2774 42.6615 49.2774 42.6617 49.2763 42.6656C49.2738 42.674 49.2684 42.6911 49.2584 42.7185C49.2485 42.7456 49.2355 42.7792 49.2187 42.8202L51.0684 43.5808ZM51.2433 42.9887C51.2949 42.7241 51.2436 42.4966 51.2007 42.3602C51.1547 42.2138 51.0892 42.0819 51.0267 41.9728L49.2907 42.9659C49.3113 43.0019 49.3045 42.9973 49.2928 42.9601C49.2864 42.9397 49.2755 42.8999 49.2694 42.8444C49.2633 42.789 49.2608 42.7058 49.2803 42.6056L51.2433 42.9887ZM51.0267 41.9728C50.9393 41.82 50.7695 41.5398 50.4951 41.3571L49.3865 43.0217C49.3347 42.9872 49.3004 42.9554 49.2827 42.9377C49.2642 42.9192 49.2545 42.9068 49.2529 42.9048C49.251 42.9024 49.2639 42.919 49.2907 42.9659L51.0267 41.9728ZM50.6374 41.4719C50.4962 41.3348 50.3308 41.246 50.2445 41.2014C50.1336 41.1441 50.0057 41.0873 49.8699 41.0314L49.1093 42.8811C49.2176 42.9257 49.287 42.9579 49.3265 42.9783C49.346 42.9884 49.349 42.9909 49.3411 42.9858C49.3367 42.983 49.3261 42.976 49.3113 42.9648C49.2971 42.954 49.273 42.9348 49.2442 42.9069L50.6374 41.4719ZM49.8699 41.0314L46.5737 39.676L45.8131 41.5257L49.1093 42.8811L49.8699 41.0314ZM46.5737 39.676C46.3298 39.5757 45.9819 39.4479 45.6448 39.4528L45.6743 41.4526C45.6278 41.4533 45.5985 41.4486 45.5932 41.4478C45.5864 41.4466 45.591 41.447 45.6094 41.4521C45.6476 41.4627 45.7136 41.4848 45.8131 41.5257L46.5737 39.676ZM45.7279 39.4551C45.5199 39.4408 45.3163 39.4849 45.2083 39.5097C45.0674 39.5421 44.9052 39.5885 44.7291 39.6439L45.3289 41.5518C45.4807 41.5041 45.5875 41.4747 45.6568 41.4588C45.6913 41.4508 45.706 41.4487 45.7056 41.4487C45.7049 41.4488 45.6956 41.4501 45.6794 41.4511C45.6645 41.452 45.6334 41.4533 45.5913 41.4504L45.7279 39.4551ZM45.9133 40.1308L45.1108 38.6114L43.3423 39.5455L44.1448 41.0649L45.9133 40.1308ZM44.5265 40.0324L45.1821 39.8263L44.5823 37.9184L43.9266 38.1245L44.5265 40.0324ZM45.1821 39.8263C45.3338 39.7786 45.4407 39.7492 45.51 39.7333C45.5445 39.7254 45.5592 39.7232 45.5588 39.7232C45.5581 39.7234 45.5487 39.7247 45.5326 39.7256C45.5176 39.7265 45.4865 39.7278 45.4444 39.7249L45.5811 37.7296C45.3731 37.7153 45.1695 37.7594 45.0615 37.7842C44.9206 37.8167 44.7584 37.863 44.5823 37.9184L45.1821 39.8263ZM45.5275 39.7271C45.481 39.7278 45.4517 39.7231 45.4464 39.7223C45.4396 39.7212 45.4442 39.7215 45.4626 39.7266C45.5008 39.7372 45.5668 39.7593 45.6662 39.8002L46.4269 37.9505C46.183 37.8502 45.8351 37.7224 45.498 37.7274L45.5275 39.7271ZM45.6662 39.8002L50.4478 41.7664L51.2084 39.9167L46.4269 37.9505L45.6662 39.8002ZM50.4478 41.7664C50.4989 41.7874 50.615 41.8555 50.7531 42.1171L52.5216 41.1831C52.2318 40.6344 51.8084 40.1634 51.2084 39.9167L50.4478 41.7664ZM50.7531 42.1171L51.0741 42.7249L52.8426 41.7908L52.5216 41.1831L50.7531 42.1171ZM51.0741 42.7249C51.1561 42.8801 51.1527 42.976 51.1035 43.0957L52.9532 43.8563C53.2387 43.1621 53.1886 42.4459 52.8426 41.7908L51.0741 42.7249ZM51.1035 43.0957L48.6018 49.1794L50.4516 49.94L52.9532 43.8563L51.1035 43.0957ZM48.6018 49.1794C48.5241 49.3686 48.4346 49.5972 48.3982 49.7835L50.3612 50.1666C50.3564 50.1914 50.3525 50.2027 50.3551 50.1942C50.357 50.1877 50.3615 50.1735 50.3699 50.1498C50.3868 50.1019 50.4133 50.0331 50.4516 49.94L48.6018 49.1794ZM48.3824 50.0485C48.3965 50.2394 48.4559 50.3982 48.4934 50.4881C48.5368 50.5922 48.5899 50.6938 48.6435 50.7874L50.3795 49.7943C50.3656 49.77 50.3555 49.7511 50.3485 49.7373C50.3413 49.7232 50.3388 49.7171 50.3392 49.718C50.3392 49.7181 50.3451 49.732 50.3522 49.757C50.3588 49.7799 50.3718 49.8308 50.377 49.9016L48.3824 50.0485ZM48.6435 50.7874C48.6641 50.8234 48.6573 50.8188 48.6456 50.7816C48.6392 50.7613 48.6282 50.7214 48.6221 50.6659C48.6161 50.6105 48.6135 50.5274 48.6331 50.4272L50.596 50.8103C50.6477 50.5456 50.5964 50.3182 50.5535 50.1818C50.5075 50.0353 50.442 49.9035 50.3795 49.7943L48.6435 50.7874ZM48.6173 50.6922C48.6134 50.6399 48.6151 50.5981 48.6171 50.5712C48.6192 50.5435 48.6224 50.5225 48.6245 50.5101C48.6268 50.4973 48.6287 50.4891 48.6294 50.4862C48.6301 50.4831 48.6302 50.4833 48.629 50.4872C48.6266 50.4955 48.6211 50.5126 48.6111 50.5401C48.6013 50.5671 48.5883 50.6008 48.5714 50.6417L50.4211 51.4023C50.4697 51.2842 50.5148 51.164 50.5482 51.05C50.5721 50.9684 50.6284 50.7701 50.6119 50.5453L48.6173 50.6922ZM48.5714 50.6417L48.1615 51.6387L50.0112 52.3993L50.4211 51.4023L48.5714 50.6417ZM49.4666 51.0942L48.7545 50.8013L47.9939 52.6511L48.706 52.9439L49.4666 51.0942ZM48.7545 50.8013C48.6474 50.7573 48.5714 50.7225 48.5209 50.6968C48.4961 50.6842 48.4821 50.6762 48.4766 50.6729C48.4699 50.6688 48.4809 50.6749 48.502 50.6915L47.2625 52.2611C47.4686 52.4239 47.7532 52.5521 47.9939 52.6511L48.7545 50.8013ZM48.636 50.8192C48.6546 50.8405 48.6495 50.8387 48.6192 50.7898C48.5922 50.7464 48.5557 50.6826 48.509 50.5942L46.7405 51.5283C46.8487 51.7331 46.9805 51.9637 47.1285 52.1335L48.636 50.8192ZM48.5031 50.5833C48.4635 50.5105 48.4659 50.4934 48.4713 50.5232C48.4778 50.5595 48.4879 50.666 48.4332 50.799L46.5835 50.0384C46.3412 50.6276 46.5576 51.1922 46.7464 51.5392L48.5031 50.5833ZM42.5807 44.8481L41.9281 46.4351L43.7778 47.1957L44.4304 45.6087L42.5807 44.8481ZM41.9281 46.4351C41.8503 46.6243 41.7608 46.8529 41.7244 47.0392L43.6874 47.4223C43.6826 47.4471 43.6787 47.4584 43.6813 47.4499C43.6832 47.4434 43.6877 47.4292 43.6961 47.4055C43.7131 47.3576 43.7395 47.2888 43.7778 47.1957L41.9281 46.4351ZM41.7086 47.3042C41.7227 47.4951 41.7821 47.6539 41.8196 47.7438C41.863 47.8478 41.9161 47.9495 41.9697 48.0431L43.7057 47.05C43.6918 47.0257 43.6817 47.0068 43.6747 46.993C43.6675 46.9789 43.665 46.9728 43.6654 46.9737C43.6654 46.9738 43.6713 46.9877 43.6784 47.0127C43.685 47.0356 43.698 47.0865 43.7032 47.1573L41.7086 47.3042ZM41.9697 48.0431C42.0594 48.1999 42.1867 48.4051 42.3507 48.5643L43.7439 47.1294C43.7636 47.1485 43.7747 47.162 43.7772 47.165C43.7801 47.1686 43.7785 47.167 43.7724 47.1582C43.7595 47.1397 43.7374 47.1054 43.7057 47.05L41.9697 48.0431ZM42.493 48.6792C42.6544 48.7867 42.909 48.895 43.1266 48.9845L43.8872 47.1348C43.772 47.0874 43.6873 47.0507 43.629 47.0237C43.5999 47.0102 43.5823 47.0014 43.5735 46.9968C43.5613 46.9905 43.5751 46.9969 43.6016 47.0145L42.493 48.6792ZM43.1266 48.9845L45.6089 50.0052L46.3695 48.1555L43.8872 47.1348L43.1266 48.9845ZM45.6089 50.0052C45.8322 50.0971 46.1466 50.219 46.4259 50.2381L46.5626 48.2428C46.5875 48.2445 46.606 48.2472 46.6162 48.2488C46.6268 48.2505 46.6329 48.2519 46.6337 48.2521C46.6346 48.2523 46.6245 48.25 46.6008 48.2424C46.5525 48.2271 46.4771 48.1998 46.3695 48.1555L45.6089 50.0052ZM46.3827 50.2342C46.6453 50.2637 46.9839 50.2182 47.2695 50.1726L46.9539 48.1977C46.8139 48.22 46.7107 48.2331 46.6389 48.2396C46.6034 48.2428 46.5818 48.2437 46.5716 48.2439C46.5587 48.2442 46.5734 48.2431 46.6059 48.2467L46.3827 50.2342ZM47.2695 50.1726C47.4386 50.1456 47.5991 50.1146 47.7391 50.0772C47.8391 50.0505 48.0692 49.987 48.2702 49.8372L47.0755 48.2333C47.1209 48.1995 47.1593 48.178 47.1821 48.1662C47.2059 48.1539 47.2234 48.1466 47.2316 48.1434C47.2466 48.1375 47.2464 48.1387 47.2231 48.1449C47.2016 48.1507 47.1687 48.1585 47.122 48.1678C47.0759 48.1771 47.0202 48.1871 46.9539 48.1977L47.2695 50.1726ZM48.2702 49.8372C48.4597 49.6961 48.5764 49.5205 48.6396 49.4148C48.7121 49.2935 48.7735 49.1617 48.8261 49.0338L46.9764 48.2731C46.9616 48.309 46.9493 48.3365 46.9395 48.3567C46.9295 48.3774 46.9239 48.387 46.9232 48.3882C46.9219 48.3903 46.9301 48.3761 46.9491 48.3527C46.9591 48.3404 46.9737 48.3235 46.9935 48.3038C47.0131 48.2842 47.0403 48.2595 47.0755 48.2333L48.2702 49.8372ZM48.8261 49.0338L49.395 47.6502L47.5453 46.8896L46.9764 48.2731L48.8261 49.0338ZM49.395 47.6502C49.4436 47.5321 49.4886 47.4119 49.5221 47.2978C49.546 47.2162 49.6023 47.0179 49.5857 46.7931L47.5911 46.94C47.5873 46.8877 47.589 46.8459 47.591 46.819C47.5931 46.7913 47.5963 46.7703 47.5984 46.7579C47.6006 46.7451 47.6026 46.7369 47.6033 46.734C47.604 46.7309 47.604 46.7311 47.6029 46.735C47.6005 46.7434 47.595 46.7605 47.585 46.7879C47.5752 46.8149 47.5621 46.8486 47.5453 46.8896L49.395 47.6502ZM49.5699 47.0581C49.6216 46.7935 49.5703 46.566 49.5274 46.4296C49.4813 46.2831 49.4158 46.1513 49.3534 46.0422L47.6174 47.0353C47.638 47.0712 47.6311 47.0666 47.6195 47.0294C47.6131 47.0091 47.6021 46.9693 47.596 46.9138C47.5899 46.8584 47.5874 46.7752 47.607 46.675L49.5699 47.0581ZM49.3534 46.0422C49.266 45.8894 49.0961 45.6092 48.8218 45.4265L47.7131 47.0911C47.6614 47.0566 47.627 47.0247 47.6093 47.0071C47.5909 46.9886 47.5811 46.9762 47.5796 46.9742C47.5777 46.9717 47.5906 46.9884 47.6174 47.0353L49.3534 46.0422ZM48.964 45.5413C48.8228 45.4042 48.6574 45.3154 48.5711 45.2708C48.4602 45.2135 48.3324 45.1567 48.1965 45.1008L47.4359 46.9505C47.5442 46.9951 47.6136 47.0273 47.6531 47.0477C47.6726 47.0577 47.6756 47.0602 47.6678 47.0552C47.6634 47.0524 47.6527 47.0454 47.6379 47.0342C47.6237 47.0234 47.5996 47.0042 47.5709 46.9763L48.964 45.5413ZM48.1965 45.1008L45.2259 43.8793L44.4652 45.729L47.4359 46.9505L48.1965 45.1008ZM45.2259 43.8793C45.09 43.8234 44.9592 43.7738 44.84 43.7365C44.7473 43.7075 44.5673 43.6543 44.3705 43.6524L44.3512 45.6523C44.3111 45.6519 44.2805 45.6487 44.2628 45.6463C44.2444 45.6439 44.232 45.6413 44.2268 45.6403C44.2177 45.6383 44.2216 45.6387 44.2425 45.6452C44.2849 45.6585 44.3569 45.6844 44.4652 45.729L45.2259 43.8793ZM44.5524 43.6709C44.2289 43.6078 43.911 43.6874 43.7414 43.7345L44.2767 45.6615C44.3287 45.6471 44.3496 45.6443 44.3465 45.6447C44.344 45.645 44.3283 45.647 44.3022 45.6472C44.2772 45.6473 44.2304 45.6458 44.1693 45.6339L44.5524 43.6709ZM43.7414 43.7345C43.561 43.7846 43.2224 43.8909 42.9674 44.1535L44.4023 45.5467C44.3552 45.5953 44.3127 45.6264 44.286 45.644C44.2587 45.6619 44.2391 45.6715 44.2319 45.6749C44.2197 45.6806 44.2304 45.6744 44.2767 45.6615L43.7414 43.7345ZM42.8798 44.2569C42.7995 44.3659 42.7407 44.487 42.7095 44.5528C42.6691 44.638 42.6258 44.7382 42.5807 44.8481L44.4304 45.6087C44.4689 45.5151 44.4973 45.4505 44.5167 45.4096C44.5263 45.3892 44.5308 45.3809 44.5307 45.3813C44.5304 45.3817 44.5275 45.3871 44.522 45.396C44.5169 45.4042 44.5062 45.4213 44.4898 45.4434L42.8798 44.2569ZM57.8294 38.0116L58.2097 37.0867L57.2848 36.7064L56.9045 37.6313L57.8294 38.0116ZM59.5385 38.7144L60.4634 39.0947L60.8437 38.1698L59.9188 37.7895L59.5385 38.7144ZM54.191 51.8345L53.1933 51.7662L53.1913 51.7955L53.191 51.8249L54.191 51.8345ZM54.3671 52.2162L55.2324 51.715L55.2154 51.6857L55.1965 51.6576L54.3671 52.2162ZM54.5384 52.6672L53.5407 52.5989L53.5332 52.7084L53.5497 52.8169L54.5384 52.6672ZM54.0389 54.0556L53.6586 54.9804L54.5834 55.3607L54.9637 54.4359L54.0389 54.0556ZM52.9365 53.5547L52.2833 54.3118L52.9365 53.5547ZM52.6096 53.1348L51.7744 53.6848L51.7802 53.6934L52.6096 53.1348ZM52.2875 52.6456L53.1228 52.0956L53.117 52.087L52.2875 52.6456ZM52.0551 52.1694L51.0575 52.1011L51.0526 52.172L51.0578 52.2429L52.0551 52.1694ZM57.4491 38.9364L59.1582 39.6392L59.9188 37.7895L58.2097 37.0867L57.4491 38.9364ZM58.6136 38.3341L53.4681 50.8474L55.3178 51.608L60.4634 39.0947L58.6136 38.3341ZM53.4681 50.8474C53.3996 51.014 53.3412 51.166 53.2974 51.2976C53.2625 51.4026 53.2059 51.5819 53.1933 51.7662L55.1887 51.9029C55.1845 51.9635 55.1746 51.9978 55.1774 51.9869C55.1785 51.9824 55.1834 51.9644 55.1951 51.9292C55.2186 51.8586 55.258 51.7535 55.3178 51.608L53.4681 50.8474ZM53.191 51.8249C53.1885 52.0858 53.2759 52.2986 53.3264 52.4081C53.3864 52.5381 53.4621 52.6626 53.5376 52.7747L55.1965 51.6576C55.1539 51.5943 55.1412 51.5675 55.1425 51.5702C55.1436 51.5726 55.1537 51.5945 55.1643 51.6323C55.1742 51.6676 55.1919 51.7424 55.1909 51.8441L53.191 51.8249ZM53.5017 52.7174C53.5231 52.7543 53.5387 52.7835 53.5496 52.8055C53.5607 52.828 53.5651 52.8391 53.5655 52.8402C53.5663 52.8423 53.5594 52.8249 53.5524 52.7916C53.5459 52.7604 53.5344 52.692 53.5407 52.5989L55.5361 52.7355C55.5538 52.476 55.4827 52.2551 55.4352 52.13C55.3805 51.9861 55.3079 51.8453 55.2324 51.715L53.5017 52.7174ZM53.5497 52.8169C53.5391 52.7473 53.5395 52.6925 53.5408 52.6615C53.5422 52.6289 53.5455 52.6057 53.5472 52.595C53.5503 52.5753 53.5519 52.5745 53.5446 52.5997C53.5379 52.6227 53.5266 52.6578 53.5087 52.7068C53.491 52.7553 53.4684 52.8134 53.4403 52.8817L55.29 53.6423C55.3604 53.4712 55.4218 53.3068 55.4648 53.159C55.4924 53.0643 55.57 52.8006 55.5271 52.5175L53.5497 52.8169ZM53.4403 52.8817L53.114 53.6753L54.9637 54.4359L55.29 53.6423L53.4403 52.8817ZM54.4192 53.1307L53.8088 52.8797L53.0482 54.7294L53.6586 54.9804L54.4192 53.1307ZM53.8088 52.8797C53.6934 52.8323 53.6146 52.7962 53.565 52.771C53.5534 52.7651 53.5447 52.7605 53.5385 52.7571C53.5323 52.7536 53.5297 52.752 53.5302 52.7523C53.5305 52.7525 53.5358 52.7558 53.5448 52.7621C53.5534 52.7682 53.5694 52.78 53.5898 52.7976L52.2833 54.3118C52.4135 54.4242 52.5612 54.5043 52.6593 54.5542C52.7738 54.6123 52.9058 54.6709 53.0482 54.7294L53.8088 52.8797ZM53.5898 52.7976C53.6159 52.8201 53.6275 52.8339 53.6223 52.8281C53.6188 52.8242 53.6087 52.8124 53.5912 52.79C53.5558 52.7445 53.5057 52.6751 53.4391 52.5763L51.7802 53.6934C51.9177 53.8976 52.096 54.1503 52.2833 54.3118L53.5898 52.7976ZM53.4449 52.5849L53.1227 52.0957L51.4523 53.1955L51.7744 53.6847L53.4449 52.5849ZM53.117 52.087C53.0884 52.0446 53.0661 52.0093 53.0491 51.9807C53.0318 51.9518 53.022 51.9331 53.0173 51.9235C53.0122 51.9129 53.0164 51.9197 53.0234 51.9412C53.0272 51.9526 53.0327 51.9709 53.038 51.9953C53.0433 52.0194 53.0493 52.0536 53.0524 52.096L51.0578 52.2429C51.0755 52.4823 51.1626 52.6832 51.22 52.8006C51.2863 52.9365 51.3697 53.073 51.4581 53.2041L53.117 52.087ZM53.0528 52.2377C53.0486 52.2984 53.0388 52.3327 53.0415 52.3218C53.0426 52.3173 53.0475 52.2993 53.0592 52.2641C53.0827 52.1934 53.1221 52.0884 53.1819 51.9429L51.3322 51.1823C51.2637 51.3489 51.2054 51.5009 51.1615 51.6325C51.1266 51.7375 51.0701 51.9168 51.0575 52.1011L53.0528 52.2377ZM53.1819 51.9429L58.7542 38.3919L56.9045 37.6313L51.3322 51.1823L53.1819 51.9429ZM64.9866 56.4165L65.8709 55.9495L65.4817 55.2126L64.6867 55.4625L64.9866 56.4165ZM65.7891 57.9358L66.089 58.8898L67.2338 58.5299L66.6734 57.4688L65.7891 57.9358ZM65.1335 58.142L65.4334 59.0959L65.4334 59.0959L65.1335 58.142ZM64.4742 58.2991L64.4059 59.2967L64.4474 59.2996L64.4889 59.2989L64.4742 58.2991ZM57.7272 55.0965L56.8429 55.5635L57.7272 55.0965ZM57.4062 54.4887L58.2904 54.0217L57.4062 54.4887ZM60.9202 45.943L61.2202 46.897L60.9202 45.943ZM61.5759 45.7369L61.276 44.7829L61.276 44.7829L61.5759 45.7369ZM68.27 48.4896L69.1448 48.0049L69.1316 47.9811L69.1171 47.958L68.27 48.4896ZM68.6114 49.1057L67.7367 49.5903L67.7442 49.604L67.7522 49.6174L68.6114 49.1057ZM66.9662 54.4949L66.5859 55.4198L67.5107 55.8001L67.891 54.8752L66.9662 54.4949ZM60.0075 51.6335L60.3878 50.7086L59.463 50.3283L59.0827 51.2532L60.0075 51.6335ZM59.0741 53.9614L58.0926 53.7699L58.0669 53.9013L58.0768 54.0349L59.0741 53.9614ZM59.4154 54.5775L58.7188 55.295L58.7847 55.3589L58.8611 55.4098L59.4154 54.5775ZM64.3274 56.5736L64.259 57.5712L64.3005 57.5741L64.3421 57.5735L64.3274 56.5736ZM65.8009 52.4696L65.4206 53.3944L66.3454 53.7747L66.7257 52.8499L65.8009 52.4696ZM66.9148 49.645L65.9333 49.4534L65.9077 49.5849L65.9175 49.7184L66.9148 49.645ZM66.5938 49.0372L65.8972 49.7547L65.9631 49.8187L66.0395 49.8695L66.5938 49.0372ZM62.4023 47.3137L62.2108 48.2952L62.3009 48.3127L62.3927 48.3136L62.4023 47.3137ZM61.7263 47.5114L61.0089 46.8149L60.9616 46.8635L60.9213 46.9182L61.7263 47.5114ZM60.5514 50.3109L59.6265 49.9306L59.2462 50.8555L60.1711 51.2358L60.5514 50.3109ZM64.1024 56.8835L64.9049 58.4029L66.6734 57.4688L65.8709 55.9495L64.1024 56.8835ZM65.4892 56.9819L64.8335 57.188L65.4334 59.0959L66.089 58.8898L65.4892 56.9819ZM64.8335 57.188C64.6818 57.2357 64.5694 57.2671 64.491 57.2858C64.4521 57.2951 64.4285 57.2995 64.4174 57.3013C64.4028 57.3037 64.4206 57.2997 64.4594 57.2992L64.4889 59.2989C64.6593 59.2964 64.8303 59.2609 64.9545 59.2313C65.0959 59.1977 65.2572 59.1513 65.4334 59.0959L64.8335 57.188ZM64.5425 57.3014C64.5675 57.3031 64.5859 57.3057 64.5961 57.3074C64.6067 57.3091 64.6128 57.3105 64.6137 57.3107C64.6145 57.3109 64.6044 57.3085 64.5807 57.301C64.5324 57.2857 64.4571 57.2584 64.3494 57.2141L63.5888 59.0638C63.8121 59.1556 64.1265 59.2776 64.4059 59.2967L64.5425 57.3014ZM64.3494 57.2141L58.9168 54.9802L58.1562 56.8299L63.5888 59.0638L64.3494 57.2141ZM58.9168 54.9802C58.8657 54.9591 58.7496 54.8911 58.6114 54.6294L56.8429 55.5635C57.1327 56.1122 57.5562 56.5832 58.1562 56.8299L58.9168 54.9802ZM58.6114 54.6294L58.2904 54.0217L56.522 54.9558L56.8429 55.5635L58.6114 54.6294ZM58.2904 54.0217C58.2085 53.8665 58.2119 53.7706 58.2611 53.6509L56.4113 52.8903C56.1259 53.5845 56.1759 54.3007 56.522 54.9558L58.2904 54.0217ZM58.2611 53.6509L60.9384 47.1399L59.0887 46.3793L56.4113 52.8903L58.2611 53.6509ZM60.9384 47.1399C60.9876 47.0202 61.0527 46.9496 61.2202 46.897L60.6203 44.9891C59.9136 45.2113 59.3742 45.6851 59.0887 46.3793L60.9384 47.1399ZM61.2202 46.897L61.8758 46.6909L61.276 44.7829L60.6203 44.9891L61.2202 46.897ZM61.8758 46.6909C62.1581 46.6021 62.2885 46.6354 62.3396 46.6564L63.1002 44.8067C62.5002 44.56 61.8679 44.5968 61.276 44.7829L61.8758 46.6909ZM62.3396 46.6564L67.0804 48.6059L67.841 46.7562L63.1002 44.8067L62.3396 46.6564ZM67.0804 48.6059C67.0633 48.5988 67.0915 48.6061 67.1598 48.6743C67.2275 48.742 67.3168 48.8519 67.423 49.0211L69.1171 47.958C68.8093 47.4676 68.4001 46.9861 67.841 46.7562L67.0804 48.6059ZM67.3953 48.9742L67.7367 49.5903L69.4861 48.6211L69.1448 48.0049L67.3953 48.9742ZM67.7522 49.6174C67.8042 49.7047 67.8246 49.778 67.7565 49.9435L69.6062 50.7041C69.8951 50.0015 69.8689 49.2628 69.4705 48.594L67.7522 49.6174ZM67.7565 49.9435L66.0413 54.1146L67.891 54.8752L69.6062 50.7041L67.7565 49.9435ZM67.3465 53.5701L60.3878 50.7086L59.6272 52.5584L66.5859 55.4198L67.3465 53.5701ZM59.0827 51.2532L58.2962 53.1658L60.1459 53.9264L60.9324 52.0138L59.0827 51.2532ZM58.2962 53.1658C58.2184 53.3549 58.1289 53.5835 58.0926 53.7699L60.0555 54.153C60.0507 54.1778 60.0469 54.1891 60.0494 54.1806C60.0513 54.1741 60.0559 54.1599 60.0642 54.1362C60.0812 54.0883 60.1076 54.0195 60.1459 53.9264L58.2962 53.1658ZM58.0768 54.0349C58.0908 54.2258 58.1502 54.3846 58.1877 54.4745C58.2311 54.5785 58.2843 54.6802 58.3378 54.7738L60.0738 53.7807C60.0599 53.7564 60.0498 53.7375 60.0428 53.7237C60.0357 53.7096 60.0331 53.7035 60.0335 53.7044C60.0336 53.7045 60.0394 53.7183 60.0466 53.7434C60.0531 53.7663 60.0661 53.8172 60.0714 53.888L58.0768 54.0349ZM58.3378 54.7738C58.4275 54.9306 58.5549 55.1358 58.7188 55.295L60.112 53.8601C60.1317 53.8792 60.1428 53.8927 60.1453 53.8957C60.1483 53.8993 60.1467 53.8977 60.1405 53.8889C60.1277 53.8704 60.1055 53.8361 60.0738 53.7807L58.3378 54.7738ZM58.8611 55.4098C59.0225 55.5174 59.2772 55.6257 59.4947 55.7152L60.2553 53.8654C60.1401 53.8181 60.0554 53.7813 59.9971 53.7543C59.968 53.7409 59.9504 53.7321 59.9416 53.7275C59.9294 53.7211 59.9432 53.7276 59.9697 53.7452L58.8611 55.4098ZM59.4947 55.7152L63.442 57.3383L64.2026 55.4886L60.2553 53.8654L59.4947 55.7152ZM63.442 57.3383C63.6653 57.4301 63.9797 57.5521 64.259 57.5712L64.3957 55.5759C64.4207 55.5776 64.4391 55.5802 64.4493 55.5819C64.4599 55.5836 64.466 55.585 64.4668 55.5852C64.4677 55.5854 64.4576 55.5831 64.4339 55.5755C64.3856 55.5602 64.3103 55.5329 64.2026 55.4886L63.442 57.3383ZM64.3421 57.5735C64.5125 57.5709 64.6834 57.5354 64.8077 57.5058C64.949 57.4722 65.1104 57.4258 65.2866 57.3705L64.6867 55.4625C64.535 55.5102 64.4226 55.5416 64.3442 55.5603C64.3053 55.5696 64.2817 55.574 64.2706 55.5758C64.256 55.5782 64.2738 55.5743 64.3126 55.5737L64.3421 57.5735ZM66.7257 52.8499L67.7214 50.4286L65.8717 49.668L64.876 52.0893L66.7257 52.8499ZM67.7214 50.4286C67.7699 50.3105 67.815 50.1903 67.8484 50.0763C67.8724 49.9946 67.9287 49.7964 67.9121 49.5715L65.9175 49.7184C65.9136 49.6662 65.9153 49.6243 65.9174 49.5974C65.9195 49.5697 65.9226 49.5488 65.9248 49.5364C65.927 49.5236 65.9289 49.5153 65.9296 49.5124C65.9304 49.5094 65.9304 49.5096 65.9292 49.5135C65.9268 49.5218 65.9214 49.5389 65.9114 49.5664C65.9015 49.5934 65.8885 49.627 65.8717 49.668L67.7214 50.4286ZM67.8963 49.8365C67.9479 49.5719 67.8966 49.3444 67.8537 49.208C67.8077 49.0616 67.7422 48.9298 67.6797 48.8206L65.9437 49.8137C65.9643 49.8497 65.9575 49.8451 65.9458 49.8079C65.9394 49.7875 65.9285 49.7477 65.9224 49.6922C65.9163 49.6368 65.9138 49.5537 65.9333 49.4534L67.8963 49.8365ZM67.6797 48.8206C67.5923 48.6678 67.4224 48.3876 67.1481 48.2049L66.0395 49.8695C65.9877 49.8351 65.9534 49.8032 65.9357 49.7855C65.9172 49.7671 65.9074 49.7546 65.9059 49.7526C65.904 49.7502 65.9169 49.7668 65.9437 49.8137L67.6797 48.8206ZM67.2904 48.3198C67.1492 48.1826 66.9838 48.0938 66.8975 48.0492C66.7866 47.9919 66.6587 47.9351 66.5229 47.8792L65.7622 49.729C65.8706 49.7735 65.94 49.8057 65.9795 49.8261C65.999 49.8362 66.002 49.8387 65.9941 49.8336C65.9897 49.8308 65.9791 49.8238 65.9643 49.8126C65.9501 49.8018 65.926 49.7826 65.8972 49.7547L67.2904 48.3198ZM66.5229 47.8792L63.2674 46.5406L62.5067 48.3903L65.7622 49.729L66.5229 47.8792ZM63.2674 46.5406C63.1315 46.4847 63.0007 46.4351 62.8815 46.3979C62.7888 46.3688 62.6088 46.3156 62.412 46.3137L62.3927 48.3136C62.3526 48.3132 62.322 48.31 62.3043 48.3076C62.2859 48.3052 62.2734 48.3026 62.2683 48.3016C62.2592 48.2996 62.2631 48.3 62.284 48.3065C62.3264 48.3198 62.3984 48.3457 62.5067 48.3903L63.2674 46.5406ZM62.5939 46.3322C62.2704 46.2691 61.9525 46.3487 61.7829 46.3958L62.3182 48.3228C62.3702 48.3084 62.3911 48.3056 62.388 48.306C62.3855 48.3064 62.3698 48.3083 62.3437 48.3085C62.3187 48.3086 62.2719 48.3071 62.2108 48.2952L62.5939 46.3322ZM61.7829 46.3958C61.6025 46.4459 61.2639 46.5522 61.0089 46.8149L62.4438 48.208C62.3967 48.2566 62.3542 48.2877 62.3274 48.3053C62.3002 48.3232 62.2806 48.3328 62.2734 48.3362C62.2612 48.3419 62.2719 48.3357 62.3182 48.3228L61.7829 46.3958ZM60.9213 46.9182C60.841 47.0272 60.7822 47.1483 60.751 47.2141C60.7106 47.2993 60.6673 47.3995 60.6222 47.5094L62.4719 48.27C62.5104 48.1764 62.5388 48.1118 62.5582 48.0709C62.5678 48.0505 62.5723 48.0422 62.5721 48.0426C62.5719 48.043 62.569 48.0484 62.5635 48.0573C62.5584 48.0655 62.5477 48.0826 62.5313 48.1047L60.9213 46.9182ZM60.6222 47.5094L59.6265 49.9306L61.4762 50.6913L62.4719 48.27L60.6222 47.5094ZM60.1711 51.2358L65.4206 53.3944L66.1812 51.5447L60.9317 49.3861L60.1711 51.2358ZM70.7871 58.8492L71.71 58.4642L71.6971 58.4335L71.6823 58.4036L70.7871 58.8492ZM69.4238 58.2887L69.737 59.2384L69.7734 59.2263L69.8089 59.2116L69.4238 58.2887ZM68.7258 59.9284L67.8029 60.3135L67.8157 60.3442L67.8305 60.374L68.7258 59.9284ZM70.089 60.489L69.7759 59.5393L69.7394 59.5513L69.704 59.5661L70.089 60.489ZM71.5794 56.7488L71.1991 57.6736L72.0857 58.0382L72.4874 57.1678L71.5794 56.7488ZM70.3179 56.23L69.3778 55.8891L69.0511 56.7903L69.9376 57.1549L70.3179 56.23ZM72.2695 50.8478L71.3446 50.4675L71.3366 50.487L71.3294 50.5069L72.2695 50.8478ZM74.3612 45.7611L74.7415 44.8362L73.8166 44.4559L73.4363 45.3807L74.3612 45.7611ZM76.0703 46.4639L76.9952 46.8442L77.3755 45.9193L76.4506 45.539L76.0703 46.4639ZM73.9786 51.5506L74.8866 51.9697L74.8954 51.9505L74.9035 51.9309L73.9786 51.5506ZM71.4396 60.3545L71.6321 59.8865L69.7823 59.1259L69.5899 59.5939L71.4396 60.3545ZM71.6321 59.8865C71.7723 59.5454 71.9342 59.0017 71.71 58.4642L69.8642 59.2343C69.8111 59.107 69.8214 59.0153 69.8223 59.0077C69.823 59.0019 69.8226 59.0089 69.8165 59.0306C69.8103 59.052 69.7998 59.0835 69.7823 59.1259L71.6321 59.8865ZM71.6823 58.4036C71.5424 58.1226 71.325 57.9368 71.156 57.8198C70.9778 57.6964 70.7764 57.5971 70.5748 57.5142L69.8142 59.3639C69.8737 59.3884 69.9201 59.41 69.9552 59.4282C69.9908 59.4466 70.0102 59.4591 70.0177 59.4642C70.0258 59.4699 70.0138 59.4627 69.9918 59.44C69.9699 59.4173 69.9292 59.3699 69.8918 59.2948L71.6823 58.4036ZM70.5748 57.5142L70.4935 57.4807L69.7328 59.3305L69.8142 59.3639L70.5748 57.5142ZM70.4935 57.4807C70.2931 57.3984 70.0788 57.3265 69.8639 57.2901C69.6651 57.2563 69.3562 57.2333 69.0388 57.3658L69.8089 59.2116C69.7114 59.2522 69.6313 59.2615 69.5888 59.2634C69.5461 59.2654 69.524 59.261 69.5294 59.2619C69.5337 59.2626 69.553 59.2664 69.5897 59.2778C69.6259 59.2891 69.6733 59.306 69.7328 59.3305L70.4935 57.4807ZM69.1107 57.339C69.0106 57.372 68.8951 57.4168 68.7813 57.4798C68.6769 57.5377 68.5097 57.6456 68.3724 57.8319L69.9824 59.0185C69.9285 59.0916 69.8742 59.141 69.8367 59.1709C69.7988 59.2012 69.7676 59.2198 69.7505 59.2293C69.7188 59.2468 69.7086 59.2477 69.737 59.2384L69.1107 57.339ZM68.3724 57.8319C68.292 57.9409 68.2332 58.0621 68.202 58.1279C68.1617 58.2131 68.1184 58.3132 68.0732 58.4231L69.9229 59.1837C69.9614 59.0901 69.9898 59.0256 70.0092 58.9847C70.0189 58.9643 70.0234 58.956 70.0232 58.9563C70.0229 58.9568 70.02 58.9622 70.0145 58.9711C70.0095 58.9793 69.9987 58.9963 69.9824 59.0185L68.3724 57.8319ZM68.0732 58.4231L67.8808 58.8911L69.7305 59.6517L69.9229 59.1837L68.0732 58.4231ZM67.8808 58.8911C67.7405 59.2322 67.5786 59.7759 67.8029 60.3135L69.6487 59.5433C69.7018 59.6706 69.6914 59.7624 69.6905 59.77C69.6898 59.7757 69.6902 59.7687 69.6964 59.7471C69.7025 59.7256 69.713 59.6942 69.7305 59.6517L67.8808 58.8911ZM67.8305 60.374C67.9704 60.655 68.1878 60.8408 68.3568 60.9578C68.535 61.0812 68.7364 61.1805 68.938 61.2634L69.6986 59.4137C69.6391 59.3892 69.5928 59.3676 69.5576 59.3494C69.5221 59.331 69.5026 59.3186 69.4952 59.3134C69.487 59.3078 69.499 59.3149 69.521 59.3377C69.5429 59.3603 69.5836 59.4077 69.621 59.4828L67.8305 60.374ZM68.938 61.2634L69.0397 61.3053L69.8003 59.4555L69.6986 59.4137L68.938 61.2634ZM69.0397 61.3053C69.2354 61.3857 69.4469 61.4561 69.6611 61.4908C69.8627 61.5236 70.1642 61.5412 70.4741 61.4119L69.704 59.5661C69.7964 59.5275 69.8731 59.5176 69.9167 59.5152C69.9392 59.5139 69.956 59.5145 69.9662 59.5152C69.9714 59.5155 69.9753 59.5159 69.9777 59.5162C69.979 59.5163 69.9799 59.5165 69.9805 59.5165C69.9812 59.5166 69.9815 59.5167 69.9815 59.5167C69.9815 59.5167 69.9812 59.5166 69.9806 59.5165C69.98 59.5164 69.9792 59.5163 69.9781 59.516C69.9758 59.5156 69.9725 59.5149 69.9682 59.5138C69.9594 59.5117 69.9472 59.5084 69.9312 59.5035C69.8988 59.4935 69.8555 59.4782 69.8003 59.4555L69.0397 61.3053ZM70.4021 61.4387C70.5022 61.4057 70.6177 61.3609 70.7316 61.2978C70.8359 61.24 71.0031 61.1321 71.1405 60.9457L69.5304 59.7592C69.5844 59.686 69.6386 59.6367 69.6761 59.6068C69.7141 59.5764 69.7452 59.5578 69.7623 59.5484C69.794 59.5308 69.8042 59.5299 69.7759 59.5393L70.4021 61.4387ZM71.1405 60.9457C71.2208 60.8367 71.2796 60.7155 71.3108 60.6498C71.3512 60.5646 71.3944 60.4644 71.4396 60.3545L69.5899 59.5939C69.5514 59.6875 69.523 59.7521 69.5036 59.793C69.4939 59.8133 69.4894 59.8216 69.4896 59.8213C69.4899 59.8208 69.4928 59.8155 69.4983 59.8066C69.5033 59.7984 69.5141 59.7813 69.5304 59.7592L71.1405 60.9457ZM71.9597 55.8239L70.6982 55.3052L69.9376 57.1549L71.1991 57.6736L71.9597 55.8239ZM71.258 56.5709L73.2096 51.1887L71.3294 50.5069L69.3778 55.8891L71.258 56.5709ZM73.1943 51.2281L75.286 46.1414L73.4363 45.3807L71.3446 50.4675L73.1943 51.2281ZM73.9809 46.6859L75.69 47.3887L76.4506 45.539L74.7415 44.8362L73.9809 46.6859ZM75.1455 46.0836L73.0538 51.1703L74.9035 51.9309L76.9952 46.8442L75.1455 46.0836ZM73.0707 51.1315L70.6715 56.3297L72.4874 57.1678L74.8866 51.9697L73.0707 51.1315Z" fill="white"/>
<circle cx="26.2963" cy="27.4942" r="2.5" fill="white"/>
<path d="M10.5 20.5L16.5 24.5L25.5 27.5L19.5 22L14 19L10 18" stroke="black" stroke-width="2"/>
<path d="M22 21.5L17.5 27" stroke="black" stroke-width="2"/>
</svg>
