<svg width="73" height="63" viewBox="0 0 73 63" fill="none" xmlns="http://www.w3.org/2000/svg">
<path d="M19.5 63H27.5L66.5 32.5L67.5 18L59.5 6L46.5 1L0 38L19.5 63Z" fill="#E84B38"/>
<circle cx="59.5" cy="14.5" r="2.5" fill="white"/>
<path d="M23.8726 46.5969L20.5039 50.634C20.2784 50.9043 19.9402 51.0806 19.4895 51.1629L18.7204 51.2948C18.3316 51.3716 18.0078 51.3019 17.7487 51.0857L14.2521 48.1681C13.9143 47.8862 13.7455 47.5162 13.7458 47.058L13.7463 46.3707C13.7466 45.9125 13.8595 45.5482 14.085 45.2779L17.8342 40.7847C18.0597 40.5145 18.3979 40.3381 18.8486 40.2558L19.5247 40.1323C19.9755 40.05 20.3698 40.1497 20.7076 40.4316L21.3833 40.9954L20.1993 42.4144L19.8784 42.1466C19.7094 42.0056 19.5931 41.9276 19.5292 41.9125C19.4635 41.8768 19.349 41.8767 19.1856 41.9123C19.0222 41.9479 18.9114 41.9891 18.8531 42.036C18.7836 42.0736 18.6643 42.1937 18.4951 42.3964L15.7889 45.6396C15.6198 45.8423 15.523 45.9812 15.4985 46.0563C15.4628 46.122 15.4421 46.2384 15.4363 46.4055C15.4306 46.5727 15.4465 46.691 15.484 46.7605C15.5196 46.8093 15.6219 46.9042 15.7908 47.0452L18.4597 49.2722C18.6287 49.4131 18.746 49.5015 18.8117 49.5372C18.8755 49.5522 18.9891 49.542 19.1525 49.5064C19.3159 49.4708 19.4324 49.4343 19.5019 49.3968C19.5601 49.3499 19.6738 49.2251 19.843 49.0224L23.2116 44.9852C23.4372 44.715 23.7753 44.5387 24.226 44.4563L24.9021 44.3328C25.3529 44.2505 25.7472 44.3503 26.085 44.6321L29.6323 47.5921C29.9701 47.874 30.1389 48.244 30.1386 48.7022L30.1382 49.3895C30.1379 49.8477 30.025 50.212 29.7995 50.4822L25.7683 55.3133C25.5428 55.5836 25.2047 55.7599 24.7539 55.8422L24.0778 55.9657C23.6271 56.048 23.2328 55.9483 22.8949 55.6664L22.2193 55.1026L23.4032 53.6837L23.7242 53.9515C23.8931 54.0924 24.0104 54.1807 24.0761 54.2165C24.1399 54.2315 24.2536 54.2213 24.417 54.1857C24.5804 54.1501 24.6968 54.1136 24.7663 54.0761C24.8246 54.0292 24.9383 53.9044 25.1074 53.7017L28.0955 50.1206C28.2647 49.9179 28.3671 49.7837 28.4028 49.718C28.4273 49.6429 28.4424 49.5218 28.4481 49.3546C28.4538 49.1875 28.4389 49.0795 28.4032 49.0307C28.3657 48.9612 28.2625 48.8559 28.0936 48.715L25.2558 46.3471C25.0869 46.2061 24.9705 46.1281 24.9066 46.113C24.8409 46.0773 24.7264 46.0772 24.563 46.1128C24.3996 46.1484 24.2888 46.1896 24.2305 46.2365C24.161 46.2741 24.0417 46.3942 23.8726 46.5969ZM37.3401 40.0717L37.2837 40.1393C37.4189 40.252 37.4563 40.4933 37.3959 40.8633C37.3507 41.1693 37.3064 41.3712 37.2632 41.4688C37.2293 41.5551 37.1278 41.6997 36.9587 41.9024L34.5484 44.7909C34.3229 45.0611 33.9848 45.2374 33.5341 45.3198L32.8579 45.4433C32.4072 45.5256 32.0129 45.4258 31.6751 45.144L29.648 43.4526C29.3102 43.1707 29.1414 42.8006 29.1417 42.3424L29.1422 41.6551C29.1425 41.1969 29.2554 40.8327 29.4809 40.5624L32.0039 37.5388C32.1824 37.3248 32.3064 37.1991 32.3759 37.1616C32.4342 37.1146 32.5403 37.079 32.6943 37.0547C32.9197 37.0136 33.0887 37.04 33.2013 37.1339L33.2577 37.0663L31.2475 35.3891C31.0786 35.2481 30.9622 35.1701 30.8984 35.155C30.8327 35.1193 30.7182 35.1192 30.5548 35.1548C30.3914 35.1904 30.2805 35.2316 30.2223 35.2785C30.1528 35.3161 30.0335 35.4362 29.8643 35.6389L27.5809 38.3753C27.4118 38.578 27.3112 38.7329 27.2793 38.8399C27.2454 38.9263 27.2284 39.1413 27.2281 39.4849L25.5379 39.7937L25.5383 39.1064C25.5385 38.7628 25.5556 38.5477 25.5894 38.4614C25.6214 38.3544 25.722 38.1995 25.8911 37.9968L29.2034 34.0272C29.4289 33.757 29.7671 33.5807 30.2178 33.4983L30.8939 33.3748C31.3447 33.2925 31.7389 33.3923 32.0768 33.6741L37.1274 37.8885C37.2964 38.0295 37.4137 38.1178 37.4794 38.1535C37.5432 38.1686 37.6568 38.1583 37.8202 38.1228C37.9836 38.0872 38.0982 38.0873 38.1639 38.123C38.2277 38.138 38.3441 38.2161 38.513 38.357L39.3407 39.0477L38.8474 39.6389C38.6782 39.8416 38.5495 39.9729 38.4612 40.033C38.3711 40.0724 38.2133 40.1126 37.9879 40.1538C37.6912 40.2118 37.4752 40.1845 37.3401 40.0717ZM31.1867 42.3296L32.5043 43.429C32.6732 43.57 32.7905 43.6583 32.8562 43.6941C32.9201 43.7091 33.0337 43.6989 33.1971 43.6633C33.3605 43.6277 33.4769 43.5912 33.5465 43.5537C33.6047 43.5067 33.7184 43.3819 33.8875 43.1792L35.6071 41.1184C35.7762 40.9157 35.8777 40.7712 35.9116 40.6848C35.9549 40.5872 35.9991 40.3854 36.0444 40.0793C36.0896 39.7732 36.0982 39.5798 36.0701 39.4991C36.042 39.4183 35.9435 39.3074 35.7745 39.1665L34.6259 38.208C34.457 38.0671 34.3406 37.9891 34.2768 37.974C34.2111 37.9383 34.0965 37.9382 33.9331 37.9738C33.7697 38.0094 33.6589 38.0506 33.6007 38.0975C33.5311 38.135 33.4118 38.2551 33.2427 38.4578L31.1848 40.9241C31.0157 41.1268 30.9189 41.2657 30.8944 41.3408C30.8587 41.4065 30.838 41.5229 30.8322 41.69C30.8265 41.8571 30.8424 41.9754 30.8799 42.0449C30.9155 42.0938 31.0178 42.1887 31.1867 42.3296ZM28.6083 26.4991L29.7923 25.0802L40.1808 33.7485C40.4398 33.9647 40.6125 34.0897 40.6988 34.1235C40.7739 34.148 40.9129 34.1302 41.1158 34.0703C41.3505 34.0178 41.5111 34.0085 41.5975 34.0424C41.682 34.0556 41.8537 34.1703 42.1127 34.3864L42.7715 34.9361L42.3486 35.4428C42.1701 35.6568 42.0414 35.7882 41.9625 35.8369C41.8836 35.8857 41.7174 35.9476 41.4638 36.0225L40.9003 36.1827C40.6468 36.2577 40.4721 36.2839 40.3764 36.2613C40.29 36.2274 40.1173 36.1024 39.8583 35.8863L28.6083 26.4991ZM48.3134 25.2039L50.0037 24.8952L50.0033 25.5825C50.0031 25.9261 49.987 26.1515 49.955 26.2585C49.9211 26.3448 49.8196 26.4894 49.6505 26.6921L45.8871 31.2022C45.6616 31.4725 45.3235 31.6488 44.8727 31.7311L44.1966 31.8546C43.7459 31.9369 43.3516 31.8372 43.0138 31.5553L37.6084 27.0449C37.2705 26.763 37.1018 26.393 37.1021 25.9348L37.1025 25.2474C37.1028 24.7892 37.2157 24.425 37.4412 24.1547L40.7253 20.2189C40.9133 19.9937 41.2514 19.8174 41.7397 19.69L42.4299 19.5496C42.8581 19.4485 43.2524 19.5483 43.6128 19.849L47.0756 22.7384L42.2552 28.5154L43.843 29.8404C44.0119 29.9813 44.1292 30.0696 44.1949 30.1054C44.2588 30.1204 44.3724 30.1102 44.5358 30.0746C44.6992 30.039 44.8156 30.0025 44.8851 29.965C44.9434 29.9181 45.0571 29.7933 45.2262 29.5906L47.9606 26.3135C48.1298 26.1108 48.2313 25.9663 48.2651 25.8799C48.2971 25.7729 48.3132 25.5476 48.3134 25.2039ZM44.7937 23.2412L42.7836 21.5639C42.6146 21.4229 42.4983 21.3449 42.4344 21.3299C42.3687 21.2941 42.2542 21.2941 42.0908 21.3296C41.9274 21.3652 41.8165 21.4065 41.7583 21.4534C41.6888 21.4909 41.5695 21.611 41.4003 21.8137L39.1452 24.5164C38.976 24.7191 38.8792 24.858 38.8548 24.9331C38.819 24.9988 38.7983 25.1152 38.7926 25.2823C38.7868 25.4495 38.8027 25.5678 38.8402 25.6373C38.8759 25.6861 38.9782 25.781 39.1471 25.922L41.1572 27.5993L44.7937 23.2412ZM53.3681 21.0006L52.9796 20.6764C52.7431 20.4791 52.5422 20.3879 52.3769 20.4028C52.2229 20.4271 52.0332 20.5744 51.8077 20.8447L51.7513 20.9122C51.5258 21.1825 51.4195 21.3899 51.4326 21.5345C51.4344 21.6697 51.4531 21.7618 51.4887 21.8106C51.5244 21.8595 51.6267 21.9544 51.7956 22.0953L52.1841 22.4195C52.4206 22.6168 52.6215 22.708 52.7867 22.6931C52.9407 22.6688 53.1305 22.5215 53.356 22.2512L53.4265 22.1668C53.6426 21.9078 53.7441 21.706 53.7311 21.5614C53.7293 21.4262 53.7106 21.3341 53.6749 21.2853C53.6393 21.2364 53.537 21.1415 53.3681 21.0006ZM50.6117 19.0158L49.7378 20.0631L45.1909 16.5842L40.9679 13.0605L42.1519 11.6416L46.3748 15.1653L50.6117 19.0158Z" fill="white"/>
<path d="M19.4895 51.1629L19.6585 52.1486L19.6692 52.1466L19.4895 51.1629ZM18.7204 51.2948L18.5514 50.3092L18.539 50.3113L18.5267 50.3137L18.7204 51.2948ZM13.7458 47.058L14.7458 47.0586L13.7458 47.058ZM13.7463 46.3707L14.7463 46.3713L14.7463 46.3713L13.7463 46.3707ZM18.8486 40.2558L19.0283 41.2395L19.0283 41.2395L18.8486 40.2558ZM19.5247 40.1323L19.345 39.1486L19.345 39.1486L19.5247 40.1323ZM21.3833 40.9954L22.1511 41.6361L22.7918 40.8683L22.0239 40.2276L21.3833 40.9954ZM20.1993 42.4144L19.5586 43.1822L20.3264 43.8228L20.9671 43.055L20.1993 42.4144ZM19.5292 41.9125L19.0516 42.7911L19.1692 42.855L19.2996 42.8858L19.5292 41.9125ZM19.1856 41.9123L19.3983 42.8894L19.3983 42.8894L19.1856 41.9123ZM18.8531 42.036L19.3281 42.9161L19.4089 42.8724L19.4804 42.8149L18.8531 42.036ZM15.4985 46.0563L16.3771 46.534L16.4209 46.4533L16.4494 46.366L15.4985 46.0563ZM15.4363 46.4055L16.4357 46.4399L16.4357 46.4399L15.4363 46.4055ZM15.484 46.7605L14.604 47.2354L14.6362 47.2952L14.6762 47.35L15.484 46.7605ZM18.8117 49.5372L18.334 50.4157L18.4517 50.4797L18.582 50.5105L18.8117 49.5372ZM19.1525 49.5064L19.3653 50.4835L19.1525 49.5064ZM19.5019 49.3968L19.9768 50.2768L20.0576 50.2332L20.1291 50.1756L19.5019 49.3968ZM24.226 44.4563L24.4057 45.44L24.4057 45.44L24.226 44.4563ZM24.9021 44.3328L24.7224 43.3491L24.7224 43.3491L24.9021 44.3328ZM30.1386 48.7022L31.1386 48.7029L31.1386 48.7029L30.1386 48.7022ZM30.1382 49.3895L29.1382 49.3889L29.1382 49.3889L30.1382 49.3895ZM24.0778 55.9657L23.8981 54.982L23.8981 54.982L24.0778 55.9657ZM22.2193 55.1026L21.4515 54.4619L20.8108 55.2297L21.5786 55.8704L22.2193 55.1026ZM23.4032 53.6837L24.0439 52.9159L23.2761 52.2752L22.6354 53.043L23.4032 53.6837ZM24.0761 54.2165L23.5985 55.095L23.7161 55.159L23.8464 55.1897L24.0761 54.2165ZM24.7663 54.0761L25.2413 54.9561L25.3221 54.9125L25.3936 54.8549L24.7663 54.0761ZM28.4028 49.718L29.2814 50.1956L29.3252 50.115L29.3536 50.0277L28.4028 49.718ZM28.4032 49.0307L27.5232 49.5056L27.5555 49.5654L27.5955 49.6202L28.4032 49.0307ZM24.9066 46.113L24.429 46.9916L24.5466 47.0555L24.677 47.0863L24.9066 46.113ZM24.2305 46.2365L24.7055 47.1166L24.7863 47.0729L24.8578 47.0154L24.2305 46.2365ZM23.1047 45.9562L19.7361 49.9933L21.2717 51.2747L24.6404 47.2375L23.1047 45.9562ZM19.7361 49.9933C19.7007 50.0358 19.6009 50.126 19.3098 50.1792L19.6692 52.1466C20.2796 52.0351 20.856 51.7728 21.2717 51.2747L19.7361 49.9933ZM19.3205 50.1773L18.5514 50.3092L18.8894 52.2804L19.6585 52.1485L19.3205 50.1773ZM18.5267 50.3137C18.4402 50.3308 18.4018 50.3237 18.3963 50.3225C18.3932 50.3218 18.3937 50.3217 18.3954 50.3225C18.3971 50.3233 18.3952 50.3228 18.3894 50.3179L17.1081 51.8536C17.6405 52.2978 18.287 52.3997 18.9141 52.2759L18.5267 50.3137ZM18.3894 50.3179L14.8928 47.4003L13.6115 48.9359L17.1081 51.8536L18.3894 50.3179ZM14.8928 47.4003C14.7935 47.3174 14.7457 47.2341 14.7458 47.0586L12.7458 47.0573C12.7453 47.7982 13.0351 48.455 13.6115 48.9359L14.8928 47.4003ZM14.7458 47.0586L14.7463 46.3713L12.7463 46.37L12.7458 47.0573L14.7458 47.0586ZM14.7463 46.3713C14.7465 46.0754 14.8174 45.961 14.8528 45.9186L13.3172 44.6373C12.9015 45.1354 12.7467 45.7495 12.7463 46.37L14.7463 46.3713ZM14.8528 45.9186L18.602 41.4254L17.0664 40.144L13.3172 44.6373L14.8528 45.9186ZM18.602 41.4254C18.6374 41.383 18.7372 41.2927 19.0283 41.2395L18.6689 39.2721C18.0585 39.3836 17.4821 39.6459 17.0664 40.144L18.602 41.4254ZM19.0283 41.2395L19.7044 41.116L19.345 39.1486L18.6689 39.2721L19.0283 41.2395ZM19.7044 41.116C19.8771 41.0845 19.9676 41.1166 20.0669 41.1995L21.3483 39.6638C20.7719 39.1829 20.0738 39.0155 19.345 39.1486L19.7044 41.116ZM20.0669 41.1995L20.7426 41.7633L22.0239 40.2276L21.3483 39.6638L20.0669 41.1995ZM20.6155 40.3548L19.4315 41.7737L20.9671 43.055L22.1511 41.6361L20.6155 40.3548ZM20.84 41.6465L20.519 41.3787L19.2377 42.9144L19.5586 43.1822L20.84 41.6465ZM20.519 41.3787C20.421 41.2969 20.3199 41.2178 20.2212 41.1517C20.1505 41.1043 19.9783 40.991 19.7589 40.9393L19.2996 42.8858C19.2486 42.8738 19.2092 42.8596 19.1841 42.8496C19.1583 42.8392 19.1393 42.8299 19.1281 42.8241C19.1166 42.8182 19.1093 42.8139 19.1067 42.8123C19.104 42.8107 19.1042 42.8107 19.1076 42.813C19.1148 42.8178 19.1295 42.8281 19.1527 42.8459C19.1755 42.8635 19.2037 42.886 19.2377 42.9144L20.519 41.3787ZM20.0069 41.034C19.77 40.9052 19.5376 40.8858 19.3947 40.8857C19.2411 40.8856 19.0957 40.9084 18.9728 40.9352L19.3983 42.8894C19.4388 42.8806 19.4324 42.8857 19.3934 42.8857C19.3721 42.8857 19.3308 42.8841 19.276 42.8733C19.2213 42.8624 19.1413 42.8399 19.0516 42.7911L20.0069 41.034ZM18.9728 40.9352C18.8009 40.9726 18.4826 41.0505 18.2259 41.2572L19.4804 42.8149C19.4319 42.8539 19.3912 42.8771 19.369 42.8886C19.3459 42.9007 19.331 42.9063 19.3287 42.9071C19.3258 42.9082 19.3456 42.9009 19.3983 42.8894L18.9728 40.9352ZM18.3782 41.156C18.2049 41.2495 18.0705 41.3806 18.0021 41.4495C17.9141 41.538 17.8214 41.6429 17.7273 41.7557L19.263 43.037C19.338 42.9471 19.3896 42.8906 19.4209 42.859C19.4364 42.8435 19.4396 42.8414 19.4325 42.8474C19.4284 42.8507 19.4186 42.8588 19.4034 42.8695C19.3889 42.8798 19.3633 42.897 19.3281 42.9161L18.3782 41.156ZM17.7273 41.7557L15.0211 44.9989L16.5567 46.2803L19.263 43.037L17.7273 41.7557ZM15.0211 44.9989C14.927 45.1117 14.8404 45.2216 14.769 45.324C14.7135 45.4037 14.6087 45.5594 14.5477 45.7466L16.4494 46.366C16.4369 46.4041 16.4246 46.4323 16.4171 46.4485C16.4092 46.4653 16.403 46.4764 16.4005 46.481C16.3958 46.4892 16.3974 46.4855 16.4099 46.4675C16.4353 46.4311 16.4817 46.3702 16.5567 46.2803L15.0211 44.9989ZM14.62 45.5786C14.4625 45.8682 14.443 46.1953 14.4369 46.3712L16.4357 46.4399C16.4376 46.3859 16.4412 46.3652 16.4407 46.3682C16.4403 46.3707 16.4374 46.3863 16.4297 46.4112C16.4223 46.4351 16.4068 46.4793 16.3771 46.534L14.62 45.5786ZM14.4369 46.3712C14.4305 46.5584 14.4301 46.9133 14.604 47.2354L16.364 46.2855C16.3961 46.3451 16.413 46.395 16.4218 46.4257C16.4307 46.4571 16.434 46.4787 16.435 46.4866C16.4368 46.4999 16.4341 46.4878 16.4357 46.4399L14.4369 46.3712ZM14.6762 47.35C14.756 47.4593 14.8539 47.5519 14.9073 47.6014C14.9764 47.6655 15.0589 47.7369 15.1502 47.813L16.4315 46.2774C16.3538 46.2125 16.3008 46.166 16.2676 46.1352C16.2511 46.1199 16.2445 46.1131 16.2448 46.1134C16.2451 46.1138 16.2494 46.1182 16.2562 46.1261C16.2625 46.1334 16.2755 46.1488 16.2918 46.171L14.6762 47.35ZM15.1502 47.813L17.8191 50.04L19.1004 48.5044L16.4315 46.2774L15.1502 47.813ZM17.8191 50.04C17.9761 50.171 18.1672 50.325 18.334 50.4157L19.2893 48.6586C19.3115 48.6707 19.3212 48.6778 19.3138 48.6728C19.3083 48.669 19.296 48.6604 19.276 48.6453C19.2354 48.6147 19.1777 48.5689 19.1004 48.5044L17.8191 50.04ZM18.582 50.5105C18.7683 50.5544 18.9376 50.5455 19.0347 50.5367C19.1469 50.5266 19.2599 50.5065 19.3653 50.4835L18.9398 48.5293C18.9124 48.5353 18.8914 48.5392 18.8761 48.5418C18.8605 48.5443 18.8539 48.5449 18.8549 48.5448C18.855 48.5448 18.87 48.5434 18.896 48.5441C18.9198 48.5447 18.9723 48.5476 19.0413 48.5639L18.582 50.5105ZM19.3653 50.4835C19.5418 50.4451 19.7757 50.3853 19.9768 50.2768L19.0269 48.5168C19.0511 48.5037 19.0673 48.4972 19.071 48.4957C19.0753 48.494 19.0732 48.495 19.063 48.4982C19.0415 48.5049 19.0021 48.5157 18.9398 48.5293L19.3653 50.4835ZM20.1291 50.1756C20.2802 50.0539 20.4601 49.8437 20.6108 49.663L19.0751 48.3817C18.9953 48.4774 18.9349 48.5471 18.8916 48.5946C18.87 48.6182 18.8563 48.6324 18.8493 48.6394C18.8396 48.6492 18.8498 48.6379 18.8746 48.618L20.1291 50.1756ZM20.6108 49.663L23.9795 45.6259L22.4438 44.3445L19.0751 48.3817L20.6108 49.663ZM23.9795 45.6259C24.0148 45.5835 24.1147 45.4932 24.4057 45.44L24.0463 43.4726C23.4359 43.5841 22.8595 43.8464 22.4438 44.3445L23.9795 45.6259ZM24.4057 45.44L25.0818 45.3165L24.7224 43.3491L24.0463 43.4726L24.4057 45.44ZM25.0818 45.3165C25.2545 45.285 25.345 45.3171 25.4443 45.4L26.7257 43.8643C26.1494 43.3834 25.4513 43.216 24.7224 43.3491L25.0818 45.3165ZM25.4443 45.4L28.9916 48.3599L30.273 46.8243L26.7257 43.8643L25.4443 45.4ZM28.9916 48.3599C29.091 48.4428 29.1387 48.526 29.1386 48.7016L31.1386 48.7029C31.1391 47.962 30.8493 47.3052 30.273 46.8243L28.9916 48.3599ZM29.1386 48.7016L29.1382 49.3889L31.1382 49.3902L31.1386 48.7029L29.1386 48.7016ZM29.1382 49.3889C29.138 49.6848 29.067 49.7991 29.0316 49.8416L30.5673 51.1229C30.9829 50.6248 31.1378 50.0107 31.1382 49.3902L29.1382 49.3889ZM29.0316 49.8416L25.0005 54.6726L26.5361 55.954L30.5673 51.1229L29.0316 49.8416ZM25.0005 54.6726C24.9651 54.715 24.8653 54.8053 24.5742 54.8585L24.9336 56.8259C25.544 56.7144 26.1205 56.4521 26.5361 55.954L25.0005 54.6726ZM24.5742 54.8585L23.8981 54.982L24.2575 56.9494L24.9336 56.8259L24.5742 54.8585ZM23.8981 54.982C23.7254 55.0135 23.635 54.9815 23.5356 54.8986L22.2543 56.4342C22.8306 56.9151 23.5287 57.0826 24.2575 56.9494L23.8981 54.982ZM23.5356 54.8986L22.8599 54.3348L21.5786 55.8704L22.2543 56.4342L23.5356 54.8986ZM22.9871 55.7433L24.171 54.3243L22.6354 53.043L21.4515 54.4619L22.9871 55.7433ZM22.7626 54.4515L23.0835 54.7193L24.3649 53.1837L24.0439 52.9159L22.7626 54.4515ZM23.0835 54.7193C23.2405 54.8503 23.4317 55.0043 23.5985 55.095L24.5538 53.3379C24.576 53.35 24.5856 53.357 24.5783 53.3521C24.5727 53.3483 24.5605 53.3397 24.5404 53.3246C24.4998 53.294 24.4421 53.2481 24.3649 53.1837L23.0835 54.7193ZM23.8464 55.1897C24.0327 55.2337 24.202 55.2248 24.2991 55.216C24.4114 55.2059 24.5243 55.1858 24.6297 55.1628L24.2042 53.2086C24.1768 53.2146 24.1558 53.2185 24.1405 53.221C24.1249 53.2236 24.1183 53.2242 24.1193 53.2241C24.1195 53.2241 24.1344 53.2227 24.1604 53.2234C24.1843 53.224 24.2367 53.2269 24.3058 53.2432L23.8464 55.1897ZM24.6297 55.1628C24.8062 55.1244 25.0402 55.0646 25.2413 54.9561L24.2914 53.1961C24.3156 53.183 24.3317 53.1765 24.3354 53.175C24.3397 53.1733 24.3377 53.1743 24.3274 53.1775C24.306 53.1842 24.2666 53.195 24.2042 53.2086L24.6297 55.1628ZM25.3936 54.8549C25.5446 54.7332 25.7245 54.5229 25.8752 54.3423L24.3396 53.061C24.2598 53.1566 24.1993 53.2264 24.156 53.2739C24.1345 53.2975 24.1208 53.3117 24.1137 53.3187C24.104 53.3285 24.1143 53.3172 24.1391 53.2973L25.3936 54.8549ZM25.8752 54.3423L28.8633 50.7613L27.3277 49.4799L24.3396 53.061L25.8752 54.3423ZM28.8633 50.7613C29.014 50.5807 29.1887 50.3661 29.2814 50.1956L27.5243 49.2403C27.5395 49.2123 27.5487 49.2002 27.5408 49.2116C27.5352 49.2197 27.5237 49.2357 27.5043 49.2612C27.4653 49.3123 27.4075 49.3843 27.3277 49.4799L28.8633 50.7613ZM29.3536 50.0277C29.4244 49.8104 29.4413 49.5695 29.4475 49.389L27.4487 49.3203C27.4465 49.3841 27.4429 49.4248 27.4402 49.4471C27.4388 49.4577 27.4382 49.4599 27.4391 49.4554C27.4399 49.4515 27.4435 49.4344 27.452 49.4083L29.3536 50.0277ZM29.4475 49.389C29.4514 49.2749 29.4501 49.1435 29.4317 49.0111C29.4171 48.9054 29.3761 48.6674 29.211 48.4412L27.5955 49.6202C27.5236 49.5217 27.4897 49.433 27.4744 49.3855C27.4582 49.3353 27.4525 49.2989 27.4506 49.2855C27.4473 49.2611 27.4505 49.2672 27.4487 49.3203L29.4475 49.389ZM29.2833 48.5557C29.1968 48.3955 29.0825 48.2717 29.0116 48.1994C28.9284 48.1146 28.8331 48.0297 28.7343 47.9472L27.4529 49.4828C27.4869 49.5111 27.5147 49.5353 27.5371 49.5556C27.5598 49.5761 27.5748 49.5907 27.5838 49.5999C27.5934 49.6097 27.592 49.6091 27.584 49.5991C27.5797 49.5937 27.5719 49.5838 27.5621 49.5696C27.5525 49.5556 27.5386 49.5341 27.5232 49.5056L29.2833 48.5557ZM28.7343 47.9472L25.8964 45.5792L24.6151 47.1149L27.4529 49.4828L28.7343 47.9472ZM25.8964 45.5792C25.7984 45.4974 25.6973 45.4183 25.5986 45.3522C25.5279 45.3048 25.3557 45.1915 25.1363 45.1398L24.677 47.0863C24.626 47.0743 24.5866 47.0601 24.5615 47.0501C24.5357 47.0397 24.5167 47.0304 24.5055 47.0246C24.494 47.0187 24.4867 47.0144 24.4841 47.0128C24.4814 47.0112 24.4816 47.0112 24.485 47.0135C24.4922 47.0183 24.5069 47.0287 24.5301 47.0464C24.5529 47.064 24.5811 47.0865 24.6151 47.1149L25.8964 45.5792ZM25.3843 45.2345C25.1474 45.1057 24.9151 45.0863 24.7721 45.0862C24.6186 45.0861 24.4731 45.1089 24.3503 45.1357L24.7757 47.0899C24.8162 47.0811 24.8098 47.0862 24.7708 47.0862C24.7495 47.0862 24.7082 47.0847 24.6534 47.0738C24.5987 47.0629 24.5187 47.0404 24.429 46.9916L25.3843 45.2345ZM24.3503 45.1357C24.1783 45.1731 23.86 45.251 23.6033 45.4577L24.8578 47.0154C24.8093 47.0544 24.7686 47.0776 24.7464 47.0891C24.7233 47.1012 24.7084 47.1068 24.7061 47.1076C24.7032 47.1087 24.723 47.1014 24.7757 47.0899L24.3503 45.1357ZM23.7556 45.3565C23.5823 45.45 23.4479 45.5811 23.3795 45.65C23.2915 45.7385 23.1988 45.8434 23.1047 45.9562L24.6404 47.2375C24.7154 47.1476 24.767 47.0911 24.7983 47.0595C24.8138 47.044 24.8171 47.0418 24.8099 47.0479C24.8059 47.0512 24.796 47.0593 24.7808 47.07C24.7663 47.0803 24.7408 47.0975 24.7055 47.1166L23.7556 45.3565ZM37.3401 40.0717L37.9808 39.3039L37.213 38.6632L36.5723 39.431L37.3401 40.0717ZM37.2837 40.1393L36.5159 39.4986L35.8752 40.2664L36.6431 40.9071L37.2837 40.1393ZM37.3959 40.8633L36.409 40.7023L36.4078 40.7096L36.4067 40.7169L37.3959 40.8633ZM37.2632 41.4688L36.3489 41.0637L36.3401 41.0836L36.3322 41.1038L37.2632 41.4688ZM33.5341 45.3198L33.3544 44.3361L33.5341 45.3198ZM32.8579 45.4433L32.6782 44.4596L32.8579 45.4433ZM29.1417 42.3424L28.1417 42.3418L28.1417 42.3418L29.1417 42.3424ZM29.1422 41.6551L30.1422 41.6558L30.1422 41.6558L29.1422 41.6551ZM32.3759 37.1616L32.8509 38.0416L32.9317 37.998L33.0032 37.9404L32.3759 37.1616ZM32.6943 37.0547L32.8503 38.0425L32.8622 38.0406L32.874 38.0384L32.6943 37.0547ZM33.2013 37.1339L32.5606 37.9017L33.3284 38.5424L33.9691 37.7746L33.2013 37.1339ZM33.2577 37.0663L34.0255 37.707L34.6662 36.9392L33.8983 36.2985L33.2577 37.0663ZM30.8984 35.155L30.4208 36.0336L30.5384 36.0976L30.6687 36.1283L30.8984 35.155ZM30.2223 35.2785L30.6972 36.1586L30.778 36.1149L30.8495 36.0574L30.2223 35.2785ZM27.2793 38.8399L28.2103 39.2049L28.2254 39.1662L28.2374 39.1263L27.2793 38.8399ZM27.2281 39.4849L27.4078 40.4687L28.2276 40.3189L28.2281 39.4856L27.2281 39.4849ZM25.5379 39.7937L24.5379 39.7931L24.5371 40.9931L25.7175 40.7774L25.5379 39.7937ZM25.5383 39.1064L26.5383 39.107L26.5383 39.107L25.5383 39.1064ZM25.5894 38.4614L26.5204 38.8264L26.5356 38.7877L26.5475 38.7478L25.5894 38.4614ZM30.2178 33.4983L30.0381 32.5146L30.0381 32.5146L30.2178 33.4983ZM30.8939 33.3748L31.0736 34.3585L30.8939 33.3748ZM37.4794 38.1535L37.0017 39.0321L37.1194 39.096L37.2497 39.1268L37.4794 38.1535ZM37.8202 38.1228L38.033 39.0999L37.8202 38.1228ZM38.1639 38.123L37.6862 39.0015L37.8039 39.0655L37.9342 39.0963L38.1639 38.123ZM39.3407 39.0477L40.1085 39.6883L40.7492 38.9205L39.9814 38.2798L39.3407 39.0477ZM38.4612 40.033L38.8615 40.9494L38.9466 40.9122L39.0235 40.8599L38.4612 40.033ZM37.9879 40.1538L37.8082 39.17L37.796 39.1724L37.9879 40.1538ZM32.8562 43.6941L32.3786 44.5726L32.4962 44.6366L32.6266 44.6673L32.8562 43.6941ZM33.5465 43.5537L34.0214 44.4337L34.1022 44.3901L34.1737 44.3325L33.5465 43.5537ZM35.9116 40.6848L34.9973 40.2797L34.9885 40.2996L34.9806 40.3198L35.9116 40.6848ZM36.0444 40.0793L35.0551 39.933L36.0444 40.0793ZM36.0701 39.4991L35.1257 39.8278L35.1257 39.8278L36.0701 39.4991ZM34.2768 37.974L33.7991 38.8526L33.9168 38.9165L34.0471 38.9473L34.2768 37.974ZM33.6007 38.0975L34.0756 38.9775L34.1564 38.9339L34.2279 38.8763L33.6007 38.0975ZM30.8944 41.3408L31.773 41.8184L31.8168 41.7377L31.8453 41.6505L30.8944 41.3408ZM30.8799 42.0449L29.9999 42.5199L30.0321 42.5796L30.0721 42.6344L30.8799 42.0449ZM36.5723 39.431L36.5159 39.4986L38.0515 40.7799L38.1079 40.7124L36.5723 39.431ZM36.6431 40.9071C36.4624 40.7563 36.4291 40.5846 36.4249 40.558C36.4224 40.5418 36.4246 40.5446 36.4236 40.5724C36.4226 40.5995 36.4188 40.6419 36.409 40.7023L38.3829 41.0242C38.422 40.7847 38.4424 40.5165 38.4013 40.2517C38.3598 39.9838 38.2402 39.6349 37.9244 39.3714L36.6431 40.9071ZM36.4067 40.7169C36.386 40.8572 36.3674 40.9596 36.352 41.03C36.3444 41.0648 36.3388 41.0857 36.3359 41.0955C36.3323 41.1079 36.3357 41.0935 36.3489 41.0637L38.1774 41.8739C38.2845 41.6323 38.3429 41.2956 38.3852 41.0096L36.4067 40.7169ZM36.3322 41.1038C36.3413 41.0805 36.3493 41.0637 36.354 41.0544C36.3588 41.0449 36.362 41.0395 36.3624 41.0387C36.3629 41.0379 36.3576 41.0469 36.3433 41.0672C36.3142 41.1087 36.2654 41.1723 36.1909 41.2617L37.7265 42.5431C37.8812 42.3577 38.092 42.0945 38.1942 41.8338L36.3322 41.1038ZM36.1909 41.2617L33.7806 44.1502L35.3163 45.4316L37.7265 42.5431L36.1909 41.2617ZM33.7806 44.1502C33.7452 44.1926 33.6454 44.2829 33.3544 44.3361L33.7137 46.3035C34.3242 46.192 34.9006 45.9297 35.3163 45.4316L33.7806 44.1502ZM33.3544 44.3361L32.6782 44.4596L33.0376 46.427L33.7137 46.3035L33.3544 44.3361ZM32.6782 44.4596C32.5056 44.4911 32.4151 44.459 32.3157 44.3761L31.0344 45.9118C31.6107 46.3927 32.3088 46.5601 33.0376 46.427L32.6782 44.4596ZM32.3157 44.3761L30.2887 42.6848L29.0074 44.2204L31.0344 45.9118L32.3157 44.3761ZM30.2887 42.6848C30.1894 42.6019 30.1416 42.5186 30.1417 42.3431L28.1417 42.3418C28.1413 43.0826 28.431 43.7395 29.0074 44.2204L30.2887 42.6848ZM30.1417 42.3431L30.1422 41.6558L28.1422 41.6545L28.1417 42.3418L30.1417 42.3431ZM30.1422 41.6558C30.1424 41.3599 30.2133 41.2455 30.2487 41.2031L28.7131 39.9217C28.2974 40.4198 28.1426 41.034 28.1422 41.6545L30.1422 41.6558ZM30.2487 41.2031L32.7717 38.1794L31.2361 36.8981L28.7131 39.9217L30.2487 41.2031ZM32.7717 38.1794C32.8521 38.0831 32.908 38.0215 32.9428 37.9862C32.96 37.9687 32.9646 37.9654 32.9584 37.9706C32.9549 37.9736 32.9451 37.9816 32.9298 37.9926C32.9152 38.0031 32.8884 38.0213 32.8509 38.0416L31.901 36.2815C31.724 36.3771 31.5862 36.5135 31.5188 36.5818C31.4296 36.6722 31.3342 36.7805 31.2361 36.8981L32.7717 38.1794ZM33.0032 37.9404C32.9516 37.9819 32.9063 38.0076 32.8773 38.0222C32.8478 38.037 32.8263 38.0447 32.8174 38.0477C32.8015 38.053 32.8087 38.0491 32.8503 38.0425L32.5384 36.067C32.3614 36.0949 32.0258 36.1595 31.7487 36.3827L33.0032 37.9404ZM32.874 38.0384C32.9114 38.0316 32.8925 38.0405 32.8357 38.0317C32.7713 38.0216 32.6652 37.989 32.5606 37.9017L33.842 36.3661C33.3986 35.9961 32.8677 36.0065 32.5146 36.071L32.874 38.0384ZM33.9691 37.7746L34.0255 37.707L32.4899 36.4257L32.4335 36.4932L33.9691 37.7746ZM33.8983 36.2985L31.8882 34.6212L30.6069 36.1569L32.617 37.8342L33.8983 36.2985ZM31.8882 34.6212C31.7902 34.5394 31.6891 34.4603 31.5903 34.3942C31.5197 34.3468 31.3475 34.2335 31.1281 34.1818L30.6687 36.1283C30.6177 36.1163 30.5784 36.1021 30.5533 36.0921C30.5275 36.0817 30.5085 36.0724 30.4973 36.0666C30.4858 36.0607 30.4785 36.0564 30.4759 36.0548C30.4732 36.0532 30.4734 36.0532 30.4768 36.0555C30.484 36.0603 30.4987 36.0707 30.5219 36.0884C30.5447 36.106 30.5729 36.1285 30.6069 36.1569L31.8882 34.6212ZM31.3761 34.2765C31.1392 34.1477 30.9068 34.1283 30.7639 34.1282C30.6103 34.1281 30.4649 34.1509 30.342 34.1777L30.7675 36.1319C30.808 36.1231 30.8016 36.1282 30.7626 36.1282C30.7412 36.1282 30.7 36.1267 30.6452 36.1158C30.5905 36.1049 30.5105 36.0824 30.4208 36.0336L31.3761 34.2765ZM30.342 34.1777C30.1701 34.2151 29.8517 34.293 29.595 34.4997L30.8495 36.0574C30.8011 36.0964 30.7604 36.1196 30.7382 36.1311C30.715 36.1432 30.7002 36.1488 30.6979 36.1496C30.695 36.1507 30.7147 36.1434 30.7675 36.1319L30.342 34.1777ZM29.7473 34.3985C29.5741 34.492 29.4397 34.6231 29.3712 34.692C29.2833 34.7805 29.1906 34.8854 29.0965 34.9982L30.6321 36.2795C30.7072 36.1896 30.7588 36.1331 30.7901 36.1015C30.8055 36.086 30.8088 36.0838 30.8016 36.0899C30.7976 36.0932 30.7878 36.1013 30.7726 36.112C30.7581 36.1223 30.7325 36.1395 30.6972 36.1586L29.7473 34.3985ZM29.0965 34.9982L26.8131 37.7347L28.3488 39.016L30.6321 36.2795L29.0965 34.9982ZM26.8131 37.7347C26.6442 37.9372 26.4177 38.2305 26.3211 38.5535L28.2374 39.1263C28.224 39.171 28.2108 39.1975 28.2083 39.2023C28.2052 39.2084 28.207 39.2041 28.2173 39.1881C28.2389 39.1549 28.2799 39.0986 28.3488 39.016L26.8131 37.7347ZM26.3482 38.4749C26.2722 38.669 26.253 38.8765 26.2442 38.9869C26.2328 39.1311 26.2283 39.2997 26.2281 39.4843L28.2281 39.4856C28.2282 39.3266 28.2323 39.2158 28.238 39.1449C28.2408 39.1096 28.2431 39.0949 28.243 39.0953C28.2429 39.0961 28.2414 39.1054 28.2374 39.121C28.2338 39.1356 28.2257 39.1656 28.2103 39.2049L26.3482 38.4749ZM27.0484 38.5012L25.3582 38.81L25.7175 40.7774L27.4078 40.4687L27.0484 38.5012ZM26.5379 39.7943L26.5383 39.107L24.5383 39.1058L24.5379 39.7931L26.5379 39.7943ZM26.5383 39.107C26.5384 38.948 26.5425 38.8373 26.5481 38.7664C26.5509 38.7311 26.5533 38.7164 26.5532 38.7168C26.5531 38.7175 26.5515 38.7268 26.5476 38.7425C26.544 38.7571 26.5358 38.7871 26.5204 38.8264L24.6584 38.0964C24.5823 38.2905 24.5631 38.4979 24.5544 38.6084C24.5429 38.7526 24.5384 38.9211 24.5383 39.1058L26.5383 39.107ZM26.5475 38.7478C26.5342 38.7924 26.5209 38.819 26.5185 38.8238C26.5154 38.8299 26.5171 38.8256 26.5275 38.8096C26.5491 38.7764 26.59 38.7201 26.6589 38.6375L25.1233 37.3561C24.9543 37.5586 24.7279 37.8519 24.6313 38.175L26.5475 38.7478ZM26.6589 38.6375L29.9712 34.6679L28.4356 33.3865L25.1233 37.3561L26.6589 38.6375ZM29.9712 34.6679C30.0066 34.6255 30.1064 34.5352 30.3975 34.482L30.0381 32.5146C29.4277 32.6261 28.8512 32.8884 28.4356 33.3865L29.9712 34.6679ZM30.3975 34.482L31.0736 34.3585L30.7142 32.3911L30.0381 32.5146L30.3975 34.482ZM31.0736 34.3585C31.2463 34.327 31.3368 34.3591 31.4361 34.442L32.7175 32.9063C32.1411 32.4254 31.443 32.258 30.7142 32.3911L31.0736 34.3585ZM31.4361 34.442L36.4868 38.6563L37.7681 37.1207L32.7175 32.9063L31.4361 34.442ZM36.4868 38.6563C36.6438 38.7874 36.8349 38.9414 37.0017 39.0321L37.957 37.275C37.9792 37.2871 37.9889 37.2941 37.9815 37.2891C37.976 37.2854 37.9637 37.2768 37.9436 37.2616C37.9031 37.2311 37.8454 37.1852 37.7681 37.1207L36.4868 38.6563ZM37.2497 39.1268C37.436 39.1708 37.6053 39.1618 37.7024 39.1531C37.8146 39.143 37.9275 39.1228 38.033 39.0999L37.6075 37.1457C37.5801 37.1516 37.5591 37.1556 37.5438 37.1581C37.5282 37.1607 37.5216 37.1613 37.5226 37.1612C37.5227 37.1612 37.5377 37.1597 37.5637 37.1604C37.5875 37.1611 37.6399 37.164 37.709 37.1803L37.2497 39.1268ZM38.033 39.0999C38.0735 39.0911 38.067 39.0962 38.028 39.0961C38.0067 39.0961 37.9654 39.0946 37.9107 39.0837C37.856 39.0729 37.7759 39.0503 37.6862 39.0015L38.6415 37.2444C38.4047 37.1157 38.1723 37.0962 38.0293 37.0961C37.8758 37.096 37.7304 37.1189 37.6075 37.1457L38.033 39.0999ZM37.9342 39.0963C37.8832 39.0842 37.8438 39.07 37.8188 39.06C37.793 39.0497 37.7739 39.0404 37.7627 39.0346C37.7512 39.0286 37.7439 39.0243 37.7414 39.0228C37.7387 39.0212 37.7389 39.0212 37.7423 39.0235C37.7495 39.0283 37.7642 39.0386 37.7873 39.0564C37.8102 39.0739 37.8383 39.0965 37.8723 39.1248L39.1537 37.5892C39.0556 37.5074 38.9545 37.4283 38.8558 37.3621C38.7851 37.3148 38.613 37.2015 38.3935 37.1497L37.9342 39.0963ZM37.8723 39.1248L38.7 39.8155L39.9814 38.2798L39.1537 37.5892L37.8723 39.1248ZM38.5729 38.407L38.0796 38.9982L39.6152 40.2795L40.1085 39.6883L38.5729 38.407ZM38.0796 38.9982C38.0054 39.0871 37.9494 39.1491 37.9097 39.1896C37.8902 39.2095 37.8784 39.2203 37.8736 39.2246C37.8676 39.2298 37.8767 39.2212 37.899 39.206L39.0235 40.8599C39.2407 40.7123 39.4485 40.4793 39.6152 40.2795L38.0796 38.9982ZM38.061 39.1166C38.0869 39.1053 38.0837 39.1096 38.0279 39.1238C37.9784 39.1364 37.9065 39.1521 37.8082 39.1701L38.1676 41.1375C38.3956 41.0959 38.6551 41.0395 38.8615 40.9494L38.061 39.1166ZM37.796 39.1724C37.7147 39.1883 37.6991 39.1809 37.7292 39.1847C37.7658 39.1894 37.8704 39.2118 37.9808 39.3039L36.6994 40.8395C37.1886 41.2477 37.7921 41.211 38.1798 41.1352L37.796 39.1724ZM30.5461 43.0975L31.8636 44.1969L33.145 42.6612L31.8274 41.5618L30.5461 43.0975ZM31.8636 44.1969C32.0207 44.3279 32.2118 44.4819 32.3786 44.5726L33.3339 42.8155C33.3561 42.8276 33.3657 42.8346 33.3584 42.8296C33.3528 42.8259 33.3406 42.8173 33.3205 42.8022C33.2799 42.7716 33.2223 42.7257 33.145 42.6612L31.8636 44.1969ZM32.6266 44.6673C32.8129 44.7113 32.9822 44.7024 33.0792 44.6936C33.1915 44.6835 33.3044 44.6633 33.4098 44.6404L32.9844 42.6862C32.9569 42.6921 32.9359 42.6961 32.9207 42.6986C32.9051 42.7012 32.8985 42.7018 32.8994 42.7017C32.8996 42.7017 32.9145 42.7003 32.9405 42.701C32.9644 42.7016 33.0168 42.7045 33.0859 42.7208L32.6266 44.6673ZM33.4098 44.6404C33.5863 44.602 33.8203 44.5422 34.0214 44.4337L33.0715 42.6736C33.0957 42.6606 33.1119 42.654 33.1155 42.6526C33.1199 42.6508 33.1178 42.6519 33.1076 42.6551C33.0861 42.6618 33.0467 42.6726 32.9844 42.6862L33.4098 44.6404ZM34.1737 44.3325C34.3248 44.2108 34.5046 44.0005 34.6553 43.8199L33.1197 42.5386C33.0399 42.6342 32.9794 42.7039 32.9361 42.7514C32.9146 42.7751 32.9009 42.7893 32.8939 42.7963C32.8841 42.806 32.8944 42.7948 32.9192 42.7748L34.1737 44.3325ZM34.6553 43.8199L36.3749 41.7591L34.8393 40.4778L33.1197 42.5386L34.6553 43.8199ZM36.3749 41.7591C36.5296 41.5737 36.7404 41.3105 36.8426 41.0498L34.9806 40.3198C34.9897 40.2966 34.9978 40.2798 35.0024 40.2705C35.0072 40.2609 35.0104 40.2555 35.0108 40.2548C35.0113 40.254 35.006 40.2629 34.9917 40.2833C34.9626 40.3248 34.9139 40.3884 34.8393 40.4778L36.3749 41.7591ZM36.8259 41.0899C36.9329 40.8483 36.9913 40.5116 37.0336 40.2256L35.0551 39.933C35.0344 40.0733 35.0159 40.1757 35.0004 40.2461C34.9928 40.2809 34.9872 40.3017 34.9844 40.3116C34.9807 40.324 34.9841 40.3096 34.9973 40.2797L36.8259 41.0899ZM37.0336 40.2256C37.0587 40.0562 37.0774 39.8938 37.0838 39.749C37.0884 39.6456 37.097 39.4071 37.0145 39.1703L35.1257 39.8278C35.1071 39.7743 35.0981 39.7312 35.0937 39.706C35.0891 39.6796 35.0875 39.6606 35.0868 39.6519C35.0857 39.6358 35.0868 39.6363 35.0857 39.6604C35.0848 39.6827 35.0823 39.7164 35.0772 39.7637C35.0722 39.8105 35.065 39.8667 35.0551 39.933L37.0336 40.2256ZM37.0145 39.1703C36.9368 38.9472 36.8044 38.7831 36.7226 38.6911C36.6287 38.5854 36.5215 38.4873 36.4152 38.3987L35.1339 39.9343C35.1636 39.9591 35.1861 39.9792 35.2025 39.9946C35.2192 40.0103 35.2267 40.0186 35.2276 40.0196C35.2293 40.0214 35.2182 40.0094 35.2015 39.9842C35.1928 39.971 35.1811 39.9519 35.1682 39.9272C35.1555 39.9026 35.1401 39.8692 35.1257 39.8278L37.0145 39.1703ZM36.4152 38.3987L35.2666 37.4402L33.9852 38.9758L35.1339 39.9343L36.4152 38.3987ZM35.2666 37.4402C35.1685 37.3584 35.0674 37.2793 34.9687 37.2132C34.898 37.1658 34.7259 37.0525 34.5064 37.0007L34.0471 38.9473C33.9961 38.9353 33.9567 38.9211 33.9317 38.911C33.9059 38.9007 33.8868 38.8914 33.8756 38.8856C33.8641 38.8797 33.8568 38.8754 33.8543 38.8738C33.8516 38.8722 33.8518 38.8722 33.8552 38.8745C33.8624 38.8793 33.877 38.8896 33.9002 38.9074C33.923 38.9249 33.9512 38.9475 33.9852 38.9758L35.2666 37.4402ZM34.7544 37.0955C34.5176 36.9667 34.2852 36.9473 34.1422 36.9472C33.9887 36.9471 33.8433 36.9699 33.7204 36.9967L34.1459 38.9509C34.1864 38.9421 34.1799 38.9472 34.1409 38.9472C34.1196 38.9472 34.0783 38.9456 34.0236 38.9348C33.9689 38.9239 33.8888 38.9013 33.7991 38.8526L34.7544 37.0955ZM33.7204 36.9967C33.5484 37.0341 33.2301 37.112 32.9734 37.3187L34.2279 38.8763C34.1795 38.9154 34.1387 38.9385 34.1165 38.9501C34.0934 38.9622 34.0786 38.9677 34.0762 38.9686C34.0733 38.9697 34.0931 38.9624 34.1459 38.9509L33.7204 36.9967ZM33.1257 37.2175C32.9525 37.311 32.8181 37.442 32.7496 37.511C32.6616 37.5995 32.569 37.7044 32.4749 37.8172L34.0105 39.0985C34.0855 39.0086 34.1371 38.9521 34.1685 38.9205C34.1839 38.905 34.1872 38.9028 34.18 38.9088C34.176 38.9122 34.1661 38.9202 34.151 38.931C34.1365 38.9413 34.1109 38.9585 34.0756 38.9775L33.1257 37.2175ZM32.4749 37.8172L30.417 40.2834L31.9526 41.5647L34.0105 39.0985L32.4749 37.8172ZM30.417 40.2834C30.3229 40.3961 30.2363 40.5061 30.165 40.6085C30.1094 40.6882 30.0046 40.8439 29.9436 41.0311L31.8453 41.6505C31.8328 41.6886 31.8205 41.7168 31.813 41.7329C31.8051 41.7498 31.799 41.7609 31.7964 41.7655C31.7918 41.7736 31.7933 41.77 31.8058 41.752C31.8312 41.7155 31.8776 41.6547 31.9526 41.5647L30.417 40.2834ZM30.0159 40.8631C29.8584 41.1527 29.8389 41.4798 29.8328 41.6557L31.8317 41.7243C31.8335 41.6704 31.8371 41.6496 31.8366 41.6527C31.8362 41.6551 31.8333 41.6707 31.8256 41.6956C31.8182 41.7195 31.8027 41.7638 31.773 41.8184L30.0159 40.8631ZM29.8328 41.6557C29.8264 41.8428 29.826 42.1977 29.9999 42.5199L31.7599 41.57C31.792 41.6295 31.809 41.6794 31.8177 41.7102C31.8266 41.7416 31.8299 41.7632 31.831 41.771C31.8328 41.7844 31.83 41.7723 31.8317 41.7243L29.8328 41.6557ZM30.0721 42.6344C30.1519 42.7438 30.2498 42.8363 30.3032 42.8858C30.3723 42.9499 30.4549 43.0213 30.5461 43.0975L31.8274 41.5618C31.7497 41.497 31.6967 41.4505 31.6635 41.4197C31.647 41.4044 31.6404 41.3976 31.6407 41.3979C31.641 41.3982 31.6453 41.4026 31.6521 41.4105C31.6584 41.4178 31.6715 41.4332 31.6877 41.4554L30.0721 42.6344ZM28.6083 26.4991L27.8405 25.8584L27.1999 26.6262L27.9677 27.2669L28.6083 26.4991ZM29.7923 25.0802L30.433 24.3124L29.6652 23.6717L29.0245 24.4395L29.7923 25.0802ZM40.6988 34.1235L40.3338 35.0545L40.3612 35.0652L40.3891 35.0743L40.6988 34.1235ZM41.1158 34.0703L40.8978 33.0943L40.8648 33.1017L40.8323 33.1113L41.1158 34.0703ZM41.5975 34.0424L41.2325 34.9734L41.3347 35.0135L41.4431 35.0304L41.5975 34.0424ZM42.7715 34.9361L43.5393 35.5768L44.18 34.8089L43.4122 34.1683L42.7715 34.9361ZM41.9625 35.8369L42.4883 36.6875L41.9625 35.8369ZM41.4638 36.0225L41.7373 36.9845L41.7473 36.9815L41.4638 36.0225ZM40.9003 36.1827L40.6268 35.2208L40.6169 35.2237L40.9003 36.1827ZM40.3764 36.2613L40.0114 37.1923L40.0775 37.2182L40.1467 37.2345L40.3764 36.2613ZM29.3762 27.1398L30.5601 25.7209L29.0245 24.4395L27.8405 25.8584L29.3762 27.1398ZM29.1516 25.848L39.5401 34.5163L40.8215 32.9807L30.433 24.3124L29.1516 25.848ZM39.5401 34.5163C39.6784 34.6317 39.8058 34.7331 39.9182 34.8144C40.0078 34.8793 40.1618 34.9871 40.3338 35.0545L41.0638 33.1925C41.1205 33.2147 41.1502 33.2344 41.1406 33.2285C41.1367 33.2261 41.1209 33.216 41.0909 33.1943C41.0306 33.1507 40.9422 33.0815 40.8215 32.9807L39.5401 34.5163ZM40.3891 35.0743C40.6373 35.1552 40.8665 35.1358 40.9861 35.1205C41.1281 35.1023 41.2696 35.0676 41.3992 35.0292L40.8323 33.1113C40.7591 33.1329 40.7297 33.137 40.7327 33.1366C40.7354 33.1363 40.7592 33.1332 40.7985 33.1344C40.8351 33.1356 40.9118 33.1412 41.0085 33.1727L40.3891 35.0743ZM41.3337 35.0462C41.3754 35.0369 41.4079 35.0308 41.4322 35.0271C41.4569 35.0232 41.4688 35.0224 41.47 35.0223C41.4723 35.0222 41.4536 35.0235 41.4198 35.0202C41.3881 35.017 41.3194 35.0075 41.2325 34.9734L41.9625 33.1114C41.7203 33.0164 41.4882 33.0179 41.3545 33.0256C41.2009 33.0345 41.0448 33.0615 40.8978 33.0943L41.3337 35.0462ZM41.4431 35.0304C41.3735 35.0195 41.3214 35.0027 41.2922 34.9922C41.2615 34.981 41.2404 34.971 41.2307 34.9661C41.2128 34.9572 41.2125 34.9554 41.2344 34.97C41.2543 34.9833 41.2843 35.0046 41.3258 35.0364C41.3667 35.0679 41.4153 35.1068 41.472 35.1542L42.7534 33.6186C42.6113 33.5 42.4729 33.3921 42.3449 33.3066C42.2628 33.2518 42.0347 33.0986 41.7518 33.0544L41.4431 35.0304ZM41.472 35.1542L42.1308 35.7039L43.4122 34.1683L42.7534 33.6186L41.472 35.1542ZM42.0037 34.2954L41.5808 34.8022L43.1165 36.0835L43.5393 35.5768L42.0037 34.2954ZM41.5808 34.8022C41.5009 34.8979 41.4428 34.9623 41.4039 35.002C41.3948 35.0113 41.3877 35.0182 41.3826 35.0231C41.3775 35.028 41.3752 35.0299 41.3757 35.0296C41.3759 35.0293 41.3806 35.0252 41.3894 35.0186C41.3978 35.0122 41.4138 35.0005 41.4367 34.9863L42.4883 36.6875C42.6346 36.5971 42.7554 36.4803 42.8325 36.4017C42.9223 36.31 43.0178 36.2017 43.1165 36.0835L41.5808 34.8022ZM41.4367 34.9863C41.4661 34.9682 41.4826 34.9613 41.4756 34.9645C41.4708 34.9667 41.4565 34.9728 41.4299 34.9827C41.3759 35.0028 41.2946 35.0298 41.1803 35.0635L41.7473 36.9815C41.9833 36.9117 42.2779 36.8176 42.4883 36.6875L41.4367 34.9863ZM41.1903 35.0606L40.6269 35.2208L41.1738 37.1446L41.7373 36.9844L41.1903 35.0606ZM40.6169 35.2237C40.5678 35.2382 40.5275 35.2489 40.4951 35.2566C40.4623 35.2643 40.4415 35.268 40.4309 35.2696C40.4193 35.2714 40.4271 35.2695 40.4497 35.2691C40.4617 35.269 40.4808 35.2692 40.5057 35.2715C40.5303 35.2737 40.5647 35.2782 40.606 35.288L40.1467 37.2345C40.3804 37.2897 40.5981 37.2669 40.7274 37.2475C40.8769 37.2251 41.0322 37.1865 41.1838 37.1417L40.6169 35.2237ZM40.7414 35.3303C40.798 35.3525 40.8277 35.3722 40.8181 35.3663C40.8142 35.3639 40.7984 35.3538 40.7684 35.3321C40.7081 35.2884 40.6197 35.2192 40.499 35.1185L39.2176 36.6541C39.3559 36.7695 39.4834 36.8709 39.5957 36.9522C39.6853 37.0171 39.8394 37.1248 40.0114 37.1923L40.7414 35.3303ZM40.499 35.1185L29.249 25.7313L27.9677 27.2669L39.2176 36.6541L40.499 35.1185ZM48.3134 25.2039L48.1337 24.2202L47.314 24.37L47.3134 25.2033L48.3134 25.2039ZM50.0037 24.8952L51.0037 24.8958L51.0045 23.6958L49.824 23.9115L50.0037 24.8952ZM50.0033 25.5825L51.0033 25.5831L51.0033 25.5831L50.0033 25.5825ZM49.955 26.2585L50.886 26.6235L50.9012 26.5848L50.9131 26.5449L49.955 26.2585ZM44.8727 31.7311L45.0524 32.7148L44.8727 31.7311ZM44.1966 31.8546L44.0169 30.8709L44.1966 31.8546ZM37.1021 25.9348L38.1021 25.9354L37.1021 25.9348ZM37.1025 25.2474L36.1025 25.2468L36.1025 25.2468L37.1025 25.2474ZM41.7397 19.69L41.5404 18.7101L41.5137 18.7155L41.4873 18.7224L41.7397 19.69ZM42.4299 19.5496L42.6293 20.5296L42.6446 20.5265L42.6598 20.5229L42.4299 19.5496ZM47.0756 22.7384L47.8434 23.3791L48.4841 22.6113L47.7163 21.9706L47.0756 22.7384ZM42.2552 28.5154L41.4874 27.8748L40.8467 28.6426L41.6145 29.2833L42.2552 28.5154ZM44.1949 30.1054L43.7173 30.9839L43.8349 31.0479L43.9653 31.0786L44.1949 30.1054ZM44.8851 29.965L45.3601 30.845L45.4409 30.8014L45.5124 30.7438L44.8851 29.965ZM48.2651 25.8799L49.1961 26.2449L49.2113 26.2062L49.2232 26.1664L48.2651 25.8799ZM44.7937 23.2412L45.5615 23.8819L46.2022 23.114L45.4344 22.4734L44.7937 23.2412ZM42.4344 21.3299L41.9568 22.2084L42.0744 22.2724L42.2048 22.3031L42.4344 21.3299ZM41.7583 21.4534L42.2333 22.3334L42.3141 22.2898L42.3856 22.2322L41.7583 21.4534ZM38.8548 24.9331L39.7333 25.4107L39.7772 25.3301L39.8056 25.2428L38.8548 24.9331ZM38.8402 25.6373L37.9602 26.1122L37.9924 26.172L38.0324 26.2268L38.8402 25.6373ZM41.1572 27.5993L40.5165 28.3671L41.2843 29.0078L41.925 28.24L41.1572 27.5993ZM48.4931 26.1877L50.1834 25.8789L49.824 23.9115L48.1337 24.2202L48.4931 26.1877ZM49.0037 24.8945L49.0033 25.5818L51.0033 25.5831L51.0037 24.8958L49.0037 24.8945ZM49.0033 25.5818C49.0032 25.7409 48.9993 25.8575 48.9936 25.9379C48.9907 25.9778 48.9879 26.0017 48.9863 26.0128C48.9842 26.0274 48.9857 26.0092 48.9969 25.9721L50.9131 26.5449C50.9619 26.3816 50.9794 26.2079 50.9885 26.0805C50.9988 25.9356 51.0032 25.7678 51.0033 25.5831L49.0033 25.5818ZM49.024 25.8935C49.0331 25.8702 49.0411 25.8534 49.0458 25.8441C49.0506 25.8346 49.0538 25.8292 49.0542 25.8284C49.0547 25.8276 49.0494 25.8366 49.0351 25.8569C49.006 25.8984 48.9572 25.962 48.8827 26.0514L50.4183 27.3328C50.573 27.1474 50.7838 26.8842 50.886 26.6235L49.024 25.8935ZM48.8827 26.0514L45.1193 30.5615L46.6549 31.8429L50.4183 27.3328L48.8827 26.0514ZM45.1193 30.5615C45.0839 30.6039 44.9841 30.6942 44.693 30.7474L45.0524 32.7148C45.6628 32.6033 46.2393 32.341 46.6549 31.8429L45.1193 30.5615ZM44.693 30.7474L44.0169 30.8709L44.3763 32.8383L45.0524 32.7148L44.693 30.7474ZM44.0169 30.8709C43.8442 30.9024 43.7538 30.8704 43.6544 30.7875L42.3731 32.3231C42.9494 32.804 43.6475 32.9715 44.3763 32.8383L44.0169 30.8709ZM43.6544 30.7875L38.249 26.2771L36.9677 27.8127L42.3731 32.3231L43.6544 30.7875ZM38.249 26.2771C38.1497 26.1942 38.1019 26.1109 38.1021 25.9354L36.1021 25.9341C36.1016 26.675 36.3914 27.3318 36.9677 27.8127L38.249 26.2771ZM38.1021 25.9354L38.1025 25.2481L36.1025 25.2468L36.1021 25.9341L38.1021 25.9354ZM38.1025 25.2481C38.1027 24.9522 38.1736 24.8378 38.209 24.7954L36.6734 23.5141C36.2578 24.0122 36.1029 24.6263 36.1025 25.2468L38.1025 25.2481ZM38.209 24.7954L41.4931 20.8596L39.9575 19.5783L36.6734 23.5141L38.209 24.7954ZM41.4931 20.8596C41.4813 20.8738 41.4967 20.8491 41.5822 20.8045C41.6671 20.7602 41.7989 20.7081 41.9921 20.6577L41.4873 18.7224C40.927 18.8686 40.3448 19.1141 39.9575 19.5783L41.4931 20.8596ZM41.939 20.67L42.6293 20.5296L42.2306 18.5697L41.5404 18.7101L41.939 20.67ZM42.6598 20.5229C42.7586 20.4995 42.8347 20.5021 42.9721 20.6168L44.2535 19.0812C43.6702 18.5945 42.9577 18.3975 42.2001 18.5764L42.6598 20.5229ZM42.9721 20.6168L46.4349 23.5062L47.7163 21.9706L44.2535 19.0812L42.9721 20.6168ZM46.3078 22.0978L41.4874 27.8748L43.023 29.1561L47.8434 23.3791L46.3078 22.0978ZM41.6145 29.2833L43.2023 30.6082L44.4837 29.0726L42.8958 27.7476L41.6145 29.2833ZM43.2023 30.6082C43.3593 30.7392 43.5505 30.8932 43.7173 30.9839L44.6726 29.2268C44.6948 29.2389 44.7044 29.2459 44.6971 29.241C44.6915 29.2372 44.6793 29.2286 44.6592 29.2135C44.6186 29.1829 44.561 29.137 44.4837 29.0726L43.2023 30.6082ZM43.9653 31.0786C44.1516 31.1226 44.3209 31.1137 44.4179 31.1049C44.5302 31.0948 44.6431 31.0747 44.7485 31.0517L44.323 29.0975C44.2956 29.1035 44.2746 29.1074 44.2593 29.1099C44.2437 29.1125 44.2372 29.1131 44.2381 29.113C44.2383 29.113 44.2532 29.1116 44.2792 29.1123C44.3031 29.1129 44.3555 29.1158 44.4246 29.1321L43.9653 31.0786ZM44.7485 31.0517C44.925 31.0133 45.159 30.9535 45.3601 30.845L44.4102 29.085C44.4344 29.0719 44.4505 29.0654 44.4542 29.0639C44.4585 29.0622 44.4565 29.0632 44.4463 29.0664C44.4248 29.0731 44.3854 29.0839 44.323 29.0975L44.7485 31.0517ZM45.5124 30.7438C45.6635 30.6221 45.8433 30.4118 45.994 30.2312L44.4584 28.9499C44.3786 29.0455 44.3181 29.1153 44.2748 29.1628C44.2533 29.1864 44.2396 29.2006 44.2326 29.2076C44.2228 29.2174 44.2331 29.2061 44.2579 29.1862L45.5124 30.7438ZM45.994 30.2312L48.7284 26.9542L47.1928 25.6729L44.4584 28.9499L45.994 30.2312ZM48.7284 26.9542C48.8831 26.7688 49.0939 26.5056 49.1961 26.2449L47.3341 25.5149C47.3432 25.4917 47.3513 25.4749 47.3559 25.4656C47.3608 25.456 47.3639 25.4506 47.3644 25.4499C47.3648 25.4491 47.3595 25.4581 47.3452 25.4784C47.3161 25.5199 47.2674 25.5835 47.1928 25.6729L48.7284 26.9542ZM49.2232 26.1664C49.272 26.0031 49.2895 25.8294 49.2986 25.702C49.309 25.5571 49.3133 25.3892 49.3134 25.2046L47.3134 25.2033C47.3133 25.3623 47.3095 25.479 47.3037 25.5594C47.3009 25.5993 47.2981 25.6231 47.2964 25.6343C47.2943 25.6489 47.2959 25.6307 47.307 25.5935L49.2232 26.1664ZM45.4344 22.4734L43.4242 20.7961L42.1429 22.3317L44.153 24.009L45.4344 22.4734ZM43.4242 20.7961C43.3262 20.7143 43.2251 20.6352 43.1264 20.569C43.0557 20.5216 42.8835 20.4084 42.6641 20.3566L42.2048 22.3031C42.1538 22.2911 42.1144 22.2769 42.0893 22.2669C42.0635 22.2566 42.0445 22.2473 42.0333 22.2415C42.0218 22.2355 42.0145 22.2312 42.0119 22.2297C42.0092 22.228 42.0094 22.2281 42.0128 22.2303C42.02 22.2352 42.0347 22.2455 42.0579 22.2633C42.0807 22.2808 42.1089 22.3033 42.1429 22.3317L43.4242 20.7961ZM42.9121 20.4513C42.6752 20.3225 42.4428 20.3031 42.2999 20.303C42.1463 20.3029 42.0009 20.3258 41.878 20.3525L42.3035 22.3068C42.344 22.2979 42.3376 22.303 42.2986 22.303C42.2772 22.303 42.236 22.3015 42.1812 22.2906C42.1265 22.2797 42.0465 22.2572 41.9568 22.2084L42.9121 20.4513ZM41.878 20.3525C41.7061 20.39 41.3878 20.4678 41.1311 20.6746L42.3856 22.2322C42.3371 22.2712 42.2964 22.2944 42.2742 22.306C42.2511 22.318 42.2362 22.3236 42.2339 22.3245C42.231 22.3255 42.2507 22.3182 42.3035 22.3068L41.878 20.3525ZM41.2833 20.5734C41.1101 20.6669 40.9757 20.7979 40.9073 20.8668C40.8193 20.9554 40.7266 21.0602 40.6325 21.173L42.1681 22.4544C42.2432 22.3644 42.2948 22.3079 42.3261 22.2764C42.3416 22.2608 42.3448 22.2587 42.3377 22.2647C42.3336 22.268 42.3238 22.2761 42.3086 22.2868C42.2941 22.2971 42.2686 22.3143 42.2333 22.3334L41.2833 20.5734ZM40.6325 21.173L38.3773 23.8757L39.913 25.1571L42.1681 22.4544L40.6325 21.173ZM38.3773 23.8757C38.2832 23.9885 38.1967 24.0984 38.1253 24.2008C38.0697 24.2805 37.9649 24.4362 37.9039 24.6234L39.8056 25.2428C39.7932 25.2809 39.7808 25.3091 39.7733 25.3253C39.7654 25.3421 39.7593 25.3532 39.7567 25.3578C39.7521 25.366 39.7536 25.3623 39.7661 25.3443C39.7915 25.3079 39.8379 25.247 39.913 25.1571L38.3773 23.8757ZM37.9762 24.4554C37.8188 24.745 37.7992 25.0721 37.7931 25.248L39.792 25.3167C39.7938 25.2627 39.7975 25.242 39.7969 25.245C39.7965 25.2475 39.7937 25.2631 39.7859 25.288C39.7785 25.3119 39.763 25.3561 39.7333 25.4107L37.9762 24.4554ZM37.7931 25.248C37.7867 25.4352 37.7863 25.7901 37.9602 26.1122L39.7202 25.1623C39.7524 25.2219 39.7693 25.2718 39.778 25.3025C39.7869 25.3339 39.7902 25.3555 39.7913 25.3633C39.7931 25.3767 39.7903 25.3646 39.792 25.3167L37.7931 25.248ZM38.0324 26.2268C38.1123 26.3361 38.2101 26.4287 38.2635 26.4782C38.3326 26.5423 38.4152 26.6137 38.5064 26.6898L39.7877 25.1542C39.71 25.0893 39.657 25.0428 39.6238 25.012C39.6073 24.9967 39.6007 24.9899 39.601 24.9902C39.6014 24.9906 39.6056 24.995 39.6124 25.0029C39.6187 25.0102 39.6318 25.0256 39.648 25.0478L38.0324 26.2268ZM38.5064 26.6898L40.5165 28.3671L41.7979 26.8315L39.7877 25.1542L38.5064 26.6898ZM41.925 28.24L45.5615 23.8819L44.0259 22.6005L40.3894 26.9586L41.925 28.24ZM52.3769 20.4028L52.287 19.4068L52.2539 19.4098L52.221 19.415L52.3769 20.4028ZM51.4326 21.5345L52.4325 21.5213L52.432 21.4829L52.4285 21.4446L51.4326 21.5345ZM52.7867 22.6931L52.8766 23.6891L52.9098 23.6861L52.9427 23.6809L52.7867 22.6931ZM53.7311 21.5614L52.7312 21.5746L52.7317 21.613L52.7351 21.6513L53.7311 21.5614ZM50.6117 19.0158L51.3795 19.6565L51.9936 18.9204L51.2842 18.2757L50.6117 19.0158ZM49.7378 20.0631L49.1301 20.8573L49.8915 21.4398L50.5056 20.7037L49.7378 20.0631ZM45.1909 16.5842L44.5502 17.352L44.5664 17.3656L44.5832 17.3784L45.1909 16.5842ZM40.9679 13.0605L40.2001 12.4198L39.5594 13.1876L40.3272 13.8283L40.9679 13.0605ZM42.1519 11.6416L42.7926 10.8738L42.0248 10.2331L41.3841 11.0009L42.1519 11.6416ZM46.3748 15.1653L47.0474 14.4253L47.0318 14.411L47.0155 14.3975L46.3748 15.1653ZM54.0087 20.2328L53.6202 19.9086L52.3389 21.4442L52.7274 21.7684L54.0087 20.2328ZM53.6202 19.9086C53.337 19.6723 52.8671 19.3545 52.287 19.4068L52.4668 21.3987C52.3295 21.4111 52.2451 21.3737 52.2381 21.3705C52.2328 21.3681 52.2394 21.3706 52.2582 21.383C52.2768 21.3953 52.3036 21.4148 52.3389 21.4442L53.6202 19.9086ZM52.221 19.415C51.9109 19.464 51.6683 19.6155 51.5059 19.7415C51.3347 19.8744 51.1795 20.0367 51.0398 20.204L52.5755 21.4853C52.6167 21.4359 52.6512 21.3982 52.6791 21.3702C52.7074 21.3418 52.7251 21.327 52.7323 21.3214C52.7401 21.3154 52.7297 21.3247 52.7014 21.3388C52.6732 21.3529 52.6158 21.3775 52.5329 21.3905L52.221 19.415ZM51.0398 20.204L50.9835 20.2715L52.5191 21.5529L52.5755 21.4853L51.0398 20.204ZM50.9835 20.2715C50.8447 20.4379 50.7117 20.6207 50.6124 20.8147C50.5205 20.9942 50.4057 21.2819 50.4366 21.6244L52.4285 21.4446C52.438 21.5498 52.4228 21.629 52.4119 21.6702C52.4009 21.7115 52.39 21.7312 52.3925 21.7263C52.3945 21.7224 52.4039 21.7052 52.4259 21.6736C52.4475 21.6424 52.4778 21.6024 52.5191 21.5529L50.9835 20.2715ZM50.4327 21.5478C50.4341 21.6532 50.4421 21.7768 50.468 21.9043C50.4918 22.0212 50.5445 22.2131 50.681 22.4001L52.2965 21.2211C52.3501 21.2945 52.3808 21.3611 52.3981 21.4058C52.4156 21.4512 52.424 21.4865 52.4279 21.5056C52.4351 21.5411 52.4329 21.5511 52.4325 21.5213L50.4327 21.5478ZM50.681 22.4001C50.7608 22.5095 50.8587 22.602 50.912 22.6515C50.9811 22.7156 51.0637 22.787 51.1549 22.8631L52.4363 21.3275C52.3586 21.2627 52.3055 21.2161 52.2723 21.1854C52.2558 21.17 52.2492 21.1632 52.2495 21.1635C52.2499 21.1639 52.2541 21.1683 52.2609 21.1762C52.2673 21.1835 52.2803 21.1989 52.2965 21.2211L50.681 22.4001ZM51.1549 22.8631L51.5434 23.1873L52.8248 21.6517L52.4363 21.3275L51.1549 22.8631ZM51.5434 23.1873C51.8266 23.4236 52.2965 23.7414 52.8766 23.6891L52.6968 21.6972C52.8342 21.6848 52.9186 21.7222 52.9255 21.7254C52.9308 21.7278 52.9243 21.7253 52.9055 21.7129C52.8869 21.7006 52.86 21.6811 52.8248 21.6517L51.5434 23.1873ZM52.9427 23.6809C53.2527 23.6319 53.4953 23.4804 53.6577 23.3544C53.8289 23.2215 53.9842 23.0592 54.1238 22.8919L52.5882 21.6106C52.547 21.66 52.5124 21.6977 52.4845 21.7257C52.4563 21.7541 52.4386 21.7689 52.4314 21.7745C52.4236 21.7805 52.434 21.7712 52.4623 21.7571C52.4905 21.743 52.5479 21.7184 52.6308 21.7054L52.9427 23.6809ZM54.1238 22.8919L54.1943 22.8075L52.6587 21.5261L52.5882 21.6106L54.1238 22.8919ZM54.1943 22.8075C54.3298 22.645 54.4605 22.4645 54.558 22.2706C54.6498 22.0881 54.7572 21.8059 54.727 21.4715L52.7351 21.6513C52.7261 21.5515 52.7397 21.4753 52.7505 21.4331C52.7561 21.4113 52.7617 21.3954 52.7654 21.3859C52.7673 21.381 52.7688 21.3774 52.7698 21.3751C52.7703 21.374 52.7707 21.3731 52.771 21.3726C52.7713 21.372 52.7714 21.3717 52.7714 21.3717C52.7714 21.3717 52.7713 21.372 52.771 21.3725C52.7707 21.373 52.7703 21.3738 52.7698 21.3748C52.7686 21.3768 52.767 21.3797 52.7647 21.3835C52.76 21.3913 52.7532 21.4019 52.7437 21.4157C52.7245 21.4436 52.6969 21.4803 52.6587 21.5261L54.1943 22.8075ZM54.731 21.5481C54.7296 21.4427 54.7216 21.3191 54.6956 21.1916C54.6718 21.0747 54.6192 20.8828 54.4827 20.6958L52.8671 21.8748C52.8136 21.8014 52.7828 21.7348 52.7655 21.6901C52.748 21.6447 52.7397 21.6094 52.7358 21.5903C52.7285 21.5548 52.7308 21.5448 52.7312 21.5746L54.731 21.5481ZM54.4827 20.6958C54.4029 20.5864 54.305 20.4939 54.2516 20.4444C54.1825 20.3803 54.1 20.3089 54.0087 20.2328L52.7274 21.7684C52.8051 21.8332 52.8581 21.8798 52.8913 21.9105C52.9078 21.9259 52.9144 21.9327 52.9141 21.9324C52.9138 21.932 52.9095 21.9276 52.9027 21.9197C52.8964 21.9124 52.8834 21.897 52.8671 21.8748L54.4827 20.6958ZM49.8439 18.3751L48.97 19.4224L50.5056 20.7037L51.3795 19.6565L49.8439 18.3751ZM50.3454 19.2689L45.7985 15.79L44.5832 17.3784L49.1301 20.8573L50.3454 19.2689ZM45.8316 15.8164L41.6086 12.2927L40.3272 13.8283L44.5502 17.352L45.8316 15.8164ZM41.7357 13.7012L42.9197 12.2822L41.3841 11.0009L40.2001 12.4198L41.7357 13.7012ZM41.5112 12.4094L45.7342 15.9331L47.0155 14.3975L42.7926 10.8738L41.5112 12.4094ZM45.7023 15.9053L49.9391 19.7558L51.2842 18.2757L47.0474 14.4253L45.7023 15.9053Z" fill="white"/>
<path d="M71.5 1.5L68.5 2.5L62.5 6.5L59 13C59.4 13 63.5 11.6667 65.5 11L68 9L71.5 6.5" stroke="black" stroke-width="2"/>
<path d="M60 7.5L64.5 13.5" stroke="black" stroke-width="2"/>
</svg>
