<svg width="40" height="40" viewBox="0 0 40 40" fill="none" xmlns="http://www.w3.org/2000/svg">
<path d="M36.37 12.385C36.2167 12.1634 36.012 11.9823 35.7734 11.8572C35.5348 11.7321 35.2694 11.6667 35 11.6666H12.2217L10.2983 7.04998C10.0462 6.44201 9.61912 5.92262 9.07138 5.55766C8.52364 5.1927 7.87987 4.9986 7.22168 4.99998H3.33334V8.33331H7.22168L15.1283 27.3083C15.255 27.6119 15.4686 27.8712 15.7424 28.0536C16.0161 28.236 16.3377 28.3333 16.6667 28.3333H30C30.695 28.3333 31.3167 27.9016 31.5617 27.2533L36.5617 13.92C36.6562 13.6677 36.6881 13.3962 36.6547 13.1289C36.6213 12.8616 36.5236 12.6063 36.37 12.385Z" fill="black"/>
<path d="M17.5 35C18.8807 35 20 33.8807 20 32.5C20 31.1193 18.8807 30 17.5 30C16.1193 30 15 31.1193 15 32.5C15 33.8807 16.1193 35 17.5 35Z" fill="black"/>
<path d="M29.1667 35C30.5474 35 31.6667 33.8807 31.6667 32.5C31.6667 31.1193 30.5474 30 29.1667 30C27.786 30 26.6667 31.1193 26.6667 32.5C26.6667 33.8807 27.786 35 29.1667 35Z" fill="black"/>
</svg>
