<svg width="54" height="15" viewBox="0 0 54 15" fill="none" xmlns="http://www.w3.org/2000/svg">
<path d="M8.88888 0L10.8846 5.18237H17.3427L12.118 8.38525L14.1136 13.5676L8.88888 10.3647L3.66413 13.5676L5.65981 8.38525L0.435053 5.18237H6.8932L8.88888 0Z" fill="#E84B38"/>
<path d="M26.6666 0L28.6623 5.18237H35.1204L29.8957 8.38525L31.8913 13.5676L26.6666 10.3647L21.4418 13.5676L23.4375 8.38525L18.2128 5.18237H24.6709L26.6666 0Z" fill="#E84B38"/>
<path d="M44.4444 0L46.4401 5.18237H52.8983L47.6735 8.38525L49.6692 13.5676L44.4444 10.3647L39.2197 13.5676L41.2153 8.38525L35.9906 5.18237H42.4487L44.4444 0Z" fill="#E84B38"/>
</svg>
