<svg width="170" height="61" viewBox="0 0 170 61" fill="none" xmlns="http://www.w3.org/2000/svg">
<g filter="url(#filter0_d)">
<path d="M54 28C54 41.8071 42.8071 53 29 53C15.1929 53 4 41.8071 4 28C4 14.1929 15.1929 3 29 3C42.8071 3 54 14.1929 54 28ZM6.49964 28C6.49964 40.4266 16.5734 50.5004 29 50.5004C41.4266 50.5004 51.5004 40.4266 51.5004 28C51.5004 15.5734 41.4266 5.49964 29 5.49964C16.5734 5.49964 6.49964 15.5734 6.49964 28Z" fill="#E84B38"/>
<path d="M32.876 25.82C33.548 25.82 34.22 26.1 34.892 26.66L35.9 27.5C36.572 28.06 36.908 28.76 36.908 29.6V34.22C36.908 35.06 36.572 35.76 35.9 36.32L34.892 37.16C34.22 37.72 33.548 38 32.876 38H23.552C22.88 38 22.208 37.72 21.536 37.16L20.528 36.32C19.856 35.76 19.52 35.06 19.52 34.22V32.54H23.048V33.338C23.048 33.758 23.062 34.038 23.09 34.178C23.146 34.29 23.3 34.444 23.552 34.64C23.804 34.836 24 34.962 24.14 35.018C24.28 35.046 24.602 35.06 25.106 35.06H31.322C31.826 35.06 32.148 35.046 32.288 35.018C32.428 34.962 32.624 34.836 32.876 34.64C33.128 34.444 33.268 34.29 33.296 34.178C33.352 34.038 33.38 33.758 33.38 33.338V29.936C33.352 29.712 33.184 29.46 32.876 29.18C32.624 28.984 32.428 28.872 32.288 28.844C32.148 28.788 31.826 28.76 31.322 28.76H23.972C23.3 28.76 22.628 28.48 21.956 27.92L20.948 27.08C20.276 26.52 19.94 25.82 19.94 24.98V20.78C19.94 19.94 20.276 19.24 20.948 18.68L21.956 17.84C22.628 17.28 23.3 17 23.972 17H32.876C33.548 17 34.22 17.28 34.892 17.84L35.9 18.68C36.572 19.24 36.908 19.94 36.908 20.78V22.46H33.38V21.662C33.38 21.242 33.352 20.976 33.296 20.864C33.268 20.724 33.128 20.556 32.876 20.36C32.624 20.164 32.428 20.052 32.288 20.024C32.148 19.968 31.826 19.94 31.322 19.94H25.526C25.022 19.94 24.7 19.968 24.56 20.024C24.42 20.052 24.224 20.164 23.972 20.36C23.72 20.556 23.566 20.724 23.51 20.864C23.482 20.976 23.468 21.242 23.468 21.662V24.098C23.468 24.518 23.482 24.798 23.51 24.938C23.566 25.05 23.72 25.204 23.972 25.4C24.224 25.596 24.42 25.722 24.56 25.778C24.7 25.806 25.022 25.82 25.526 25.82H32.876Z" fill="#E84B38"/>
<path d="M34.892 26.66L35.5322 25.8918L34.892 26.66ZM35.9 27.5L35.2598 28.2682H35.2598L35.9 27.5ZM35.9 36.32L35.2598 35.5518H35.2598L35.9 36.32ZM34.892 37.16L35.5322 37.9282L34.892 37.16ZM20.528 36.32L21.1682 35.5518H21.1682L20.528 36.32ZM19.52 32.54V31.54H18.52V32.54H19.52ZM23.048 32.54H24.048V31.54H23.048V32.54ZM23.09 34.178L22.1094 34.3741L22.1357 34.5054L22.1956 34.6252L23.09 34.178ZM24.14 35.018L23.7686 35.9465L23.8539 35.9806L23.9439 35.9986L24.14 35.018ZM32.288 35.018L32.4841 35.9986L32.5741 35.9806L32.6594 35.9465L32.288 35.018ZM33.296 34.178L32.3675 33.8066L32.3423 33.8696L32.3259 33.9355L33.296 34.178ZM33.38 29.936H34.38V29.8737L34.3723 29.812L33.38 29.936ZM32.876 29.18L33.5487 28.4401L33.5203 28.4142L33.4899 28.3906L32.876 29.18ZM32.288 28.844L31.9166 29.7725L32.0019 29.8066L32.0919 29.8246L32.288 28.844ZM21.956 27.92L21.3158 28.6882H21.3158L21.956 27.92ZM20.948 27.08L21.5882 26.3118H21.5882L20.948 27.08ZM20.948 18.68L21.5882 19.4482H21.5882L20.948 18.68ZM21.956 17.84L21.3158 17.0718H21.3158L21.956 17.84ZM34.892 17.84L35.5322 17.0718H35.5322L34.892 17.84ZM35.9 18.68L35.2598 19.4482H35.2598L35.9 18.68ZM36.908 22.46V23.46H37.908V22.46H36.908ZM33.38 22.46H32.38V23.46H33.38V22.46ZM33.296 20.864L32.3154 21.0601L32.3417 21.1914L32.4016 21.3112L33.296 20.864ZM32.288 20.024L31.9166 20.9525L32.0019 20.9866L32.0919 21.0046L32.288 20.024ZM24.56 20.024L24.7561 21.0046L24.8461 20.9866L24.9314 20.9525L24.56 20.024ZM23.51 20.864L22.5815 20.4926L22.5563 20.5556L22.5399 20.6215L23.51 20.864ZM23.51 24.938L22.5294 25.1341L22.5557 25.2654L22.6156 25.3852L23.51 24.938ZM24.56 25.778L24.1886 26.7065L24.2739 26.7406L24.3639 26.7586L24.56 25.778ZM32.876 26.82C33.2512 26.82 33.7045 26.9721 34.2518 27.4282L35.5322 25.8918C34.7355 25.2279 33.8448 24.82 32.876 24.82V26.82ZM34.2518 27.4282L35.2598 28.2682L36.5402 26.7318L35.5322 25.8918L34.2518 27.4282ZM35.2598 28.2682C35.7147 28.6473 35.908 29.0706 35.908 29.6H37.908C37.908 28.4494 37.4293 27.4727 36.5402 26.7318L35.2598 28.2682ZM35.908 29.6V34.22H37.908V29.6H35.908ZM35.908 34.22C35.908 34.7494 35.7147 35.1727 35.2598 35.5518L36.5402 37.0882C37.4293 36.3473 37.908 35.3706 37.908 34.22H35.908ZM35.2598 35.5518L34.2518 36.3918L35.5322 37.9282L36.5402 37.0882L35.2598 35.5518ZM34.2518 36.3918C33.7045 36.8479 33.2512 37 32.876 37V39C33.8448 39 34.7355 38.5921 35.5322 37.9282L34.2518 36.3918ZM32.876 37H23.552V39H32.876V37ZM23.552 37C23.1768 37 22.7235 36.8479 22.1762 36.3918L20.8958 37.9282C21.6925 38.5921 22.5832 39 23.552 39V37ZM22.1762 36.3918L21.1682 35.5518L19.8878 37.0882L20.8958 37.9282L22.1762 36.3918ZM21.1682 35.5518C20.7133 35.1727 20.52 34.7494 20.52 34.22H18.52C18.52 35.3706 18.9987 36.3473 19.8878 37.0882L21.1682 35.5518ZM20.52 34.22V32.54H18.52V34.22H20.52ZM19.52 33.54H23.048V31.54H19.52V33.54ZM22.048 32.54V33.338H24.048V32.54H22.048ZM22.048 33.338C22.048 33.7425 22.0589 34.1213 22.1094 34.3741L24.0706 33.9819C24.0715 33.9865 24.0637 33.9412 24.0573 33.8131C24.0514 33.6957 24.048 33.5387 24.048 33.338H22.048ZM22.1956 34.6252C22.2945 34.8231 22.4348 34.979 22.5404 35.0846C22.6568 35.201 22.7929 35.3165 22.9381 35.4294L24.1659 33.8506C24.0591 33.7675 23.9922 33.708 23.9546 33.6704C23.9364 33.6522 23.9316 33.6456 23.9353 33.6502C23.9376 33.6531 23.9594 33.6806 23.9844 33.7308L22.1956 34.6252ZM22.9381 35.4294C23.2007 35.6336 23.4898 35.8349 23.7686 35.9465L24.5114 34.0895C24.5233 34.0943 24.4988 34.0853 24.4288 34.0403C24.3632 33.9982 24.2763 33.9365 24.1659 33.8506L22.9381 35.4294ZM23.9439 35.9986C24.2008 36.05 24.6308 36.06 25.106 36.06V34.06C24.8614 34.06 24.6708 34.0566 24.5299 34.0504C24.3728 34.0436 24.3243 34.0351 24.3361 34.0374L23.9439 35.9986ZM25.106 36.06H31.322V34.06H25.106V36.06ZM31.322 36.06C31.7972 36.06 32.2272 36.05 32.4841 35.9986L32.0919 34.0374C32.1037 34.0351 32.0552 34.0436 31.8981 34.0504C31.7572 34.0566 31.5666 34.06 31.322 34.06V36.06ZM32.6594 35.9465C32.9382 35.8349 33.2273 35.6336 33.4899 35.4294L32.2621 33.8506C32.1517 33.9365 32.0648 33.9982 31.9992 34.0403C31.9292 34.0853 31.9047 34.0943 31.9166 34.0895L32.6594 35.9465ZM33.4899 35.4294C33.64 35.3126 33.7867 35.1857 33.9099 35.0502C34.015 34.9346 34.1916 34.7189 34.2661 34.4205L32.3259 33.9355C32.3394 33.8811 32.3564 33.8377 32.3708 33.8062C32.3852 33.7746 32.3989 33.7511 32.4085 33.7359C32.4267 33.7071 32.4376 33.6965 32.4301 33.7048C32.4235 33.712 32.4075 33.7286 32.378 33.7549C32.349 33.7808 32.3109 33.8127 32.2621 33.8506L33.4899 35.4294ZM34.2245 34.5494C34.3054 34.347 34.3373 34.13 34.354 33.9625C34.3725 33.7776 34.38 33.5668 34.38 33.338H32.38C32.38 33.5292 32.3735 33.6684 32.364 33.7635C32.3593 33.8105 32.3547 33.8382 32.3522 33.8506C32.3491 33.866 32.3516 33.8464 32.3675 33.8066L34.2245 34.5494ZM34.38 33.338V29.936H32.38V33.338H34.38ZM34.3723 29.812C34.2983 29.2199 33.9015 28.7609 33.5487 28.4401L32.2033 29.9199C32.3176 30.0239 32.3756 30.0957 32.401 30.1337C32.4269 30.1726 32.3984 30.1455 32.3877 30.06L34.3723 29.812ZM33.4899 28.3906C33.231 28.1893 32.874 27.9414 32.4841 27.8634L32.0919 29.8246C32.0475 29.8157 32.022 29.8051 32.0189 29.8038C32.0148 29.8021 32.0227 29.8052 32.0439 29.8172C32.0878 29.8424 32.1594 29.8895 32.2621 29.9694L33.4899 28.3906ZM32.6594 27.9155C32.4433 27.8291 32.2016 27.7998 32.0281 27.7848C31.8271 27.7673 31.5889 27.76 31.322 27.76V29.76C31.5591 29.76 31.7339 29.7667 31.8549 29.7772C31.915 29.7825 31.9517 29.7878 31.97 29.7911C31.9939 29.7955 31.9681 29.7931 31.9166 29.7725L32.6594 27.9155ZM31.322 27.76H23.972V29.76H31.322V27.76ZM23.972 27.76C23.5968 27.76 23.1435 27.6079 22.5962 27.1518L21.3158 28.6882C22.1125 29.3521 23.0032 29.76 23.972 29.76V27.76ZM22.5962 27.1518L21.5882 26.3118L20.3078 27.8482L21.3158 28.6882L22.5962 27.1518ZM21.5882 26.3118C21.1333 25.9327 20.94 25.5094 20.94 24.98H18.94C18.94 26.1306 19.4187 27.1073 20.3078 27.8482L21.5882 26.3118ZM20.94 24.98V20.78H18.94V24.98H20.94ZM20.94 20.78C20.94 20.2506 21.1333 19.8273 21.5882 19.4482L20.3078 17.9118C19.4187 18.6527 18.94 19.6294 18.94 20.78H20.94ZM21.5882 19.4482L22.5962 18.6082L21.3158 17.0718L20.3078 17.9118L21.5882 19.4482ZM22.5962 18.6082C23.1435 18.1521 23.5968 18 23.972 18V16C23.0032 16 22.1125 16.4079 21.3158 17.0718L22.5962 18.6082ZM23.972 18H32.876V16H23.972V18ZM32.876 18C33.2512 18 33.7045 18.1521 34.2518 18.6082L35.5322 17.0718C34.7355 16.4079 33.8448 16 32.876 16V18ZM34.2518 18.6082L35.2598 19.4482L36.5402 17.9118L35.5322 17.0718L34.2518 18.6082ZM35.2598 19.4482C35.7147 19.8273 35.908 20.2506 35.908 20.78H37.908C37.908 19.6294 37.4293 18.6527 36.5402 17.9118L35.2598 19.4482ZM35.908 20.78V22.46H37.908V20.78H35.908ZM36.908 21.46H33.38V23.46H36.908V21.46ZM34.38 22.46V21.662H32.38V22.46H34.38ZM34.38 21.662C34.38 21.4343 34.3726 21.2243 34.3535 21.0428C34.3379 20.8949 34.3046 20.6451 34.1904 20.4168L32.4016 21.3112C32.3815 21.271 32.3703 21.2395 32.3648 21.2228C32.3591 21.2053 32.3568 21.1948 32.3566 21.1938C32.3564 21.1931 32.3601 21.2103 32.3645 21.2522C32.3734 21.3367 32.38 21.4697 32.38 21.662H34.38ZM34.2766 20.6679C34.217 20.3702 34.0631 20.1426 33.9382 19.9928C33.8066 19.8349 33.6492 19.6945 33.4899 19.5706L32.2621 21.1494C32.3063 21.1838 32.3395 21.2122 32.3636 21.2345C32.3879 21.2572 32.3992 21.2701 32.4018 21.2732C32.4048 21.2768 32.3928 21.2633 32.3761 21.2326C32.3594 21.202 32.3321 21.1436 32.3154 21.0601L34.2766 20.6679ZM33.4899 19.5706C33.231 19.3693 32.874 19.1214 32.4841 19.0434L32.0919 21.0046C32.0475 20.9957 32.022 20.9851 32.0189 20.9838C32.0148 20.9821 32.0227 20.9851 32.0439 20.9972C32.0878 21.0224 32.1594 21.0695 32.2621 21.1494L33.4899 19.5706ZM32.6594 19.0955C32.4433 19.0091 32.2016 18.9798 32.0281 18.9648C31.8271 18.9473 31.5889 18.94 31.322 18.94V20.94C31.5591 20.94 31.7339 20.9467 31.8549 20.9572C31.915 20.9625 31.9517 20.9678 31.97 20.9711C31.9939 20.9755 31.9681 20.9731 31.9166 20.9525L32.6594 19.0955ZM31.322 18.94H25.526V20.94H31.322V18.94ZM25.526 18.94C25.2591 18.94 25.0209 18.9473 24.8199 18.9648C24.6464 18.9798 24.4047 19.0091 24.1886 19.0955L24.9314 20.9525C24.8799 20.9731 24.8541 20.9755 24.878 20.9711C24.8963 20.9678 24.933 20.9625 24.9931 20.9572C25.1141 20.9467 25.2889 20.94 25.526 20.94V18.94ZM24.3639 19.0434C23.974 19.1214 23.617 19.3693 23.3581 19.5706L24.5859 21.1494C24.6886 21.0695 24.7602 21.0224 24.8041 20.9972C24.8253 20.9851 24.8332 20.9821 24.8291 20.9838C24.826 20.9851 24.8005 20.9957 24.7561 21.0046L24.3639 19.0434ZM23.3581 19.5706C23.0902 19.779 22.7442 20.086 22.5815 20.4926L24.4385 21.2354C24.42 21.2815 24.4021 21.309 24.3966 21.3171C24.3907 21.3257 24.3917 21.3229 24.4047 21.3087C24.4322 21.2787 24.4881 21.2255 24.5859 21.1494L23.3581 19.5706ZM22.5399 20.6215C22.5004 20.7795 22.487 20.9589 22.4799 21.0949C22.4716 21.2524 22.468 21.4432 22.468 21.662H24.468C24.468 21.4608 24.4714 21.3086 24.4771 21.2001C24.48 21.1459 24.4831 21.1094 24.4855 21.0873C24.4885 21.0601 24.4887 21.0724 24.4801 21.1065L22.5399 20.6215ZM22.468 21.662V24.098H24.468V21.662H22.468ZM22.468 24.098C22.468 24.5025 22.4789 24.8813 22.5294 25.1341L24.4906 24.7419C24.4915 24.7465 24.4837 24.7012 24.4773 24.5731C24.4714 24.4557 24.468 24.2987 24.468 24.098H22.468ZM22.6156 25.3852C22.7145 25.5831 22.8548 25.739 22.9604 25.8446C23.0768 25.961 23.2129 26.0765 23.3581 26.1894L24.5859 24.6106C24.4791 24.5275 24.4122 24.468 24.3746 24.4304C24.3564 24.4122 24.3516 24.4056 24.3553 24.4102C24.3576 24.4131 24.3793 24.4406 24.4044 24.4908L22.6156 25.3852ZM23.3581 26.1894C23.6207 26.3936 23.9098 26.5949 24.1886 26.7065L24.9314 24.8495C24.9433 24.8543 24.9188 24.8453 24.8488 24.8003C24.7832 24.7582 24.6963 24.6965 24.5859 24.6106L23.3581 26.1894ZM24.3639 26.7586C24.6208 26.81 25.0508 26.82 25.526 26.82V24.82C25.2814 24.82 25.0908 24.8166 24.9499 24.8104C24.7928 24.8036 24.7443 24.7951 24.7561 24.7974L24.3639 26.7586ZM25.526 26.82H32.876V24.82H25.526V26.82Z" fill="#E84B38"/>
<path d="M110 28C110 41.8071 98.8071 53 85 53C71.1929 53 60 41.8071 60 28C60 14.1929 71.1929 3 85 3C98.8071 3 110 14.1929 110 28ZM62.4996 28C62.4996 40.4266 72.5734 50.5004 85 50.5004C97.4266 50.5004 107.5 40.4266 107.5 28C107.5 15.5734 97.4266 5.49964 85 5.49964C72.5734 5.49964 62.4996 15.5734 62.4996 28Z" fill="#E84B38"/>
<path d="M77.04 19.08L76.956 19.108C77.0867 19.556 77.152 20.004 77.152 20.452V37H74.8V17.4H78.608L84.6 33.052C84.712 33.3693 84.768 33.6307 84.768 33.836H84.88C84.88 33.6307 84.936 33.3693 85.048 33.052L91.068 17.4H94.848V37H92.496V20.452C92.496 20.004 92.5613 19.556 92.692 19.108L92.608 19.08L85.72 37H83.928C83.0693 34.8907 82.248 32.8467 81.464 30.868C80.6987 28.8893 80.064 27.2373 79.56 25.912C79.056 24.568 78.6173 23.392 78.244 22.384C77.8707 21.3573 77.5813 20.564 77.376 20.004C77.1707 19.444 77.0587 19.136 77.04 19.08Z" fill="#E84B38"/>
<path d="M77.04 19.08L77.9887 18.7638L77.6725 17.8151L76.7238 18.1313L77.04 19.08ZM76.956 19.108L76.6398 18.1593L75.7264 18.4638L75.996 19.388L76.956 19.108ZM77.152 37V38H78.152V37H77.152ZM74.8 37H73.8V38H74.8V37ZM74.8 17.4V16.4H73.8V17.4H74.8ZM78.608 17.4L79.5419 17.0425L79.2959 16.4H78.608V17.4ZM84.6 33.052L85.543 32.7192L85.5386 32.7068L85.5339 32.6945L84.6 33.052ZM84.768 33.836H83.768V34.836H84.768V33.836ZM84.88 33.836V34.836H85.88V33.836H84.88ZM85.048 33.052L84.1147 32.693L84.1097 32.706L84.105 32.7192L85.048 33.052ZM91.068 17.4V16.4H90.3812L90.1347 17.041L91.068 17.4ZM94.848 17.4H95.848V16.4H94.848V17.4ZM94.848 37V38H95.848V37H94.848ZM92.496 37H91.496V38H92.496V37ZM92.692 19.108L93.652 19.388L93.9216 18.4638L93.0082 18.1593L92.692 19.108ZM92.608 19.08L92.9242 18.1313L92.0175 17.8291L91.6746 18.7212L92.608 19.08ZM85.72 37V38H86.407L86.6534 37.3588L85.72 37ZM83.928 37L83.0018 37.377L83.2554 38H83.928V37ZM81.464 30.868L80.5313 31.2288L80.5343 31.2364L81.464 30.868ZM79.56 25.912L78.6237 26.2631L78.6253 26.2674L79.56 25.912ZM78.244 22.384L77.3042 22.7257L77.3063 22.7313L78.244 22.384ZM77.376 20.004L78.3149 19.6597L77.376 20.004ZM76.7238 18.1313L76.6398 18.1593L77.2722 20.0567L77.3562 20.0287L76.7238 18.1313ZM75.996 19.388C76.1012 19.7488 76.152 20.1026 76.152 20.452H78.152C78.152 19.9054 78.0721 19.3632 77.916 18.828L75.996 19.388ZM76.152 20.452V37H78.152V20.452H76.152ZM77.152 36H74.8V38H77.152V36ZM75.8 37V17.4H73.8V37H75.8ZM74.8 18.4H78.608V16.4H74.8V18.4ZM77.6741 17.7575L83.6661 33.4095L85.5339 32.6945L79.5419 17.0425L77.6741 17.7575ZM83.657 33.3848C83.7522 33.6545 83.768 33.7933 83.768 33.836H85.768C85.768 33.468 85.6718 33.0842 85.543 32.7192L83.657 33.3848ZM84.768 34.836H84.88V32.836H84.768V34.836ZM85.88 33.836C85.88 33.7933 85.8958 33.6545 85.991 33.3848L84.105 32.7192C83.9762 33.0842 83.88 33.468 83.88 33.836H85.88ZM85.9813 33.411L92.0013 17.759L90.1347 17.041L84.1147 32.693L85.9813 33.411ZM91.068 18.4H94.848V16.4H91.068V18.4ZM93.848 17.4V37H95.848V17.4H93.848ZM94.848 36H92.496V38H94.848V36ZM93.496 37V20.452H91.496V37H93.496ZM93.496 20.452C93.496 20.1026 93.5468 19.7488 93.652 19.388L91.732 18.828C91.5759 19.3632 91.496 19.9054 91.496 20.452H93.496ZM93.0082 18.1593L92.9242 18.1313L92.2918 20.0287L92.3758 20.0567L93.0082 18.1593ZM91.6746 18.7212L84.7866 36.6412L86.6534 37.3588L93.5414 19.4388L91.6746 18.7212ZM85.72 36H83.928V38H85.72V36ZM84.8542 36.623C83.9966 34.5163 83.1765 32.4752 82.3937 30.4996L80.5343 31.2364C81.3195 33.2181 82.142 35.265 83.0018 37.377L84.8542 36.623ZM82.3967 30.5073C81.6317 28.5296 80.9978 26.8795 80.4947 25.5566L78.6253 26.2674C79.1302 27.5952 79.7656 29.2491 80.5313 31.2287L82.3967 30.5073ZM80.4963 25.5609C79.9927 24.2178 79.5545 23.0431 79.1817 22.0367L77.3063 22.7313C77.6802 23.7409 78.1193 24.9182 78.6237 26.2631L80.4963 25.5609ZM79.1838 22.0423C78.8104 21.0153 78.5207 20.221 78.3149 19.6597L76.4371 20.3483C76.642 20.907 76.931 21.6993 77.3042 22.7257L79.1838 22.0423ZM78.3149 19.6597C78.2123 19.38 78.1333 19.164 78.0778 19.0113C78.05 18.9348 78.0284 18.875 78.0127 18.8314C78.0049 18.8095 77.9988 18.7926 77.9944 18.78C77.9894 18.7659 77.9881 18.7619 77.9887 18.7638L76.0913 19.3962C76.1161 19.4707 76.2363 19.8004 76.4371 20.3483L78.3149 19.6597Z" fill="#E84B38"/>
<path d="M166 28C166 41.8071 154.807 53 141 53C127.193 53 116 41.8071 116 28C116 14.1929 127.193 3 141 3C154.807 3 166 14.1929 166 28ZM118.5 28C118.5 40.4266 128.573 50.5004 141 50.5004C153.427 50.5004 163.5 40.4266 163.5 28C163.5 15.5734 153.427 5.49964 141 5.49964C128.573 5.49964 118.5 15.5734 118.5 28Z" fill="#E84B38"/>
<path d="M148.158 35.04V37H136.062V17.4H138.414V35.04H148.158Z" fill="#E84B38"/>
<path d="M148.158 35.04H149.158V34.04H148.158V35.04ZM148.158 37V38H149.158V37H148.158ZM136.062 37H135.062V38H136.062V37ZM136.062 17.4V16.4H135.062V17.4H136.062ZM138.414 17.4H139.414V16.4H138.414V17.4ZM138.414 35.04H137.414V36.04H138.414V35.04ZM147.158 35.04V37H149.158V35.04H147.158ZM148.158 36H136.062V38H148.158V36ZM137.062 37V17.4H135.062V37H137.062ZM136.062 18.4H138.414V16.4H136.062V18.4ZM137.414 17.4V35.04H139.414V17.4H137.414ZM138.414 36.04H148.158V34.04H138.414V36.04Z" fill="#E84B38"/>
</g>
<defs>
<filter id="filter0_d" x="0" y="3" width="170" height="58" filterUnits="userSpaceOnUse" color-interpolation-filters="sRGB">
<feFlood flood-opacity="0" result="BackgroundImageFix"/>
<feColorMatrix in="SourceAlpha" type="matrix" values="0 0 0 0 0 0 0 0 0 0 0 0 0 0 0 0 0 0 127 0"/>
<feOffset dy="4"/>
<feGaussianBlur stdDeviation="2"/>
<feColorMatrix type="matrix" values="0 0 0 0 0 0 0 0 0 0 0 0 0 0 0 0 0 0 0.25 0"/>
<feBlend mode="normal" in2="BackgroundImageFix" result="effect1_dropShadow"/>
<feBlend mode="normal" in="SourceGraphic" in2="effect1_dropShadow" result="shape"/>
</filter>
</defs>
</svg>
