<svg width="11" height="12" viewBox="0 0 11 12" fill="none" xmlns="http://www.w3.org/2000/svg">
<path fill-rule="evenodd" clip-rule="evenodd" d="M8 1.78972H11V2.68458H10V10.7383L9 11.6332H2L1 10.7383V2.68458H0V1.78972H3V0.894859C3 0.657528 3.10536 0.429917 3.29289 0.262098C3.48043 0.0942795 3.73478 0 4 0H7C7.26522 0 7.51957 0.0942795 7.70711 0.262098C7.89464 0.429917 8 0.657528 8 0.894859V1.78972ZM7 0.894859H4V1.78972H7V0.894859ZM2 10.7383H9V2.68458H2V10.7383ZM4 3.57944H3V9.84345H4V3.57944ZM5 3.57944H6V9.84345H5V3.57944ZM7 3.57944H8V9.84345H7V3.57944Z" fill="#E84B38"/>
</svg>
