<svg width="45" height="43" viewBox="0 0 45 43" fill="none" xmlns="http://www.w3.org/2000/svg">
<path d="M45 5.60781C43.7469 7.71917 42.2095 9.519 40.3879 11.0073C40.4058 11.4065 40.4148 11.8576 40.4148 12.3608C40.4148 15.1563 40.055 17.9552 39.3354 20.7576C38.6158 23.5599 37.5165 26.2422 36.0377 28.8046C34.5588 31.3669 32.7972 33.6369 30.7529 35.6146C28.7086 37.5922 26.2512 39.1691 23.3808 40.3452C20.5103 41.5213 17.434 42.1094 14.1518 42.1094C9.02936 42.1094 4.31209 40.5429 0 37.4101C0.765345 37.5065 1.49938 37.5548 2.20209 37.5548C6.48148 37.5548 10.3037 36.0617 13.6686 33.0756C11.6733 33.0341 9.88641 32.3384 8.30783 30.9883C6.72926 29.6383 5.64292 27.9132 5.04882 25.8131C5.63605 25.9398 6.21562 26.0031 6.78755 26.0031C7.6108 26.0031 8.42086 25.8815 9.21774 25.6382C7.08839 25.1552 5.32191 23.9538 3.91831 22.0342C2.51475 20.1147 1.81297 17.8991 1.81297 15.3876V15.2582C3.11998 16.0779 4.5141 16.5139 5.99535 16.5663C4.73394 15.6137 3.73383 14.3715 2.99502 12.8397C2.25617 11.308 1.88674 9.6503 1.88674 7.86677C1.88674 5.98574 2.30286 4.23415 3.1351 2.61199C5.45073 5.83083 8.2566 8.40342 11.5527 10.3298C14.8489 12.2562 18.385 13.326 22.1611 13.5393C22.0001 12.779 21.9194 11.9856 21.9191 11.1591C21.9191 8.2732 22.8207 5.80906 24.6239 3.76669C26.4271 1.72431 28.6026 0.703125 31.1503 0.703125C33.8177 0.703125 36.0644 1.8033 37.8906 4.00366C39.9771 3.53552 41.9307 2.68877 43.7514 1.46343C43.0499 3.96408 41.6983 5.89317 39.6964 7.25069C41.5363 7.00303 43.3042 6.4554 45 5.60781Z" fill="#E84B38"/>
</svg>
