<svg width="40" height="43" viewBox="0 0 40 43" fill="none" xmlns="http://www.w3.org/2000/svg">
<path d="M2.225 0.703125H37.8C39.025 0.703125 40 1.7124 40 2.98047V39.832C40 41.0742 39.025 42.1094 37.8 42.1094H27.6V26.0645H32.8L33.575 19.8276H27.6V15.8423C27.6 14.0308 28.1 12.7886 30.6 12.7886H33.8V7.19873C33.25 7.12109 31.35 6.96582 29.15 6.96582C24.525 6.96582 21.375 9.86426 21.375 15.2212V19.8276H16.15V26.0645H21.375V42.1094H2.225C1.6392 42.1094 1.07702 41.8703 0.660461 41.444C0.243903 41.0176 0.00658203 40.4384 0 39.832V2.98047C0 1.7124 1 0.703125 2.225 0.703125Z" fill="#E84B38"/>
</svg>
