<svg width="40" height="43" viewBox="0 0 40 43" fill="none" xmlns="http://www.w3.org/2000/svg">
<path d="M24.1469 21.8563C24.1469 19.6158 22.3784 17.7927 20.2047 17.7927C18.0313 17.7927 16.2629 19.6158 16.2629 21.8563C16.2629 24.0973 18.0313 25.92 20.2047 25.92C22.3784 25.92 24.1469 24.0973 24.1469 21.8563ZM30.0034 0.703125H9.99659C4.48446 0.703125 0 5.32641 0 11.009V13.8805H14.71C16.2622 12.7407 18.1579 12.0673 20.2047 12.0673C22.2516 12.0673 24.1475 12.7407 25.6998 13.8805H40V11.009C40 5.32637 35.5155 0.703125 30.0034 0.703125ZM34.0519 10.5048C34.0519 11.1346 33.5523 11.6499 32.9412 11.6499H29.5092C28.8982 11.6499 28.3985 11.1346 28.3985 10.5048V6.96646C28.3985 6.33674 28.8982 5.82135 29.5092 5.82135H32.9412C33.5522 5.82135 34.0519 6.33666 34.0519 6.96646V10.5048ZM29.7004 21.8563C29.7004 27.2545 25.4404 31.6454 20.2047 31.6454C14.9688 31.6454 10.7092 27.2545 10.7092 21.8563C10.7092 20.3701 11.0339 18.9607 11.6113 17.6975H0V31.8035C0 37.4865 4.48446 42.1094 9.99659 42.1094H30.0035C35.5155 42.1094 40 37.4865 40 31.8035V17.6975H28.7983C29.3757 18.9607 29.7004 20.3701 29.7004 21.8563Z" fill="#E84B38"/>
</svg>
