<svg width="166" height="57" viewBox="0 0 166 57" fill="none" xmlns="http://www.w3.org/2000/svg">
<path d="M29.47 56.6205C45.74 56.6205 58.93 44.0589 58.93 28.5612C58.93 13.0635 45.74 0.501953 29.47 0.501953C13.2 0.501953 0 13.0635 0 28.5612C0 44.0589 13.19 56.6205 29.47 56.6205Z" fill="#E84B38"/>
<path d="M47.33 21.3017V35.8112C47.33 36.3148 46.9 36.7329 46.37 36.7329C45.84 36.7329 45.41 36.3243 45.41 35.8112V21.3017C45.41 19.5914 43.95 18.1946 42.15 18.1946C40.35 18.1946 38.89 19.5914 38.89 21.3017V35.8112C38.89 38.5383 36.56 40.7522 33.7 40.7522C30.84 40.7522 28.51 38.5383 28.51 35.8112V21.3017C28.51 19.5914 27.05 18.1946 25.25 18.1946C23.45 18.1946 21.99 19.5914 21.99 21.3017V35.8112C21.99 38.5383 19.66 40.7522 16.8 40.7522C13.94 40.7522 11.61 38.5383 11.61 35.8112V21.3017C11.61 20.7981 12.04 20.38 12.57 20.38C13.1 20.38 13.53 20.7886 13.53 21.3017V35.8112C13.53 37.5216 14.99 38.9184 16.79 38.9184C18.59 38.9184 20.05 37.5216 20.05 35.8112V21.3017C20.05 18.5747 22.38 16.3607 25.24 16.3607C28.1 16.3607 30.43 18.5747 30.43 21.3017V35.8112C30.43 37.5216 31.89 38.9184 33.69 38.9184C35.49 38.9184 36.95 37.5216 36.95 35.8112V21.3017C36.95 18.5747 39.28 16.3607 42.14 16.3607C45 16.3607 47.33 18.5842 47.33 21.3017Z" fill="#020203"/>
<path d="M82.2852 32.5391C82.2852 31.4323 81.8945 30.5859 81.1133 30C80.332 29.401 78.9258 28.776 76.8945 28.125C74.8633 27.4609 73.2552 26.8099 72.0703 26.1719C68.8411 24.4271 67.2266 22.0768 67.2266 19.1211C67.2266 17.5846 67.6562 16.2174 68.5156 15.0195C69.388 13.8086 70.6315 12.8646 72.2461 12.1875C73.8737 11.5104 75.6966 11.1719 77.7148 11.1719C79.7461 11.1719 81.556 11.543 83.1445 12.2852C84.7331 13.0143 85.9635 14.0495 86.8359 15.3906C87.7214 16.7318 88.1641 18.2552 88.1641 19.9609H82.3047C82.3047 18.6589 81.8945 17.6497 81.0742 16.9336C80.2539 16.2044 79.1016 15.8398 77.6172 15.8398C76.1849 15.8398 75.0716 16.1458 74.2773 16.7578C73.4831 17.3568 73.0859 18.151 73.0859 19.1406C73.0859 20.0651 73.5482 20.8398 74.4727 21.4648C75.4102 22.0898 76.7839 22.6758 78.5938 23.2227C81.9271 24.2253 84.3555 25.4688 85.8789 26.9531C87.4023 28.4375 88.1641 30.2865 88.1641 32.5C88.1641 34.9609 87.2331 36.8945 85.3711 38.3008C83.5091 39.694 81.0026 40.3906 77.8516 40.3906C75.6641 40.3906 73.6719 39.9935 71.875 39.1992C70.0781 38.3919 68.7044 37.2917 67.7539 35.8984C66.8164 34.5052 66.3477 32.8906 66.3477 31.0547H72.2266C72.2266 34.1927 74.1016 35.7617 77.8516 35.7617C79.2448 35.7617 80.332 35.4818 81.1133 34.9219C81.8945 34.349 82.2852 33.5547 82.2852 32.5391ZM97.7344 40H92.0703V18.8672H97.7344V40ZM91.7383 13.3984C91.7383 12.5521 92.0182 11.8555 92.5781 11.3086C93.151 10.7617 93.9258 10.4883 94.9023 10.4883C95.8659 10.4883 96.6341 10.7617 97.207 11.3086C97.7799 11.8555 98.0664 12.5521 98.0664 13.3984C98.0664 14.2578 97.7734 14.9609 97.1875 15.5078C96.6146 16.0547 95.8529 16.3281 94.9023 16.3281C93.9518 16.3281 93.1836 16.0547 92.5977 15.5078C92.0247 14.9609 91.7383 14.2578 91.7383 13.3984ZM107.598 18.8672L107.773 21.3086C109.284 19.4206 111.309 18.4766 113.848 18.4766C116.087 18.4766 117.754 19.1341 118.848 20.4492C119.941 21.7643 120.501 23.7305 120.527 26.3477V40H114.883V26.4844C114.883 25.2865 114.622 24.4206 114.102 23.8867C113.581 23.3398 112.715 23.0664 111.504 23.0664C109.915 23.0664 108.724 23.7435 107.93 25.0977V40H102.285V18.8672H107.598ZM137.48 37.8516C136.087 39.5443 134.16 40.3906 131.699 40.3906C129.434 40.3906 127.702 39.7396 126.504 38.4375C125.319 37.1354 124.714 35.2279 124.688 32.7148V18.8672H130.332V32.5195C130.332 34.7201 131.335 35.8203 133.34 35.8203C135.254 35.8203 136.569 35.1562 137.285 33.8281V18.8672H142.949V40H137.637L137.48 37.8516ZM158.652 34.1602C158.652 33.4701 158.307 32.9297 157.617 32.5391C156.94 32.1354 155.846 31.7773 154.336 31.4648C149.31 30.4102 146.797 28.2747 146.797 25.0586C146.797 23.1836 147.572 21.6211 149.121 20.3711C150.684 19.1081 152.721 18.4766 155.234 18.4766C157.917 18.4766 160.059 19.1081 161.66 20.3711C163.275 21.6341 164.082 23.2747 164.082 25.293H158.438C158.438 24.4857 158.177 23.8216 157.656 23.3008C157.135 22.7669 156.322 22.5 155.215 22.5C154.264 22.5 153.529 22.7148 153.008 23.1445C152.487 23.5742 152.227 24.1211 152.227 24.7852C152.227 25.4102 152.52 25.918 153.105 26.3086C153.704 26.6862 154.707 27.0182 156.113 27.3047C157.52 27.5781 158.704 27.8906 159.668 28.2422C162.65 29.3359 164.141 31.2305 164.141 33.9258C164.141 35.8529 163.314 37.4154 161.66 38.6133C160.007 39.7982 157.871 40.3906 155.254 40.3906C153.483 40.3906 151.908 40.0781 150.527 39.4531C149.16 38.8151 148.086 37.9492 147.305 36.8555C146.523 35.7487 146.133 34.5573 146.133 33.2812H151.484C151.536 34.2839 151.908 35.0521 152.598 35.5859C153.288 36.1198 154.212 36.3867 155.371 36.3867C156.452 36.3867 157.266 36.1849 157.812 35.7812C158.372 35.3646 158.652 34.8242 158.652 34.1602Z" fill="black"/>
<path d="M73.62 50.48H70.991C70.815 50.48 70.639 50.4067 70.463 50.26L70.166 50.007C70.012 49.8823 69.935 49.7357 69.935 49.567V47.29C69.935 47.07 70.023 46.8867 70.199 46.74L70.463 46.52C70.639 46.3733 70.815 46.3 70.991 46.3H73.917C74.093 46.3 74.269 46.3733 74.445 46.52L74.709 46.74C74.885 46.8867 74.973 47.07 74.973 47.29V47.73H74.049V47.521C74.049 47.411 74.0417 47.3413 74.027 47.312C74.0197 47.2753 73.983 47.2313 73.917 47.18C73.851 47.1287 73.7997 47.0993 73.763 47.092C73.7263 47.0773 73.642 47.07 73.51 47.07H71.398C71.266 47.07 71.1817 47.0773 71.145 47.092C71.1083 47.0993 71.057 47.1287 70.991 47.18C70.925 47.2313 70.8847 47.2753 70.87 47.312C70.8627 47.3413 70.859 47.411 70.859 47.521V49.259C70.859 49.369 70.8627 49.4423 70.87 49.479C70.8847 49.5083 70.925 49.5487 70.991 49.6C71.057 49.6513 71.1083 49.6843 71.145 49.699C71.1817 49.7063 71.266 49.71 71.398 49.71H74.027C74.203 49.71 74.379 49.7833 74.555 49.93L74.819 50.15C74.995 50.2967 75.083 50.48 75.083 50.7V53.01C75.083 53.23 74.995 53.4133 74.819 53.56L74.555 53.78C74.379 53.9267 74.203 54 74.027 54H70.881C70.705 54 70.529 53.9267 70.353 53.78L70.089 53.56C69.913 53.4133 69.825 53.23 69.825 53.01V52.57H70.749V52.779C70.749 52.889 70.7527 52.9623 70.76 52.999C70.7747 53.0283 70.815 53.0687 70.881 53.12C70.947 53.1713 70.9983 53.2043 71.035 53.219C71.0717 53.2263 71.156 53.23 71.288 53.23H73.62C73.752 53.23 73.8363 53.2263 73.873 53.219C73.9097 53.2043 73.961 53.1713 74.027 53.12C74.093 53.0687 74.1297 53.0283 74.137 52.999C74.1517 52.9623 74.159 52.889 74.159 52.779V50.931C74.159 50.821 74.1517 50.7513 74.137 50.722C74.1297 50.6853 74.093 50.6413 74.027 50.59C73.961 50.5387 73.9097 50.5093 73.873 50.502C73.8363 50.4873 73.752 50.48 73.62 50.48ZM77.0072 46.3H77.9312V49.71H79.1192L80.7802 47.037C80.8829 46.861 81.0149 46.718 81.1762 46.608L81.3852 46.465C81.5026 46.3843 81.5832 46.3367 81.6272 46.322C81.6786 46.3073 81.7702 46.3 81.9022 46.3H82.1442V46.729C82.1442 46.8977 82.1332 47.004 82.1112 47.048C82.0892 47.092 82.0122 47.1507 81.8802 47.224L81.7592 47.29C81.6419 47.356 81.5649 47.4073 81.5282 47.444C81.4916 47.4807 81.4329 47.5613 81.3522 47.686L80.0322 49.82C79.9222 50.0033 79.8306 50.095 79.7572 50.095V50.139C79.8306 50.139 79.9222 50.227 80.0322 50.403L81.4292 52.614C81.5026 52.7387 81.5576 52.8193 81.5942 52.856C81.6382 52.8927 81.7189 52.944 81.8362 53.01L81.9572 53.076C82.0892 53.1493 82.1662 53.208 82.1882 53.252C82.2102 53.296 82.2212 53.4023 82.2212 53.571V54H81.9132C81.7812 54 81.6896 53.9927 81.6382 53.978C81.5942 53.9633 81.5136 53.9157 81.3962 53.835L81.1872 53.692C81.0772 53.6113 81.0039 53.5527 80.9672 53.516C80.9306 53.472 80.8719 53.384 80.7912 53.252L79.0752 50.48H77.9312V54H77.0072V46.3ZM83.2678 54L85.9078 46.3H87.2058L89.9008 54H88.9768L88.4048 52.405H84.7418L84.1918 54H83.2678ZM86.5788 46.96H86.5348C86.5348 47.048 86.5091 47.1543 86.4578 47.279L84.9728 51.69H88.1738L86.6558 47.279C86.6044 47.1543 86.5788 47.048 86.5788 46.96ZM90.3861 46.3H96.1941V47.07H93.7521V54H92.8281V47.07H90.3861V46.3ZM102.163 53.23V54H97.2348V46.3H102.163V47.07H98.1588V49.71H101.547V50.48H98.1588V53.23H102.163ZM108.235 50.821L107.993 50.623C107.905 50.5497 107.843 50.5093 107.806 50.502C107.77 50.4873 107.696 50.48 107.586 50.48H105.012V53.23H107.883C108.015 53.23 108.1 53.2263 108.136 53.219C108.173 53.2043 108.224 53.1713 108.29 53.12C108.356 53.0687 108.393 53.0283 108.4 52.999C108.415 52.9623 108.422 52.889 108.422 52.779V51.217C108.422 51.0997 108.415 51.0227 108.4 50.986C108.386 50.9493 108.331 50.8943 108.235 50.821ZM105.012 47.07V49.71H107.399C107.531 49.71 107.616 49.7063 107.652 49.699C107.696 49.6843 107.755 49.6477 107.828 49.589L108.114 49.358C108.202 49.2847 108.254 49.2297 108.268 49.193C108.283 49.1563 108.29 49.0757 108.29 48.951V47.521C108.29 47.411 108.283 47.3413 108.268 47.312C108.261 47.2753 108.224 47.2313 108.158 47.18C108.092 47.1287 108.041 47.0993 108.004 47.092C107.968 47.0773 107.883 47.07 107.751 47.07H105.012ZM108.356 49.974V50.029C108.444 50.029 108.547 50.0767 108.664 50.172L109.192 50.601C109.258 50.6597 109.299 50.7147 109.313 50.766C109.335 50.81 109.346 50.898 109.346 51.03V53.01C109.346 53.23 109.258 53.4133 109.082 53.56C109.024 53.604 108.936 53.6773 108.818 53.78C108.642 53.9267 108.466 54 108.29 54H104.088V46.3H108.158C108.334 46.3 108.51 46.3733 108.686 46.52L108.95 46.74C109.126 46.8867 109.214 47.07 109.214 47.29V49.171C109.214 49.325 109.156 49.4497 109.038 49.545L108.664 49.831C108.547 49.9263 108.444 49.974 108.356 49.974ZM112.331 46.3H116.357C116.533 46.3 116.709 46.3733 116.885 46.52L117.149 46.74C117.325 46.8867 117.413 47.07 117.413 47.29V53.01C117.413 53.23 117.325 53.4133 117.149 53.56L116.885 53.78C116.709 53.9267 116.533 54 116.357 54H112.331C112.155 54 111.979 53.9267 111.803 53.78L111.539 53.56C111.363 53.4133 111.275 53.23 111.275 53.01V47.29C111.275 47.07 111.363 46.8867 111.539 46.74L111.803 46.52C111.979 46.3733 112.155 46.3 112.331 46.3ZM116.489 52.779V47.521C116.489 47.411 116.481 47.3413 116.467 47.312C116.459 47.2753 116.423 47.2313 116.357 47.18C116.291 47.1287 116.239 47.0993 116.203 47.092C116.166 47.0773 116.082 47.07 115.95 47.07H112.738C112.606 47.07 112.521 47.0773 112.485 47.092C112.448 47.0993 112.397 47.1287 112.331 47.18C112.265 47.2313 112.224 47.2753 112.21 47.312C112.202 47.3413 112.199 47.411 112.199 47.521V52.779C112.199 52.889 112.202 52.9623 112.21 52.999C112.224 53.0283 112.265 53.0687 112.331 53.12C112.397 53.1713 112.448 53.2043 112.485 53.219C112.521 53.2263 112.606 53.23 112.738 53.23H115.95C116.082 53.23 116.166 53.2263 116.203 53.219C116.239 53.2043 116.291 53.1713 116.357 53.12C116.423 53.0687 116.459 53.0283 116.467 52.999C116.481 52.9623 116.489 52.889 116.489 52.779ZM119.061 54L121.701 46.3H122.999L125.694 54H124.77L124.198 52.405H120.535L119.985 54H119.061ZM122.372 46.96H122.328C122.328 47.048 122.302 47.1543 122.251 47.279L120.766 51.69H123.967L122.449 47.279C122.397 47.1543 122.372 47.048 122.372 46.96ZM127.345 46.3H131.415C131.591 46.3 131.767 46.3733 131.943 46.52L132.207 46.74C132.383 46.8867 132.471 47.07 132.471 47.29V49.864C132.471 50.0913 132.379 50.282 132.196 50.436L131.921 50.667C131.76 50.799 131.591 50.865 131.415 50.865H130.799L131.932 52.625C132.013 52.7497 132.068 52.8303 132.097 52.867C132.134 52.8963 132.211 52.944 132.328 53.01L132.449 53.076C132.581 53.1493 132.658 53.208 132.68 53.252C132.702 53.296 132.713 53.4023 132.713 53.571V54H132.438C132.306 54 132.214 53.9927 132.163 53.978C132.119 53.9633 132.038 53.9157 131.921 53.835L131.712 53.692C131.551 53.582 131.419 53.439 131.316 53.263L129.853 50.92H128.269V54H127.345V46.3ZM128.269 47.07V50.15H131.008C131.14 50.15 131.224 50.1463 131.261 50.139C131.298 50.1243 131.349 50.0913 131.415 50.04C131.481 49.9887 131.518 49.9483 131.525 49.919C131.54 49.8823 131.547 49.809 131.547 49.699V47.521C131.547 47.411 131.54 47.3413 131.525 47.312C131.518 47.2753 131.481 47.2313 131.415 47.18C131.349 47.1287 131.298 47.0993 131.261 47.092C131.224 47.0773 131.14 47.07 131.008 47.07H128.269ZM134.746 54V46.3H138.816C139.007 46.3 139.183 46.3733 139.344 46.52L140.4 47.4C140.576 47.5467 140.664 47.6933 140.664 47.84V52.46C140.664 52.6067 140.576 52.7533 140.4 52.9L139.344 53.78C139.183 53.9267 139.007 54 138.816 54H134.746ZM139.74 52.13V48.17C139.74 48.0233 139.652 47.8767 139.476 47.73L138.948 47.29C138.787 47.1433 138.611 47.07 138.42 47.07H135.67V53.23H138.42C138.611 53.23 138.787 53.1567 138.948 53.01L139.476 52.57C139.652 52.4233 139.74 52.2767 139.74 52.13ZM146.108 50.48H143.479C143.303 50.48 143.127 50.4067 142.951 50.26L142.654 50.007C142.5 49.8823 142.423 49.7357 142.423 49.567V47.29C142.423 47.07 142.511 46.8867 142.687 46.74L142.951 46.52C143.127 46.3733 143.303 46.3 143.479 46.3H146.405C146.581 46.3 146.757 46.3733 146.933 46.52L147.197 46.74C147.373 46.8867 147.461 47.07 147.461 47.29V47.73H146.537V47.521C146.537 47.411 146.53 47.3413 146.515 47.312C146.508 47.2753 146.471 47.2313 146.405 47.18C146.339 47.1287 146.288 47.0993 146.251 47.092C146.215 47.0773 146.13 47.07 145.998 47.07H143.886C143.754 47.07 143.67 47.0773 143.633 47.092C143.597 47.0993 143.545 47.1287 143.479 47.18C143.413 47.2313 143.373 47.2753 143.358 47.312C143.351 47.3413 143.347 47.411 143.347 47.521V49.259C143.347 49.369 143.351 49.4423 143.358 49.479C143.373 49.5083 143.413 49.5487 143.479 49.6C143.545 49.6513 143.597 49.6843 143.633 49.699C143.67 49.7063 143.754 49.71 143.886 49.71H146.515C146.691 49.71 146.867 49.7833 147.043 49.93L147.307 50.15C147.483 50.2967 147.571 50.48 147.571 50.7V53.01C147.571 53.23 147.483 53.4133 147.307 53.56L147.043 53.78C146.867 53.9267 146.691 54 146.515 54H143.369C143.193 54 143.017 53.9267 142.841 53.78L142.577 53.56C142.401 53.4133 142.313 53.23 142.313 53.01V52.57H143.237V52.779C143.237 52.889 143.241 52.9623 143.248 52.999C143.263 53.0283 143.303 53.0687 143.369 53.12C143.435 53.1713 143.487 53.2043 143.523 53.219C143.56 53.2263 143.644 53.23 143.776 53.23H146.108C146.24 53.23 146.325 53.2263 146.361 53.219C146.398 53.2043 146.449 53.1713 146.515 53.12C146.581 53.0687 146.618 53.0283 146.625 52.999C146.64 52.9623 146.647 52.889 146.647 52.779V50.931C146.647 50.821 146.64 50.7513 146.625 50.722C146.618 50.6853 146.581 50.6413 146.515 50.59C146.449 50.5387 146.398 50.5093 146.361 50.502C146.325 50.4873 146.24 50.48 146.108 50.48Z" fill="black"/>
</svg>
